<svg width="40" height="48" viewBox="0 0 40 48" fill="none" xmlns="http://www.w3.org/2000/svg">
<path d="M33.0995 25.5009C33.1669 32.7649 39.4719 35.1821 39.5417 35.2129C39.4884 35.3833 38.5343 38.6576 36.22 42.0398C34.2193 44.9639 32.143 47.8772 28.8721 47.9375C25.6581 47.9967 24.6246 46.0317 20.9501 46.0317C17.2767 46.0317 16.1284 47.8773 13.086 47.9968C9.92876 48.1164 7.52445 44.8349 5.50729 41.9215C1.38529 35.9622 -1.76477 25.0819 2.46496 17.7375C4.5662 14.0902 8.32128 11.7806 12.3971 11.7214C15.4974 11.6622 18.4237 13.8072 20.3191 13.8072C22.2132 13.8072 25.7693 11.2277 29.5078 11.6065C31.0728 11.6717 35.466 12.2387 38.2868 16.3678C38.0595 16.5087 33.045 19.428 33.0995 25.5009ZM27.0591 7.66392C28.7354 5.63493 29.8635 2.8104 29.5558 0C27.1396 0.0971082 24.218 1.61004 22.4849 3.63792C20.9318 5.43369 19.5716 8.30794 19.9386 11.0627C22.6317 11.2711 25.3828 9.69419 27.0591 7.66392Z" fill="white"/>
</svg>
