<svg width="48" height="48" viewBox="0 0 48 48" fill="none" xmlns="http://www.w3.org/2000/svg">
<g clip-path="url(#clip0_78_227)">
<path d="M37.0995 25.5009C37.1669 32.7649 43.4718 35.1821 43.5417 35.2129C43.4884 35.3833 42.5343 38.6576 40.2199 42.0398C38.2192 44.9639 36.1429 47.8772 32.872 47.9375C29.658 47.9967 28.6246 46.0317 24.95 46.0317C21.2766 46.0317 20.1284 47.8773 17.086 47.9968C13.9287 48.1164 11.5244 44.8349 9.50726 41.9215C5.38526 35.9622 2.2352 25.0819 6.46493 17.7375C8.56617 14.0902 12.3213 11.7806 16.3971 11.7214C19.4974 11.6622 22.4237 13.8072 24.319 13.8072C26.2132 13.8072 29.7693 11.2277 33.5077 11.6065C35.0728 11.6717 39.466 12.2387 42.2868 16.3678C42.0595 16.5087 37.0449 19.428 37.0995 25.5009ZM31.0591 7.66392C32.7353 5.63493 33.8635 2.8104 33.5557 0C31.1396 0.0971082 28.2179 1.61004 26.4849 3.63792C24.9318 5.43369 23.5716 8.30794 23.9386 11.0627C26.6316 11.2711 29.3828 9.69419 31.0591 7.66392Z" fill="white"/>
</g>
<defs>
<clipPath id="clip0_78_227">
<rect width="48" height="48" fill="white"/>
</clipPath>
</defs>
</svg>
