<svg width="537" height="416" viewBox="0 0 537 416" fill="none" xmlns="http://www.w3.org/2000/svg">
<rect x="179" width="179" height="86" rx="10" fill="url(#paint0_linear_306_353)"/>
<path d="M221.872 39.408V42H210.592V41.04C210.592 40.432 210.68 39.856 210.856 39.312C211.048 38.752 211.248 38.288 211.456 37.92C211.664 37.552 212.008 37.144 212.488 36.696C212.968 36.232 213.336 35.904 213.592 35.712C213.848 35.504 214.296 35.168 214.936 34.704C215.592 34.24 216.008 33.944 216.184 33.816C217.192 33.08 217.92 32.432 218.368 31.872C218.816 31.312 219.04 30.64 219.04 29.856C219.04 29.072 218.8 28.448 218.32 27.984C217.84 27.504 217.176 27.264 216.328 27.264C215.448 27.264 214.72 27.528 214.144 28.056C213.568 28.568 213.272 29.272 213.256 30.168H210.592C210.592 28.552 211.136 27.232 212.224 26.208C213.328 25.184 214.704 24.672 216.352 24.672C217.872 24.672 219.144 25.12 220.168 26.016C221.192 26.912 221.704 28.168 221.704 29.784C221.704 31.064 221.408 32.144 220.816 33.024C220.24 33.888 219.28 34.8 217.936 35.76C217.728 35.92 217.344 36.192 216.784 36.576C216.224 36.96 215.808 37.256 215.536 37.464C215.28 37.672 215 37.96 214.696 38.328C214.392 38.68 214.184 39.04 214.072 39.408H221.872ZM226.226 42.192C225.666 42.192 225.178 41.992 224.762 41.592C224.362 41.176 224.162 40.68 224.162 40.104C224.162 39.544 224.362 39.056 224.762 38.64C225.178 38.224 225.666 38.016 226.226 38.016C226.802 38.016 227.29 38.224 227.69 38.64C228.106 39.056 228.314 39.544 228.314 40.104C228.314 40.68 228.106 41.176 227.69 41.592C227.29 41.992 226.802 42.192 226.226 42.192ZM231.954 42V27.576H228.522L230.538 24.96H234.594V42H231.954ZM245.915 42V37.728H237.107V35.592L246.203 24.96H248.555V35.28H250.835V37.728H248.555V42H245.915ZM240.419 35.28H245.915V28.896L240.419 35.28ZM259.459 24.96H262.027L267.979 33.024L273.955 24.96H276.523V42H273.691V29.784L268.003 37.512L262.267 29.76V42H259.459V24.96ZM279.493 36.216V33.888H283.381V30H285.733V33.888H289.621V36.216H285.733V40.104H283.381V36.216H279.493Z" fill="url(#paint1_linear_306_353)"/>
<path d="M214.81 65.168C213.373 65.168 212.155 64.6733 211.156 63.684C210.167 62.6947 209.672 61.4767 209.672 60.03C209.672 58.5833 210.167 57.3653 211.156 56.376C212.155 55.3867 213.373 54.892 214.81 54.892C215.715 54.892 216.546 55.102 217.302 55.522C218.058 55.9327 218.669 56.4973 219.136 57.216L218.254 57.776C217.89 57.1973 217.409 56.74 216.812 56.404C216.215 56.068 215.547 55.9 214.81 55.9C213.662 55.9 212.696 56.3013 211.912 57.104C211.137 57.8973 210.75 58.8727 210.75 60.03C210.75 61.1967 211.137 62.1767 211.912 62.97C212.696 63.7633 213.662 64.16 214.81 64.16C215.547 64.16 216.215 63.992 216.812 63.656C217.409 63.32 217.89 62.8627 218.254 62.284L219.136 62.844C218.669 63.5627 218.058 64.132 217.302 64.552C216.546 64.9627 215.715 65.168 214.81 65.168ZM223.236 65.14C222.48 65.14 221.864 64.888 221.388 64.384C220.912 63.88 220.674 63.2127 220.674 62.382V58H221.654V62.242C221.654 62.8487 221.813 63.334 222.13 63.698C222.447 64.0527 222.858 64.23 223.362 64.23C223.969 64.23 224.468 63.9827 224.86 63.488C225.261 62.984 225.462 62.3167 225.462 61.486V58H226.442V65H225.462V63.824C224.986 64.7013 224.244 65.14 223.236 65.14ZM230.896 65.14C230.234 65.14 229.66 64.9953 229.174 64.706C228.698 64.4073 228.367 63.978 228.18 63.418L229.062 63.054C229.174 63.4273 229.403 63.7213 229.748 63.936C230.103 64.1507 230.49 64.258 230.91 64.258C231.302 64.258 231.624 64.1647 231.876 63.978C232.138 63.782 232.268 63.516 232.268 63.18C232.268 62.9 232.166 62.6667 231.96 62.48C231.764 62.284 231.428 62.1067 230.952 61.948L230.196 61.71C229.076 61.3647 228.516 60.702 228.516 59.722C228.516 59.1527 228.736 58.7 229.174 58.364C229.622 58.028 230.182 57.86 230.854 57.86C231.909 57.86 232.665 58.2707 233.122 59.092L232.338 59.582C231.965 59.0127 231.452 58.728 230.798 58.728C230.453 58.728 230.15 58.8213 229.888 59.008C229.627 59.1853 229.496 59.4093 229.496 59.68C229.496 60.2027 229.86 60.5807 230.588 60.814L231.386 61.066C232.628 61.458 233.248 62.1347 233.248 63.096C233.248 63.74 233.029 64.244 232.59 64.608C232.161 64.9627 231.596 65.14 230.896 65.14ZM237.565 65.07C236.977 65.07 236.497 64.902 236.123 64.566C235.759 64.2207 235.577 63.7167 235.577 63.054V58.924H234.079V58H235.577V56.054H236.557V58H238.601V58.924H236.557V62.97C236.557 63.3993 236.651 63.7073 236.837 63.894C237.033 64.0713 237.327 64.16 237.719 64.16C238.074 64.16 238.368 64.1087 238.601 64.006V64.888C238.293 65.0093 237.948 65.07 237.565 65.07ZM245.788 64.09C245.098 64.79 244.225 65.14 243.17 65.14C242.116 65.14 241.243 64.79 240.552 64.09C239.862 63.3807 239.516 62.5173 239.516 61.5C239.516 60.4827 239.862 59.624 240.552 58.924C241.243 58.2147 242.116 57.86 243.17 57.86C244.225 57.86 245.098 58.2147 245.788 58.924C246.479 59.624 246.824 60.4827 246.824 61.5C246.824 62.5173 246.479 63.3807 245.788 64.09ZM241.252 63.446C241.747 63.9687 242.386 64.23 243.17 64.23C243.954 64.23 244.589 63.9687 245.074 63.446C245.569 62.914 245.816 62.2653 245.816 61.5C245.816 60.7347 245.569 60.0907 245.074 59.568C244.589 59.036 243.954 58.77 243.17 58.77C242.386 58.77 241.747 59.036 241.252 59.568C240.767 60.0907 240.524 60.7347 240.524 61.5C240.524 62.2653 240.767 62.914 241.252 63.446ZM257.721 65V60.758C257.721 60.1607 257.591 59.68 257.329 59.316C257.077 58.952 256.713 58.77 256.237 58.77C255.612 58.77 255.108 59.022 254.725 59.526C254.352 60.0207 254.165 60.6833 254.165 61.514V65H253.185V60.758C253.185 60.1607 253.055 59.68 252.793 59.316C252.541 58.952 252.182 58.77 251.715 58.77C251.099 58.77 250.595 59.022 250.203 59.526C249.821 60.0207 249.629 60.6833 249.629 61.514V65H248.649V58H249.629V59.176C249.835 58.7653 250.129 58.4433 250.511 58.21C250.894 57.9767 251.328 57.86 251.813 57.86C252.336 57.86 252.784 58 253.157 58.28C253.54 58.56 253.815 58.9473 253.983 59.442C254.161 58.9567 254.45 58.574 254.851 58.294C255.262 58.0047 255.747 57.86 256.307 57.86C257.035 57.86 257.614 58.1167 258.043 58.63C258.482 59.134 258.701 59.7967 258.701 60.618V65H257.721ZM264.019 65.14C262.946 65.14 262.078 64.7947 261.415 64.104C260.752 63.404 260.421 62.536 260.421 61.5C260.421 60.4733 260.762 59.61 261.443 58.91C262.124 58.21 262.992 57.86 264.047 57.86C264.99 57.86 265.774 58.1773 266.399 58.812C267.024 59.4467 267.337 60.31 267.337 61.402V61.668H261.429C261.429 62.396 261.672 63.0073 262.157 63.502C262.642 63.9873 263.263 64.23 264.019 64.23C264.579 64.23 265.036 64.1227 265.391 63.908C265.755 63.684 266.068 63.3527 266.329 62.914L267.127 63.432C266.464 64.5707 265.428 65.14 264.019 65.14ZM261.513 60.8H266.315C266.222 60.1747 265.965 59.68 265.545 59.316C265.125 58.952 264.612 58.77 264.005 58.77C263.398 58.77 262.857 58.9567 262.381 59.33C261.914 59.694 261.625 60.184 261.513 60.8ZM269.143 65V58H270.123V59.442C270.273 58.9753 270.539 58.6067 270.921 58.336C271.304 58.0653 271.715 57.93 272.153 57.93C272.349 57.93 272.517 57.9487 272.657 57.986V59.008C272.489 58.9427 272.293 58.91 272.069 58.91C271.575 58.91 271.127 59.134 270.725 59.582C270.324 60.03 270.123 60.6647 270.123 61.486V65H269.143ZM276.055 65.14C275.392 65.14 274.818 64.9953 274.333 64.706C273.857 64.4073 273.525 63.978 273.339 63.418L274.221 63.054C274.333 63.4273 274.561 63.7213 274.907 63.936C275.261 64.1507 275.649 64.258 276.069 64.258C276.461 64.258 276.783 64.1647 277.035 63.978C277.296 63.782 277.427 63.516 277.427 63.18C277.427 62.9 277.324 62.6667 277.119 62.48C276.923 62.284 276.587 62.1067 276.111 61.948L275.355 61.71C274.235 61.3647 273.675 60.702 273.675 59.722C273.675 59.1527 273.894 58.7 274.333 58.364C274.781 58.028 275.341 57.86 276.013 57.86C277.067 57.86 277.823 58.2707 278.281 59.092L277.497 59.582C277.123 59.0127 276.61 58.728 275.957 58.728C275.611 58.728 275.308 58.8213 275.047 59.008C274.785 59.1853 274.655 59.4093 274.655 59.68C274.655 60.2027 275.019 60.5807 275.747 60.814L276.545 61.066C277.786 61.458 278.407 62.1347 278.407 63.096C278.407 63.74 278.187 64.244 277.749 64.608C277.319 64.9627 276.755 65.14 276.055 65.14ZM285.748 65.14C285.085 65.14 284.511 64.9953 284.026 64.706C283.55 64.4073 283.219 63.978 283.032 63.418L283.914 63.054C284.026 63.4273 284.255 63.7213 284.6 63.936C284.955 64.1507 285.342 64.258 285.762 64.258C286.154 64.258 286.476 64.1647 286.728 63.978C286.989 63.782 287.12 63.516 287.12 63.18C287.12 62.9 287.017 62.6667 286.812 62.48C286.616 62.284 286.28 62.1067 285.804 61.948L285.048 61.71C283.928 61.3647 283.368 60.702 283.368 59.722C283.368 59.1527 283.587 58.7 284.026 58.364C284.474 58.028 285.034 57.86 285.706 57.86C286.761 57.86 287.517 58.2707 287.974 59.092L287.19 59.582C286.817 59.0127 286.303 58.728 285.65 58.728C285.305 58.728 285.001 58.8213 284.74 59.008C284.479 59.1853 284.348 59.4093 284.348 59.68C284.348 60.2027 284.712 60.5807 285.44 60.814L286.238 61.066C287.479 61.458 288.1 62.1347 288.1 63.096C288.1 63.74 287.881 64.244 287.442 64.608C287.013 64.9627 286.448 65.14 285.748 65.14ZM292.99 65.14C291.916 65.14 291.048 64.7947 290.386 64.104C289.723 63.404 289.392 62.536 289.392 61.5C289.392 60.4733 289.732 59.61 290.414 58.91C291.095 58.21 291.963 57.86 293.018 57.86C293.96 57.86 294.744 58.1773 295.37 58.812C295.995 59.4467 296.308 60.31 296.308 61.402V61.668H290.4C290.4 62.396 290.642 63.0073 291.128 63.502C291.613 63.9873 292.234 64.23 292.99 64.23C293.55 64.23 294.007 64.1227 294.362 63.908C294.726 63.684 295.038 63.3527 295.3 62.914L296.098 63.432C295.435 64.5707 294.399 65.14 292.99 65.14ZM290.484 60.8H295.286C295.192 60.1747 294.936 59.68 294.516 59.316C294.096 58.952 293.582 58.77 292.976 58.77C292.369 58.77 291.828 58.9567 291.352 59.33C290.885 59.694 290.596 60.184 290.484 60.8ZM298.114 65V58H299.094V59.442C299.243 58.9753 299.509 58.6067 299.892 58.336C300.275 58.0653 300.685 57.93 301.124 57.93C301.32 57.93 301.488 57.9487 301.628 57.986V59.008C301.46 58.9427 301.264 58.91 301.04 58.91C300.545 58.91 300.097 59.134 299.696 59.582C299.295 60.03 299.094 60.6647 299.094 61.486V65H298.114ZM305.302 65L302.026 58H303.118L305.68 63.558L308.242 58H309.348L306.072 65H305.302ZM313.566 65.14C312.492 65.14 311.624 64.7947 310.962 64.104C310.299 63.404 309.968 62.536 309.968 61.5C309.968 60.4733 310.308 59.61 310.99 58.91C311.671 58.21 312.539 57.86 313.594 57.86C314.536 57.86 315.32 58.1773 315.946 58.812C316.571 59.4467 316.884 60.31 316.884 61.402V61.668H310.976C310.976 62.396 311.218 63.0073 311.704 63.502C312.189 63.9873 312.81 64.23 313.566 64.23C314.126 64.23 314.583 64.1227 314.938 63.908C315.302 63.684 315.614 63.3527 315.876 62.914L316.674 63.432C316.011 64.5707 314.975 65.14 313.566 65.14ZM311.06 60.8H315.862C315.768 60.1747 315.512 59.68 315.092 59.316C314.672 58.952 314.158 58.77 313.552 58.77C312.945 58.77 312.404 58.9567 311.928 59.33C311.461 59.694 311.172 60.184 311.06 60.8ZM321.588 65.14C320.608 65.14 319.782 64.7853 319.11 64.076C318.438 63.3667 318.102 62.508 318.102 61.5C318.102 60.492 318.438 59.6333 319.11 58.924C319.782 58.2147 320.608 57.86 321.588 57.86C322.12 57.86 322.62 57.9813 323.086 58.224C323.562 58.4667 323.926 58.784 324.178 59.176V54.5H325.158V65H324.178V63.824C323.926 64.216 323.562 64.5333 323.086 64.776C322.62 65.0187 322.12 65.14 321.588 65.14ZM319.824 63.446C320.31 63.9687 320.93 64.23 321.686 64.23C322.442 64.23 323.058 63.9687 323.534 63.446C324.02 62.914 324.262 62.2653 324.262 61.5C324.262 60.7347 324.02 60.0907 323.534 59.568C323.058 59.036 322.442 58.77 321.686 58.77C320.93 58.77 320.31 59.036 319.824 59.568C319.348 60.0907 319.11 60.7347 319.11 61.5C319.11 62.2653 319.348 62.914 319.824 63.446Z" fill="#9CA0C1"/>
<rect x="179" y="330" width="179" height="86" rx="10" fill="url(#paint2_linear_306_353)"/>
<path d="M239.665 373V358.576H236.233L238.249 355.96H242.305V373H239.665ZM255.306 371.608C254.218 372.696 252.818 373.24 251.106 373.24C249.394 373.24 247.994 372.696 246.906 371.608C245.818 370.504 245.274 369.136 245.274 367.504C245.274 366.72 245.426 366 245.73 365.344C246.05 364.688 246.538 363.936 247.194 363.088L252.882 355.96H256.194L251.394 362.008H251.658C253.05 362.008 254.282 362.536 255.354 363.592C256.426 364.632 256.962 365.928 256.962 367.48C256.962 369.128 256.41 370.504 255.306 371.608ZM248.826 369.784C249.434 370.392 250.194 370.696 251.106 370.696C252.018 370.696 252.778 370.392 253.386 369.784C253.994 369.16 254.298 368.4 254.298 367.504C254.298 366.624 253.986 365.872 253.362 365.248C252.754 364.624 252.002 364.312 251.106 364.312C250.21 364.312 249.458 364.624 248.85 365.248C248.242 365.872 247.938 366.624 247.938 367.504C247.938 368.4 248.234 369.16 248.826 369.784ZM269.909 371.416C268.757 372.632 267.277 373.24 265.469 373.24C263.661 373.24 262.181 372.632 261.029 371.416C259.877 370.184 259.301 368.608 259.301 366.688V362.224C259.301 360.304 259.877 358.736 261.029 357.52C262.181 356.288 263.661 355.672 265.469 355.672C267.277 355.672 268.757 356.288 269.909 357.52C271.077 358.736 271.661 360.304 271.661 362.224V366.688C271.661 368.608 271.077 370.184 269.909 371.416ZM265.469 370.648C266.541 370.648 267.397 370.296 268.037 369.592C268.693 368.888 269.021 367.92 269.021 366.688V362.224C269.021 360.992 268.693 360.024 268.037 359.32C267.397 358.616 266.541 358.264 265.469 358.264C264.413 358.264 263.557 358.616 262.901 359.32C262.261 360.024 261.941 360.992 261.941 362.224V366.688C261.941 367.92 262.261 368.888 262.901 369.592C263.557 370.296 264.413 370.648 265.469 370.648ZM273.868 367.216V364.888H277.756V361H280.108V364.888H283.996V367.216H280.108V371.104H277.756V367.216H273.868Z" fill="url(#paint3_linear_306_353)"/>
<path d="M241.81 395.168C240.373 395.168 239.155 394.673 238.156 393.684C237.167 392.695 236.672 391.477 236.672 390.03C236.672 388.583 237.167 387.365 238.156 386.376C239.155 385.387 240.373 384.892 241.81 384.892C242.715 384.892 243.546 385.102 244.302 385.522C245.058 385.933 245.669 386.497 246.136 387.216L245.254 387.776C244.89 387.197 244.409 386.74 243.812 386.404C243.215 386.068 242.547 385.9 241.81 385.9C240.662 385.9 239.696 386.301 238.912 387.104C238.137 387.897 237.75 388.873 237.75 390.03C237.75 391.197 238.137 392.177 238.912 392.97C239.696 393.763 240.662 394.16 241.81 394.16C242.547 394.16 243.215 393.992 243.812 393.656C244.409 393.32 244.89 392.863 245.254 392.284L246.136 392.844C245.669 393.563 245.058 394.132 244.302 394.552C243.546 394.963 242.715 395.168 241.81 395.168ZM253.47 394.09C252.779 394.79 251.907 395.14 250.852 395.14C249.797 395.14 248.925 394.79 248.234 394.09C247.543 393.381 247.198 392.517 247.198 391.5C247.198 390.483 247.543 389.624 248.234 388.924C248.925 388.215 249.797 387.86 250.852 387.86C251.907 387.86 252.779 388.215 253.47 388.924C254.161 389.624 254.506 390.483 254.506 391.5C254.506 392.517 254.161 393.381 253.47 394.09ZM248.934 393.446C249.429 393.969 250.068 394.23 250.852 394.23C251.636 394.23 252.271 393.969 252.756 393.446C253.251 392.914 253.498 392.265 253.498 391.5C253.498 390.735 253.251 390.091 252.756 389.568C252.271 389.036 251.636 388.77 250.852 388.77C250.068 388.77 249.429 389.036 248.934 389.568C248.449 390.091 248.206 390.735 248.206 391.5C248.206 392.265 248.449 392.914 248.934 393.446ZM258.781 395.14C258.025 395.14 257.409 394.888 256.933 394.384C256.457 393.88 256.219 393.213 256.219 392.382V388H257.199V392.242C257.199 392.849 257.358 393.334 257.675 393.698C257.992 394.053 258.403 394.23 258.907 394.23C259.514 394.23 260.013 393.983 260.405 393.488C260.806 392.984 261.007 392.317 261.007 391.486V388H261.987V395H261.007V393.824C260.531 394.701 259.789 395.14 258.781 395.14ZM264.397 395V388H265.377V389.176C265.853 388.299 266.619 387.86 267.673 387.86C268.448 387.86 269.078 388.107 269.563 388.602C270.058 389.097 270.305 389.769 270.305 390.618V395H269.325V390.758C269.325 390.151 269.162 389.671 268.835 389.316C268.518 388.952 268.093 388.77 267.561 388.77C266.927 388.77 266.404 389.017 265.993 389.512C265.583 389.997 265.377 390.665 265.377 391.514V395H264.397ZM275.024 395.07C274.436 395.07 273.956 394.902 273.582 394.566C273.218 394.221 273.036 393.717 273.036 393.054V388.924H271.538V388H273.036V386.054H274.016V388H276.06V388.924H274.016V392.97C274.016 393.399 274.11 393.707 274.296 393.894C274.492 394.071 274.786 394.16 275.178 394.16C275.533 394.16 275.827 394.109 276.06 394.006V394.888C275.752 395.009 275.407 395.07 275.024 395.07ZM277.659 395V388H278.639V389.442C278.788 388.975 279.054 388.607 279.437 388.336C279.82 388.065 280.23 387.93 280.669 387.93C280.865 387.93 281.033 387.949 281.173 387.986V389.008C281.005 388.943 280.809 388.91 280.585 388.91C280.09 388.91 279.642 389.134 279.241 389.582C278.84 390.03 278.639 390.665 278.639 391.486V395H277.659ZM283.167 385.9C282.952 385.9 282.77 385.83 282.621 385.69C282.481 385.541 282.411 385.363 282.411 385.158C282.411 384.953 282.481 384.78 282.621 384.64C282.77 384.491 282.952 384.416 283.167 384.416C283.372 384.416 283.545 384.491 283.685 384.64C283.825 384.78 283.895 384.953 283.895 385.158C283.895 385.363 283.825 385.541 283.685 385.69C283.545 385.83 283.372 385.9 283.167 385.9ZM282.663 395V388H283.643V395H282.663ZM289.078 395.14C288.004 395.14 287.136 394.795 286.474 394.104C285.811 393.404 285.48 392.536 285.48 391.5C285.48 390.473 285.82 389.61 286.502 388.91C287.183 388.21 288.051 387.86 289.106 387.86C290.048 387.86 290.832 388.177 291.458 388.812C292.083 389.447 292.396 390.31 292.396 391.402V391.668H286.488C286.488 392.396 286.73 393.007 287.216 393.502C287.701 393.987 288.322 394.23 289.078 394.23C289.638 394.23 290.095 394.123 290.45 393.908C290.814 393.684 291.126 393.353 291.388 392.914L292.186 393.432C291.523 394.571 290.487 395.14 289.078 395.14ZM286.572 390.8H291.374C291.28 390.175 291.024 389.68 290.604 389.316C290.184 388.952 289.67 388.77 289.064 388.77C288.457 388.77 287.916 388.957 287.44 389.33C286.973 389.694 286.684 390.184 286.572 390.8ZM296.246 395.14C295.583 395.14 295.009 394.995 294.524 394.706C294.048 394.407 293.717 393.978 293.53 393.418L294.412 393.054C294.524 393.427 294.753 393.721 295.098 393.936C295.453 394.151 295.84 394.258 296.26 394.258C296.652 394.258 296.974 394.165 297.226 393.978C297.487 393.782 297.618 393.516 297.618 393.18C297.618 392.9 297.515 392.667 297.31 392.48C297.114 392.284 296.778 392.107 296.302 391.948L295.546 391.71C294.426 391.365 293.866 390.702 293.866 389.722C293.866 389.153 294.085 388.7 294.524 388.364C294.972 388.028 295.532 387.86 296.204 387.86C297.259 387.86 298.015 388.271 298.472 389.092L297.688 389.582C297.315 389.013 296.801 388.728 296.148 388.728C295.803 388.728 295.499 388.821 295.238 389.008C294.977 389.185 294.846 389.409 294.846 389.68C294.846 390.203 295.21 390.581 295.938 390.814L296.736 391.066C297.977 391.458 298.598 392.135 298.598 393.096C298.598 393.74 298.379 394.244 297.94 394.608C297.511 394.963 296.946 395.14 296.246 395.14Z" fill="#9CA0C1"/>
<rect x="358" y="125" width="179" height="86" rx="10" fill="url(#paint4_linear_306_353)"/>
<path d="M383.926 168.288C382.566 168.288 381.342 168.008 380.254 167.448C379.166 166.888 378.366 166.144 377.854 165.216L380.062 163.464C381.006 164.92 382.326 165.648 384.022 165.648C384.838 165.648 385.502 165.456 386.014 165.072C386.526 164.672 386.782 164.16 386.782 163.536C386.782 162.4 385.974 161.536 384.358 160.944L382.486 160.272C381.11 159.776 380.094 159.144 379.438 158.376C378.782 157.592 378.454 156.624 378.454 155.472C378.454 154.016 378.974 152.856 380.014 151.992C381.054 151.112 382.382 150.672 383.998 150.672C386.158 150.672 387.878 151.448 389.158 153L387.214 154.896C386.334 153.84 385.254 153.312 383.974 153.312C383.222 153.312 382.582 153.488 382.054 153.84C381.542 154.192 381.286 154.672 381.286 155.28C381.286 155.872 381.478 156.344 381.862 156.696C382.262 157.032 382.934 157.376 383.878 157.728L385.606 158.376C386.918 158.872 387.918 159.52 388.606 160.32C389.294 161.12 389.63 162.136 389.614 163.368C389.614 164.84 389.086 166.032 388.03 166.944C386.974 167.84 385.606 168.288 383.926 168.288ZM393.612 153.384C393.132 153.384 392.716 153.216 392.364 152.88C392.012 152.528 391.836 152.104 391.836 151.608C391.836 151.128 392.012 150.72 392.364 150.384C392.716 150.032 393.132 149.856 393.612 149.856C394.108 149.856 394.524 150.032 394.86 150.384C395.196 150.72 395.364 151.128 395.364 151.608C395.364 152.104 395.196 152.528 394.86 152.88C394.524 153.216 394.108 153.384 393.612 153.384ZM392.292 168V156H394.932V168H392.292ZM398.479 168V156H401.119V157.632C401.871 156.384 403.087 155.76 404.767 155.76C406.159 155.76 407.271 156.216 408.103 157.128C408.935 158.04 409.351 159.256 409.351 160.776V168H406.711V161.208C406.711 160.248 406.487 159.504 406.039 158.976C405.591 158.432 404.983 158.16 404.215 158.16C403.303 158.16 402.559 158.504 401.983 159.192C401.407 159.88 401.119 160.848 401.119 162.096V168H398.479ZM418.201 168.24C416.393 168.24 414.881 167.648 413.665 166.464C412.465 165.264 411.865 163.776 411.865 162C411.865 160.224 412.465 158.744 413.665 157.56C414.881 156.36 416.393 155.76 418.201 155.76C419.433 155.76 420.537 156.056 421.513 156.648C422.505 157.24 423.265 158.048 423.793 159.072L421.489 160.32C421.185 159.68 420.745 159.168 420.169 158.784C419.593 158.4 418.937 158.208 418.201 158.208C417.145 158.208 416.273 158.576 415.585 159.312C414.897 160.032 414.553 160.928 414.553 162C414.553 163.072 414.897 163.976 415.585 164.712C416.273 165.432 417.145 165.792 418.201 165.792C418.937 165.792 419.593 165.6 420.169 165.216C420.745 164.832 421.185 164.32 421.489 163.68L423.793 164.928C423.265 165.952 422.505 166.76 421.513 167.352C420.537 167.944 419.433 168.24 418.201 168.24ZM431.63 168.24C429.806 168.24 428.302 167.656 427.118 166.488C425.95 165.32 425.366 163.824 425.366 162C425.366 160.224 425.958 158.744 427.142 157.56C428.326 156.36 429.822 155.76 431.63 155.76C433.294 155.76 434.67 156.288 435.758 157.344C436.862 158.4 437.414 159.856 437.414 161.712C437.414 162.032 437.406 162.32 437.39 162.576H427.958C428.022 163.552 428.398 164.344 429.086 164.952C429.774 165.544 430.63 165.84 431.654 165.84C433.19 165.84 434.334 165.232 435.086 164.016L437.102 165.456C435.95 167.312 434.126 168.24 431.63 168.24ZM428.078 160.656H434.75C434.606 159.824 434.23 159.176 433.622 158.712C433.03 158.232 432.334 157.992 431.534 157.992C430.702 157.992 429.958 158.224 429.302 158.688C428.662 159.152 428.254 159.808 428.078 160.656ZM456.384 165.408V168H445.104V167.04C445.104 166.432 445.192 165.856 445.368 165.312C445.56 164.752 445.76 164.288 445.968 163.92C446.176 163.552 446.52 163.144 447 162.696C447.48 162.232 447.848 161.904 448.104 161.712C448.36 161.504 448.808 161.168 449.448 160.704C450.104 160.24 450.52 159.944 450.696 159.816C451.704 159.08 452.432 158.432 452.88 157.872C453.328 157.312 453.552 156.64 453.552 155.856C453.552 155.072 453.312 154.448 452.832 153.984C452.352 153.504 451.688 153.264 450.84 153.264C449.96 153.264 449.232 153.528 448.656 154.056C448.08 154.568 447.784 155.272 447.768 156.168H445.104C445.104 154.552 445.648 153.232 446.736 152.208C447.84 151.184 449.216 150.672 450.864 150.672C452.384 150.672 453.656 151.12 454.68 152.016C455.704 152.912 456.216 154.168 456.216 155.784C456.216 157.064 455.92 158.144 455.328 159.024C454.752 159.888 453.792 160.8 452.448 161.76C452.24 161.92 451.856 162.192 451.296 162.576C450.736 162.96 450.32 163.256 450.048 163.464C449.792 163.672 449.512 163.96 449.208 164.328C448.904 164.68 448.696 165.04 448.584 165.408H456.384ZM469.522 166.416C468.37 167.632 466.89 168.24 465.082 168.24C463.274 168.24 461.794 167.632 460.642 166.416C459.49 165.184 458.914 163.608 458.914 161.688V157.224C458.914 155.304 459.49 153.736 460.642 152.52C461.794 151.288 463.274 150.672 465.082 150.672C466.89 150.672 468.37 151.288 469.522 152.52C470.69 153.736 471.274 155.304 471.274 157.224V161.688C471.274 163.608 470.69 165.184 469.522 166.416ZM465.082 165.648C466.154 165.648 467.01 165.296 467.65 164.592C468.306 163.888 468.634 162.92 468.634 161.688V157.224C468.634 155.992 468.306 155.024 467.65 154.32C467.01 153.616 466.154 153.264 465.082 153.264C464.026 153.264 463.17 153.616 462.514 154.32C461.874 155.024 461.554 155.992 461.554 157.224V161.688C461.554 162.92 461.874 163.888 462.514 164.592C463.17 165.296 464.026 165.648 465.082 165.648ZM476.146 168V153.576H472.714L474.73 150.96H478.786V168H476.146ZM490.107 168V163.728H481.299V161.592L490.395 150.96H492.747V161.28H495.027V163.728H492.747V168H490.107ZM484.611 161.28H490.107V154.896L484.611 161.28Z" fill="url(#paint5_linear_306_353)"/>
<path d="M380.976 190.168C380.173 190.168 379.459 190 378.834 189.664C378.209 189.319 377.779 188.889 377.546 188.376L378.428 187.746C379.016 188.689 379.87 189.16 380.99 189.16C381.569 189.16 382.045 189.011 382.418 188.712C382.801 188.413 382.992 188.017 382.992 187.522C382.992 186.691 382.511 186.089 381.55 185.716L380.08 185.156C379.305 184.867 378.745 184.512 378.4 184.092C378.055 183.672 377.882 183.121 377.882 182.44C377.882 181.675 378.167 181.059 378.736 180.592C379.315 180.125 380.043 179.892 380.92 179.892C381.527 179.892 382.073 180.018 382.558 180.27C383.053 180.522 383.445 180.849 383.734 181.25L382.908 181.922C382.339 181.241 381.662 180.9 380.878 180.9C380.327 180.9 379.865 181.045 379.492 181.334C379.128 181.614 378.946 181.978 378.946 182.426C378.946 182.865 379.058 183.21 379.282 183.462C379.515 183.705 379.898 183.929 380.43 184.134L381.746 184.638C382.521 184.937 383.099 185.31 383.482 185.758C383.865 186.206 384.056 186.785 384.056 187.494C384.056 188.315 383.771 188.969 383.202 189.454C382.633 189.93 381.891 190.168 380.976 190.168ZM388.912 190.14C387.838 190.14 386.97 189.795 386.308 189.104C385.645 188.404 385.314 187.536 385.314 186.5C385.314 185.473 385.654 184.61 386.336 183.91C387.017 183.21 387.885 182.86 388.94 182.86C389.882 182.86 390.666 183.177 391.292 183.812C391.917 184.447 392.23 185.31 392.23 186.402V186.668H386.322C386.322 187.396 386.564 188.007 387.05 188.502C387.535 188.987 388.156 189.23 388.912 189.23C389.472 189.23 389.929 189.123 390.284 188.908C390.648 188.684 390.96 188.353 391.222 187.914L392.02 188.432C391.357 189.571 390.321 190.14 388.912 190.14ZM386.406 185.8H391.208C391.114 185.175 390.858 184.68 390.438 184.316C390.018 183.952 389.504 183.77 388.898 183.77C388.291 183.77 387.75 183.957 387.274 184.33C386.807 184.694 386.518 185.184 386.406 185.8ZM394.036 190V183H395.016V184.442C395.165 183.975 395.431 183.607 395.814 183.336C396.197 183.065 396.607 182.93 397.046 182.93C397.242 182.93 397.41 182.949 397.55 182.986V184.008C397.382 183.943 397.186 183.91 396.962 183.91C396.467 183.91 396.019 184.134 395.618 184.582C395.217 185.03 395.016 185.665 395.016 186.486V190H394.036ZM401.224 190L397.948 183H399.04L401.602 188.558L404.164 183H405.27L401.994 190H401.224ZM407.091 180.9C406.876 180.9 406.694 180.83 406.545 180.69C406.405 180.541 406.335 180.363 406.335 180.158C406.335 179.953 406.405 179.78 406.545 179.64C406.694 179.491 406.876 179.416 407.091 179.416C407.296 179.416 407.469 179.491 407.609 179.64C407.749 179.78 407.819 179.953 407.819 180.158C407.819 180.363 407.749 180.541 407.609 180.69C407.469 180.83 407.296 180.9 407.091 180.9ZM406.587 190V183H407.567V190H406.587ZM409.977 190V183H410.957V184.176C411.433 183.299 412.199 182.86 413.253 182.86C414.028 182.86 414.658 183.107 415.143 183.602C415.638 184.097 415.885 184.769 415.885 185.618V190H414.905V185.758C414.905 185.151 414.742 184.671 414.415 184.316C414.098 183.952 413.673 183.77 413.141 183.77C412.507 183.77 411.984 184.017 411.573 184.512C411.163 184.997 410.957 185.665 410.957 186.514V190H409.977ZM419.315 188.334C419.791 188.838 420.407 189.09 421.163 189.09C421.919 189.09 422.53 188.838 422.997 188.334C423.473 187.83 423.711 187.195 423.711 186.43C423.711 185.665 423.473 185.03 422.997 184.526C422.53 184.022 421.919 183.77 421.163 183.77C420.407 183.77 419.791 184.022 419.315 184.526C418.848 185.03 418.615 185.665 418.615 186.43C418.615 187.195 418.848 187.83 419.315 188.334ZM421.149 193.066C420.393 193.066 419.725 192.921 419.147 192.632C418.568 192.343 418.134 191.979 417.845 191.54L418.615 190.882C419.221 191.731 420.066 192.156 421.149 192.156C421.821 192.156 422.399 191.941 422.885 191.512C423.379 191.083 423.627 190.439 423.627 189.58V188.684C423.365 189.076 423.006 189.393 422.549 189.636C422.091 189.879 421.597 190 421.065 190C420.075 190 419.249 189.659 418.587 188.978C417.933 188.287 417.607 187.438 417.607 186.43C417.607 185.422 417.933 184.577 418.587 183.896C419.249 183.205 420.075 182.86 421.065 182.86C421.597 182.86 422.091 182.981 422.549 183.224C423.006 183.467 423.365 183.784 423.627 184.176V183H424.607V189.636C424.607 190.737 424.285 191.582 423.641 192.17C422.997 192.767 422.166 193.066 421.149 193.066ZM430.948 180.9C430.734 180.9 430.552 180.83 430.402 180.69C430.262 180.541 430.192 180.363 430.192 180.158C430.192 179.953 430.262 179.78 430.402 179.64C430.552 179.491 430.734 179.416 430.948 179.416C431.154 179.416 431.326 179.491 431.466 179.64C431.606 179.78 431.676 179.953 431.676 180.158C431.676 180.363 431.606 180.541 431.466 180.69C431.326 180.83 431.154 180.9 430.948 180.9ZM430.444 190V183H431.424V190H430.444ZM433.835 190V183H434.815V184.176C435.291 183.299 436.056 182.86 437.111 182.86C437.886 182.86 438.516 183.107 439.001 183.602C439.496 184.097 439.743 184.769 439.743 185.618V190H438.763V185.758C438.763 185.151 438.6 184.671 438.273 184.316C437.956 183.952 437.531 183.77 436.999 183.77C436.364 183.77 435.842 184.017 435.431 184.512C435.02 184.997 434.815 185.665 434.815 186.514V190H433.835ZM445.652 190V180.06H448.788C449.702 180.06 450.426 180.307 450.958 180.802C451.49 181.297 451.756 181.899 451.756 182.608C451.756 183.579 451.378 184.283 450.622 184.722C451.816 185.123 452.414 185.917 452.414 187.102C452.414 187.951 452.101 188.647 451.476 189.188C450.86 189.729 450.038 190 449.012 190H445.652ZM446.716 189.034H449.124C449.852 189.034 450.407 188.866 450.79 188.53C451.172 188.194 451.364 187.746 451.364 187.186C451.364 186.626 451.172 186.178 450.79 185.842C450.416 185.497 449.866 185.324 449.138 185.324H446.716V189.034ZM446.716 184.4H448.858C449.436 184.4 449.889 184.246 450.216 183.938C450.542 183.621 450.706 183.215 450.706 182.72C450.706 182.253 450.538 181.857 450.202 181.53C449.875 181.194 449.427 181.026 448.858 181.026H446.716V184.4ZM454.261 190V179.5H455.241V190H454.261ZM463.335 189.09C462.645 189.79 461.772 190.14 460.717 190.14C459.663 190.14 458.79 189.79 458.099 189.09C457.409 188.381 457.063 187.517 457.063 186.5C457.063 185.483 457.409 184.624 458.099 183.924C458.79 183.215 459.663 182.86 460.717 182.86C461.772 182.86 462.645 183.215 463.335 183.924C464.026 184.624 464.371 185.483 464.371 186.5C464.371 187.517 464.026 188.381 463.335 189.09ZM458.799 188.446C459.294 188.969 459.933 189.23 460.717 189.23C461.501 189.23 462.136 188.969 462.621 188.446C463.116 187.914 463.363 187.265 463.363 186.5C463.363 185.735 463.116 185.091 462.621 184.568C462.136 184.036 461.501 183.77 460.717 183.77C459.933 183.77 459.294 184.036 458.799 184.568C458.314 185.091 458.071 185.735 458.071 186.5C458.071 187.265 458.314 187.914 458.799 188.446ZM469.262 190.14C468.208 190.14 467.335 189.79 466.644 189.09C465.954 188.381 465.608 187.517 465.608 186.5C465.608 185.483 465.954 184.624 466.644 183.924C467.335 183.215 468.208 182.86 469.262 182.86C469.972 182.86 470.602 183.023 471.152 183.35C471.712 183.677 472.151 184.125 472.468 184.694L471.614 185.184C471.39 184.745 471.073 184.4 470.662 184.148C470.261 183.896 469.794 183.77 469.262 183.77C468.478 183.77 467.839 184.036 467.344 184.568C466.859 185.091 466.616 185.735 466.616 186.5C466.616 187.265 466.859 187.914 467.344 188.446C467.839 188.969 468.478 189.23 469.262 189.23C469.794 189.23 470.261 189.104 470.662 188.852C471.073 188.6 471.39 188.255 471.614 187.816L472.468 188.306C472.151 188.875 471.712 189.323 471.152 189.65C470.602 189.977 469.972 190.14 469.262 190.14ZM479.194 190L475.12 186.43V190H474.14V179.5H475.12V185.758L478.41 183H479.796L476.114 186.08L480.594 190H479.194ZM484.219 190.14C483.165 190.14 482.292 189.79 481.601 189.09C480.911 188.381 480.565 187.517 480.565 186.5C480.565 185.483 480.911 184.624 481.601 183.924C482.292 183.215 483.165 182.86 484.219 182.86C484.929 182.86 485.559 183.023 486.109 183.35C486.669 183.677 487.108 184.125 487.425 184.694L486.571 185.184C486.347 184.745 486.03 184.4 485.619 184.148C485.218 183.896 484.751 183.77 484.219 183.77C483.435 183.77 482.796 184.036 482.301 184.568C481.816 185.091 481.573 185.735 481.573 186.5C481.573 187.265 481.816 187.914 482.301 188.446C482.796 188.969 483.435 189.23 484.219 189.23C484.751 189.23 485.218 189.104 485.619 188.852C486.03 188.6 486.347 188.255 486.571 187.816L487.425 188.306C487.108 188.875 486.669 189.323 486.109 189.65C485.559 189.977 484.929 190.14 484.219 190.14ZM490.077 190H489.097V179.5H490.077V184.176C490.553 183.299 491.318 182.86 492.373 182.86C493.147 182.86 493.777 183.107 494.263 183.602C494.757 184.097 495.005 184.769 495.005 185.618V190H494.025V185.758C494.025 185.151 493.861 184.671 493.535 184.316C493.217 183.952 492.793 183.77 492.261 183.77C491.626 183.77 491.103 184.017 490.693 184.512C490.282 184.997 490.077 185.665 490.077 186.514V190ZM500.198 190.14C499.218 190.14 498.392 189.785 497.72 189.076C497.048 188.367 496.712 187.508 496.712 186.5C496.712 185.492 497.048 184.633 497.72 183.924C498.392 183.215 499.218 182.86 500.198 182.86C500.73 182.86 501.229 182.981 501.696 183.224C502.172 183.467 502.536 183.784 502.788 184.176V183H503.768V190H502.788V188.824C502.536 189.216 502.172 189.533 501.696 189.776C501.229 190.019 500.73 190.14 500.198 190.14ZM498.434 188.446C498.919 188.969 499.54 189.23 500.296 189.23C501.052 189.23 501.668 188.969 502.144 188.446C502.629 187.914 502.872 187.265 502.872 186.5C502.872 185.735 502.629 185.091 502.144 184.568C501.668 184.036 501.052 183.77 500.296 183.77C499.54 183.77 498.919 184.036 498.434 184.568C497.958 185.091 497.72 185.735 497.72 186.5C497.72 187.265 497.958 187.914 498.434 188.446ZM506.677 180.9C506.462 180.9 506.28 180.83 506.131 180.69C505.991 180.541 505.921 180.363 505.921 180.158C505.921 179.953 505.991 179.78 506.131 179.64C506.28 179.491 506.462 179.416 506.677 179.416C506.882 179.416 507.055 179.491 507.195 179.64C507.335 179.78 507.405 179.953 507.405 180.158C507.405 180.363 507.335 180.541 507.195 180.69C507.055 180.83 506.882 180.9 506.677 180.9ZM506.173 190V183H507.153V190H506.173ZM509.563 190V183H510.543V184.176C511.019 183.299 511.785 182.86 512.839 182.86C513.614 182.86 514.244 183.107 514.729 183.602C515.224 184.097 515.471 184.769 515.471 185.618V190H514.491V185.758C514.491 185.151 514.328 184.671 514.001 184.316C513.684 183.952 513.259 183.77 512.727 183.77C512.093 183.77 511.57 184.017 511.159 184.512C510.749 184.997 510.543 185.665 510.543 186.514V190H509.563Z" fill="#9CA0C1"/>
<rect y="203" width="179" height="86" rx="10" fill="url(#paint6_linear_306_353)"/>
<path d="M40.4699 246V241.728H31.6619V239.592L40.7579 228.96H43.1099V239.28H45.3899V241.728H43.1099V246H40.4699ZM34.9739 239.28H40.4699V232.896L34.9739 239.28ZM49.4778 246V231.576H46.0458L48.0618 228.96H52.1178V246H49.4778ZM57.3907 246.192C56.8307 246.192 56.3427 245.992 55.9267 245.592C55.5267 245.176 55.3267 244.68 55.3267 244.104C55.3267 243.544 55.5267 243.056 55.9267 242.64C56.3427 242.224 56.8307 242.016 57.3907 242.016C57.9667 242.016 58.4547 242.224 58.8547 242.64C59.2707 243.056 59.4787 243.544 59.4787 244.104C59.4787 244.68 59.2707 245.176 58.8547 245.592C58.4547 245.992 57.9667 246.192 57.3907 246.192ZM72.9582 243.408V246H61.6782V245.04C61.6782 244.432 61.7662 243.856 61.9422 243.312C62.1342 242.752 62.3342 242.288 62.5422 241.92C62.7502 241.552 63.0942 241.144 63.5742 240.696C64.0542 240.232 64.4222 239.904 64.6782 239.712C64.9342 239.504 65.3822 239.168 66.0222 238.704C66.6782 238.24 67.0942 237.944 67.2702 237.816C68.2782 237.08 69.0062 236.432 69.4542 235.872C69.9022 235.312 70.1262 234.64 70.1262 233.856C70.1262 233.072 69.8862 232.448 69.4062 231.984C68.9262 231.504 68.2622 231.264 67.4142 231.264C66.5342 231.264 65.8062 231.528 65.2302 232.056C64.6542 232.568 64.3582 233.272 64.3422 234.168H61.6782C61.6782 232.552 62.2222 231.232 63.3102 230.208C64.4142 229.184 65.7902 228.672 67.4382 228.672C68.9582 228.672 70.2302 229.12 71.2542 230.016C72.2782 230.912 72.7902 232.168 72.7902 233.784C72.7902 235.064 72.4942 236.144 71.9022 237.024C71.3262 237.888 70.3662 238.8 69.0222 239.76C68.8142 239.92 68.4302 240.192 67.8702 240.576C67.3102 240.96 66.8942 241.256 66.6222 241.464C66.3662 241.672 66.0862 241.96 65.7822 242.328C65.4782 242.68 65.2702 243.04 65.1582 243.408H72.9582ZM83.1496 246V241.728H74.3416V239.592L83.4376 228.96H85.7896V239.28H88.0696V241.728H85.7896V246H83.1496ZM77.6536 239.28H83.1496V232.896L77.6536 239.28ZM96.6935 228.96H99.2615L105.213 237.024L111.189 228.96H113.757V246H110.925V233.784L105.237 241.512L99.5015 233.76V246H96.6935V228.96ZM116.728 240.216V237.888H120.616V234H122.968V237.888H126.856V240.216H122.968V244.104H120.616V240.216H116.728Z" fill="url(#paint7_linear_306_353)"/>
<path d="M33.912 265.97C34.696 266.763 35.662 267.16 36.81 267.16C37.958 267.16 38.9193 266.763 39.694 265.97C40.478 265.177 40.87 264.197 40.87 263.03C40.87 261.873 40.478 260.897 39.694 260.104C38.9193 259.301 37.958 258.9 36.81 258.9C35.662 258.9 34.696 259.301 33.912 260.104C33.1373 260.897 32.75 261.873 32.75 263.03C32.75 264.197 33.1373 265.177 33.912 265.97ZM40.45 266.684C39.4607 267.673 38.2473 268.168 36.81 268.168C35.3727 268.168 34.1547 267.673 33.156 266.684C32.1667 265.695 31.672 264.477 31.672 263.03C31.672 261.583 32.1667 260.365 33.156 259.376C34.1547 258.387 35.3727 257.892 36.81 257.892C38.2473 257.892 39.4607 258.387 40.45 259.376C41.4487 260.365 41.948 261.583 41.948 263.03C41.948 264.477 41.4487 265.695 40.45 266.684ZM43.8251 268V261H44.8051V262.442C44.9544 261.975 45.2204 261.607 45.6031 261.336C45.9858 261.065 46.3964 260.93 46.8351 260.93C47.0311 260.93 47.1991 260.949 47.3391 260.986V262.008C47.1711 261.943 46.9751 261.91 46.7511 261.91C46.2564 261.91 45.8084 262.134 45.4071 262.582C45.0058 263.03 44.8051 263.665 44.8051 264.486V268H43.8251ZM51.4946 268.14C50.5146 268.14 49.6886 267.785 49.0166 267.076C48.3446 266.367 48.0086 265.508 48.0086 264.5C48.0086 263.492 48.3446 262.633 49.0166 261.924C49.6886 261.215 50.5146 260.86 51.4946 260.86C52.0266 260.86 52.5259 260.981 52.9926 261.224C53.4686 261.467 53.8326 261.784 54.0846 262.176V257.5H55.0646V268H54.0846V266.824C53.8326 267.216 53.4686 267.533 52.9926 267.776C52.5259 268.019 52.0266 268.14 51.4946 268.14ZM49.7306 266.446C50.2159 266.969 50.8366 267.23 51.5926 267.23C52.3486 267.23 52.9646 266.969 53.4406 266.446C53.9259 265.914 54.1686 265.265 54.1686 264.5C54.1686 263.735 53.9259 263.091 53.4406 262.568C52.9646 262.036 52.3486 261.77 51.5926 261.77C50.8366 261.77 50.2159 262.036 49.7306 262.568C49.2546 263.091 49.0166 263.735 49.0166 264.5C49.0166 265.265 49.2546 265.914 49.7306 266.446ZM60.4936 268.14C59.4203 268.14 58.5523 267.795 57.8896 267.104C57.227 266.404 56.8956 265.536 56.8956 264.5C56.8956 263.473 57.2363 262.61 57.9176 261.91C58.599 261.21 59.467 260.86 60.5216 260.86C61.4643 260.86 62.2483 261.177 62.8736 261.812C63.499 262.447 63.8116 263.31 63.8116 264.402V264.668H57.9036C57.9036 265.396 58.1463 266.007 58.6316 266.502C59.117 266.987 59.7376 267.23 60.4936 267.23C61.0536 267.23 61.511 267.123 61.8656 266.908C62.2296 266.684 62.5423 266.353 62.8036 265.914L63.6016 266.432C62.939 267.571 61.903 268.14 60.4936 268.14ZM57.9876 263.8H62.7896C62.6963 263.175 62.4396 262.68 62.0196 262.316C61.5996 261.952 61.0863 261.77 60.4796 261.77C59.873 261.77 59.3316 261.957 58.8556 262.33C58.389 262.694 58.0996 263.184 57.9876 263.8ZM65.6181 268V261H66.5981V262.442C66.7474 261.975 67.0134 261.607 67.3961 261.336C67.7787 261.065 68.1894 260.93 68.6281 260.93C68.8241 260.93 68.9921 260.949 69.1321 260.986V262.008C68.9641 261.943 68.7681 261.91 68.5441 261.91C68.0494 261.91 67.6014 262.134 67.2001 262.582C66.7987 263.03 66.5981 263.665 66.5981 264.486V268H65.6181ZM72.5293 268.14C71.8666 268.14 71.2926 267.995 70.8073 267.706C70.3313 267.407 69.9999 266.978 69.8133 266.418L70.6953 266.054C70.8073 266.427 71.0359 266.721 71.3813 266.936C71.7359 267.151 72.1233 267.258 72.5433 267.258C72.9353 267.258 73.2573 267.165 73.5093 266.978C73.7706 266.782 73.9013 266.516 73.9013 266.18C73.9013 265.9 73.7986 265.667 73.5933 265.48C73.3973 265.284 73.0613 265.107 72.5853 264.948L71.8293 264.71C70.7093 264.365 70.1493 263.702 70.1493 262.722C70.1493 262.153 70.3686 261.7 70.8073 261.364C71.2553 261.028 71.8153 260.86 72.4873 260.86C73.5419 260.86 74.2979 261.271 74.7553 262.092L73.9713 262.582C73.5979 262.013 73.0846 261.728 72.4313 261.728C72.0859 261.728 71.7826 261.821 71.5213 262.008C71.2599 262.185 71.1292 262.409 71.1292 262.68C71.1292 263.203 71.4933 263.581 72.2213 263.814L73.0193 264.066C74.2606 264.458 74.8813 265.135 74.8813 266.096C74.8813 266.74 74.6619 267.244 74.2233 267.608C73.7939 267.963 73.2293 268.14 72.5293 268.14ZM85.7646 258.942C86.3899 259.53 86.7026 260.272 86.7026 261.168C86.7026 262.064 86.3899 262.806 85.7646 263.394C85.1486 263.973 84.3319 264.262 83.3146 264.262H81.4246V268H80.3606V258.06H83.3146C84.3319 258.06 85.1486 258.354 85.7646 258.942ZM85.0086 262.68C85.4193 262.288 85.6246 261.784 85.6246 261.168C85.6246 260.552 85.4193 260.048 85.0086 259.656C84.6073 259.255 84.0426 259.054 83.3146 259.054H81.4246V263.268H83.3146C84.0426 263.268 84.6073 263.072 85.0086 262.68ZM88.2724 268V261H89.2524V262.442C89.4017 261.975 89.6677 261.607 90.0504 261.336C90.433 261.065 90.8437 260.93 91.2824 260.93C91.4784 260.93 91.6464 260.949 91.7864 260.986V262.008C91.6184 261.943 91.4224 261.91 91.1984 261.91C90.7037 261.91 90.2557 262.134 89.8544 262.582C89.453 263.03 89.2524 263.665 89.2524 264.486V268H88.2724ZM98.7142 267.09C98.0235 267.79 97.1508 268.14 96.0962 268.14C95.0415 268.14 94.1688 267.79 93.4782 267.09C92.7875 266.381 92.4422 265.517 92.4422 264.5C92.4422 263.483 92.7875 262.624 93.4782 261.924C94.1688 261.215 95.0415 260.86 96.0962 260.86C97.1508 260.86 98.0235 261.215 98.7142 261.924C99.4048 262.624 99.7502 263.483 99.7502 264.5C99.7502 265.517 99.4048 266.381 98.7142 267.09ZM94.1782 266.446C94.6728 266.969 95.3122 267.23 96.0962 267.23C96.8802 267.23 97.5148 266.969 98.0002 266.446C98.4948 265.914 98.7422 265.265 98.7422 264.5C98.7422 263.735 98.4948 263.091 98.0002 262.568C97.5148 262.036 96.8802 261.77 96.0962 261.77C95.3122 261.77 94.6728 262.036 94.1782 262.568C93.6928 263.091 93.4502 263.735 93.4502 264.5C93.4502 265.265 93.6928 265.914 94.1782 266.446ZM104.641 268.14C103.586 268.14 102.714 267.79 102.023 267.09C101.332 266.381 100.987 265.517 100.987 264.5C100.987 263.483 101.332 262.624 102.023 261.924C102.714 261.215 103.586 260.86 104.641 260.86C105.35 260.86 105.98 261.023 106.531 261.35C107.091 261.677 107.53 262.125 107.847 262.694L106.993 263.184C106.769 262.745 106.452 262.4 106.041 262.148C105.64 261.896 105.173 261.77 104.641 261.77C103.857 261.77 103.218 262.036 102.723 262.568C102.238 263.091 101.995 263.735 101.995 264.5C101.995 265.265 102.238 265.914 102.723 266.446C103.218 266.969 103.857 267.23 104.641 267.23C105.173 267.23 105.64 267.104 106.041 266.852C106.452 266.6 106.769 266.255 106.993 265.816L107.847 266.306C107.53 266.875 107.091 267.323 106.531 267.65C105.98 267.977 105.35 268.14 104.641 268.14ZM112.542 268.14C111.469 268.14 110.601 267.795 109.938 267.104C109.276 266.404 108.944 265.536 108.944 264.5C108.944 263.473 109.285 262.61 109.966 261.91C110.648 261.21 111.516 260.86 112.57 260.86C113.513 260.86 114.297 261.177 114.922 261.812C115.548 262.447 115.86 263.31 115.86 264.402V264.668H109.952C109.952 265.396 110.195 266.007 110.68 266.502C111.166 266.987 111.786 267.23 112.542 267.23C113.102 267.23 113.56 267.123 113.914 266.908C114.278 266.684 114.591 266.353 114.852 265.914L115.65 266.432C114.988 267.571 113.952 268.14 112.542 268.14ZM110.036 263.8H114.838C114.745 263.175 114.488 262.68 114.068 262.316C113.648 261.952 113.135 261.77 112.528 261.77C111.922 261.77 111.38 261.957 110.904 262.33C110.438 262.694 110.148 263.184 110.036 263.8ZM119.711 268.14C119.048 268.14 118.474 267.995 117.989 267.706C117.513 267.407 117.182 266.978 116.995 266.418L117.877 266.054C117.989 266.427 118.218 266.721 118.563 266.936C118.918 267.151 119.305 267.258 119.725 267.258C120.117 267.258 120.439 267.165 120.691 266.978C120.952 266.782 121.083 266.516 121.083 266.18C121.083 265.9 120.98 265.667 120.775 265.48C120.579 265.284 120.243 265.107 119.767 264.948L119.011 264.71C117.891 264.365 117.331 263.702 117.331 262.722C117.331 262.153 117.55 261.7 117.989 261.364C118.437 261.028 118.997 260.86 119.669 260.86C120.724 260.86 121.48 261.271 121.937 262.092L121.153 262.582C120.78 262.013 120.266 261.728 119.613 261.728C119.268 261.728 118.964 261.821 118.703 262.008C118.442 262.185 118.311 262.409 118.311 262.68C118.311 263.203 118.675 263.581 119.403 263.814L120.201 264.066C121.442 264.458 122.063 265.135 122.063 266.096C122.063 266.74 121.844 267.244 121.405 267.608C120.976 267.963 120.411 268.14 119.711 268.14ZM125.973 268.14C125.31 268.14 124.736 267.995 124.251 267.706C123.775 267.407 123.443 266.978 123.257 266.418L124.139 266.054C124.251 266.427 124.479 266.721 124.825 266.936C125.179 267.151 125.567 267.258 125.987 267.258C126.379 267.258 126.701 267.165 126.953 266.978C127.214 266.782 127.345 266.516 127.345 266.18C127.345 265.9 127.242 265.667 127.037 265.48C126.841 265.284 126.505 265.107 126.029 264.948L125.273 264.71C124.153 264.365 123.593 263.702 123.593 262.722C123.593 262.153 123.812 261.7 124.251 261.364C124.699 261.028 125.259 260.86 125.931 260.86C126.985 260.86 127.741 261.271 128.199 262.092L127.415 262.582C127.041 262.013 126.528 261.728 125.875 261.728C125.529 261.728 125.226 261.821 124.965 262.008C124.703 262.185 124.573 262.409 124.573 262.68C124.573 263.203 124.937 263.581 125.665 263.814L126.463 264.066C127.704 264.458 128.325 265.135 128.325 266.096C128.325 266.74 128.105 267.244 127.667 267.608C127.237 267.963 126.673 268.14 125.973 268.14ZM133.214 268.14C132.141 268.14 131.273 267.795 130.61 267.104C129.948 266.404 129.616 265.536 129.616 264.5C129.616 263.473 129.957 262.61 130.638 261.91C131.32 261.21 132.188 260.86 133.242 260.86C134.185 260.86 134.969 261.177 135.594 261.812C136.22 262.447 136.532 263.31 136.532 264.402V264.668H130.624C130.624 265.396 130.867 266.007 131.352 266.502C131.838 266.987 132.458 267.23 133.214 267.23C133.774 267.23 134.232 267.123 134.586 266.908C134.95 266.684 135.263 266.353 135.524 265.914L136.322 266.432C135.66 267.571 134.624 268.14 133.214 268.14ZM130.708 263.8H135.51C135.417 263.175 135.16 262.68 134.74 262.316C134.32 261.952 133.807 261.77 133.2 261.77C132.594 261.77 132.052 261.957 131.576 262.33C131.11 262.694 130.82 263.184 130.708 263.8ZM141.237 268.14C140.257 268.14 139.431 267.785 138.759 267.076C138.087 266.367 137.751 265.508 137.751 264.5C137.751 263.492 138.087 262.633 138.759 261.924C139.431 261.215 140.257 260.86 141.237 260.86C141.769 260.86 142.268 260.981 142.735 261.224C143.211 261.467 143.575 261.784 143.827 262.176V257.5H144.807V268H143.827V266.824C143.575 267.216 143.211 267.533 142.735 267.776C142.268 268.019 141.769 268.14 141.237 268.14ZM139.473 266.446C139.958 266.969 140.579 267.23 141.335 267.23C142.091 267.23 142.707 266.969 143.183 266.446C143.668 265.914 143.911 265.265 143.911 264.5C143.911 263.735 143.668 263.091 143.183 262.568C142.707 262.036 142.091 261.77 141.335 261.77C140.579 261.77 139.958 262.036 139.473 262.568C138.997 263.091 138.759 263.735 138.759 264.5C138.759 265.265 138.997 265.914 139.473 266.446Z" fill="#9CA0C1"/>
<path d="M89 203L90.3689 169.599C92.586 115.502 125.797 67.533 175.652 46.4178L179 45" stroke="white" stroke-opacity="0.11" stroke-dasharray="4 4"/>
<path d="M359.273 38.9998L362.181 39.4472C407.26 46.3831 443.387 80.4143 453 125V125" stroke="white" stroke-opacity="0.11" stroke-dasharray="4 4"/>
<path d="M88.9967 289V289C90.874 329.155 118.694 363.403 157.613 373.469L179 379" stroke="white" stroke-opacity="0.11" stroke-dasharray="4 4"/>
<path d="M362.623 370.196V370.196C415.542 354.978 452.161 306.783 452.643 251.722L453 211" stroke="white" stroke-opacity="0.11" stroke-dasharray="4 4"/>
<rect x="81.5" y="84.5" width="52" height="52" rx="26" fill="#F5B300"/>
<path d="M99.5947 98.3454C100.421 98.5707 101.247 98.721 102.074 98.9463C102.9 99.1717 103.726 99.3219 104.552 99.5472C104.778 99.6224 104.853 99.5472 104.928 99.3219C105.228 98.0449 105.529 96.843 105.829 95.566C105.905 95.3407 105.98 95.2656 106.205 95.3407C106.956 95.566 107.632 95.7163 108.383 95.8665C108.609 95.9416 108.609 96.0167 108.534 96.167C108.233 97.3688 107.933 98.6458 107.632 99.8477C107.632 99.9228 107.632 99.9979 107.557 100.148C108.158 100.298 108.834 100.449 109.435 100.599C109.51 100.599 109.585 100.449 109.66 100.374C109.886 99.397 110.111 98.4956 110.412 97.5191C110.487 97.2186 110.562 96.9181 110.637 96.6177C110.637 96.4674 110.712 96.3923 110.862 96.4674C111.613 96.6928 112.365 96.843 113.191 97.0684C113.266 97.0684 113.266 97.1435 113.341 97.1435C113.116 98.12 112.89 99.0214 112.665 99.9228C112.59 100.298 112.515 100.674 112.365 101.05C112.289 101.275 112.365 101.35 112.59 101.425C113.416 101.801 114.243 102.176 115.069 102.552C115.82 103.003 116.496 103.604 117.022 104.355C117.698 105.482 117.773 106.683 117.473 107.885C117.247 108.712 116.947 109.463 116.346 110.064C115.895 110.514 115.294 110.815 114.693 111.04C114.618 111.04 114.543 111.115 114.393 111.115C114.693 111.341 114.994 111.491 115.294 111.716C116.196 112.392 116.797 113.219 117.097 114.27C117.247 115.097 117.172 115.998 116.947 116.824C116.646 117.876 116.271 118.777 115.595 119.604C114.768 120.58 113.717 121.106 112.515 121.256C110.937 121.482 109.435 121.331 107.933 121.106C107.707 121.031 107.557 121.106 107.482 121.331C107.182 122.533 106.881 123.81 106.581 125.012C106.505 125.312 106.505 125.388 106.13 125.237C105.454 125.087 104.703 124.862 104.027 124.712C103.801 124.636 103.801 124.561 103.876 124.411C104.177 123.134 104.477 121.857 104.853 120.655C104.853 120.505 104.928 120.43 104.778 120.355C104.177 120.205 103.576 120.054 102.9 119.904C102.75 120.58 102.524 121.256 102.374 121.932C102.224 122.608 101.998 123.284 101.848 123.96C101.773 124.111 101.773 124.186 101.548 124.111C100.797 123.885 100.045 123.735 99.2942 123.585C99.0688 123.51 99.0688 123.435 99.144 123.284C99.4444 122.007 99.7449 120.73 100.12 119.528C100.12 119.453 100.196 119.378 100.196 119.228C98.4679 118.777 96.7402 118.327 94.9374 117.876C95.0876 117.575 95.1627 117.35 95.313 117.05C95.6134 116.374 95.9139 115.697 96.1393 115.097C96.2144 114.871 96.2895 114.871 96.5148 114.871C97.0407 115.021 97.6416 115.172 98.1674 115.247C98.7684 115.397 99.2191 115.097 99.2942 114.571C100.271 110.74 101.247 106.909 102.149 103.003C102.299 102.402 101.923 101.726 101.247 101.5C100.571 101.275 99.8951 101.125 99.2942 100.974C99.144 100.974 99.0688 100.899 99.144 100.749C99.3693 99.9228 99.5947 99.0214 99.82 98.1951C99.5195 98.4205 99.5195 98.4205 99.5947 98.3454ZM103.426 116.899C103.501 116.899 103.576 116.974 103.576 116.974C104.778 117.275 106.055 117.651 107.332 117.726C108.233 117.801 109.059 117.801 109.886 117.5C111.313 117.05 111.914 115.172 111.088 113.97C110.712 113.369 110.111 112.993 109.51 112.618C108.158 111.866 106.581 111.566 105.078 111.266C104.853 111.19 104.853 111.266 104.778 111.491C104.628 112.242 104.402 112.918 104.252 113.669C103.951 114.721 103.726 115.773 103.426 116.899ZM109.735 109.237C109.886 109.237 110.261 109.162 110.562 109.087C111.989 108.787 112.74 107.134 111.989 105.857C111.613 105.181 110.937 104.73 110.261 104.43C109.21 103.979 108.158 103.754 107.031 103.453C106.806 103.378 106.731 103.453 106.656 103.679C106.28 105.256 105.905 106.759 105.454 108.336C105.379 108.486 105.454 108.561 105.604 108.636C105.905 108.712 106.13 108.787 106.43 108.862C107.557 109.012 108.534 109.237 109.735 109.237Z" fill="white"/>
<rect x="81.5" y="84.5" width="52" height="52" rx="26" stroke="#151515" stroke-width="7"/>
<rect x="347.5" y="351.5" width="37" height="37" rx="18.5" fill="#F00500"/>
<path d="M374.07 370.66C374.056 370.738 373.84 370.968 373.623 371.138C372.987 371.626 371.848 372.081 370.691 372.299C370.032 372.424 369.373 372.444 369.175 372.342C369.046 372.274 369.027 372.221 369.074 372.048C369.171 371.686 369.485 371.288 369.973 370.916C370.222 370.728 371.232 370.084 371.701 369.813C372.475 369.368 373.102 369.104 373.526 369.04C373.66 369.02 373.822 369.015 373.871 369.04C373.956 369.073 374.047 369.33 374.083 369.639C374.103 369.803 374.093 370.529 374.07 370.66ZM363.21 372.26C363.183 372.319 363.044 372.381 362.888 372.405C362.73 372.43 362.252 372.415 361.98 372.381C361.002 372.245 359.965 371.931 359.21 371.544C358.786 371.327 358.481 371.109 358.255 370.873L358.125 370.732L358.112 370.549C358.088 370.229 358.094 369.727 358.131 369.547C358.155 369.398 358.203 369.254 358.274 369.122C358.31 369.073 358.31 369.073 358.477 369.073C358.68 369.073 358.849 369.106 359.126 369.198C359.694 369.383 360.537 369.828 361.565 370.476C362.413 371.007 362.732 371.269 362.975 371.626C363.141 371.849 363.251 372.163 363.21 372.26ZM369.738 378.992C369.738 379.006 369.682 379.239 369.613 379.514C369.569 379.683 369.527 379.852 369.489 380.023C369.437 380.027 369.392 380.033 369.34 380.027H369.194L368.99 380.53C368.88 380.806 368.778 381.062 368.765 381.101L368.737 381.169L368.64 381.003L368.544 380.839V379.5L368.507 379.51C368.427 379.529 367.87 379.607 367.626 379.631C366.618 379.736 365.601 379.713 364.598 379.563C364.497 379.544 364.395 379.531 364.293 379.524C364.289 379.529 364.293 379.838 364.302 380.22L364.315 380.907L364.239 381.032C364.196 381.101 364.155 381.158 364.155 381.163C364.142 381.177 364.095 381.101 363.989 380.878C363.875 380.645 363.789 380.398 363.731 380.142L363.699 380.003L363.556 380.012L363.413 380.027L363.376 379.848C363.355 379.739 363.339 379.629 363.325 379.519L363.312 379.365L363.193 379.254L363.04 379.118C363.016 379.098 363.007 379.065 363.007 379.035V378.977L363.584 378.983L364.16 378.987L364.178 379.049L364.196 379.113L364.395 379.123L365.169 379.147L365.746 379.161L365.893 378.92L366.045 378.678H366.239L366.235 378.175L366.229 377.671L365.976 377.556C365.16 377.179 364.681 376.749 364.501 376.226C364.464 376.119 364.464 376.08 364.455 375.598C364.451 375.118 364.451 375.075 364.482 374.968C364.514 374.849 364.574 374.742 364.657 374.655C364.74 374.569 364.844 374.507 364.957 374.476C365.036 374.451 365.243 374.451 366.331 374.451L367.612 374.456L367.755 374.528C367.893 374.588 368.012 374.687 368.1 374.814C368.211 374.968 368.244 375.089 368.244 375.384C368.244 375.805 368.216 376.168 368.175 376.313C368.114 376.512 368.024 376.699 367.907 376.869C367.677 377.179 367.258 377.488 366.874 377.628L366.764 377.671L366.769 378.18L366.773 378.688L366.875 378.698L366.976 378.707L367.115 378.924L367.247 379.143H367.866C368.207 379.143 368.507 379.147 368.534 379.151C368.581 379.162 368.59 379.156 368.635 379.074L368.691 378.987H369.221C369.619 378.967 369.738 378.977 369.738 378.992Z" fill="black"/>
<path d="M367.303 380.38C367.215 380.433 367.156 380.457 367.143 380.448C367.129 380.443 367.063 380.384 366.994 380.331L366.87 380.226L366.741 380.37C366.46 380.69 366.449 380.704 366.367 380.708C366.239 380.722 366.211 380.699 366.054 380.452C365.971 380.327 365.907 380.22 365.907 380.22C365.907 380.22 365.846 380.21 365.777 380.206L365.649 380.192L365.589 380.322L365.528 380.452L365.422 380.419C365.339 380.39 365.258 380.356 365.178 380.318L365.04 380.245V379.969L366.266 379.974L367.492 379.978L367.496 380.109C367.502 380.263 367.506 380.259 367.303 380.38Z" fill="black"/>
<path d="M378.827 374.481C378.823 374.46 378.823 374.425 378.819 374.374C377.531 374.246 376.233 374.386 374.997 374.787C373.762 375.188 372.615 375.842 371.621 376.71C371.621 376.71 370.678 372.163 366.253 372.163C361.826 372.163 360.186 376.71 360.186 376.71C357.707 373.909 354.388 374.112 353.188 374.296L353.184 374.388C353.147 375.088 353.165 375.422 353.277 375.862C353.621 377.241 354.687 378.76 356.356 380.249C359.089 382.687 362.795 384.446 365.602 384.65C368.529 384.859 372.849 383.064 375.725 380.442C376.176 380.022 376.6 379.577 376.997 379.103C377.282 378.756 377.707 378.155 377.675 378.155C377.665 378.155 377.675 378.145 377.693 378.135C377.707 378.126 377.72 378.112 377.712 378.102C377.707 378.096 377.716 378.082 377.73 378.078C377.744 378.073 377.753 378.064 377.749 378.053C377.744 378.044 377.749 378.034 377.768 378.03C377.781 378.024 377.786 378.01 377.781 378C377.775 377.991 377.781 377.981 377.79 377.981C377.799 377.981 377.809 377.967 377.809 377.957C377.809 377.948 377.818 377.932 377.827 377.932C377.836 377.932 377.846 377.923 377.846 377.913C377.861 377.873 377.881 377.836 377.905 377.802C377.974 377.69 378.25 377.173 378.288 377.087C378.551 376.462 378.717 375.906 378.795 375.35C378.823 375.084 378.845 374.596 378.827 374.479V374.481ZM367.303 380.38C367.215 380.433 367.156 380.456 367.143 380.448C367.129 380.442 367.063 380.384 366.994 380.331L366.87 380.225L366.741 380.37C366.46 380.69 366.449 380.704 366.367 380.708C366.239 380.722 366.211 380.698 366.054 380.452C365.971 380.327 365.907 380.22 365.907 380.22C365.907 380.22 365.846 380.21 365.777 380.206L365.649 380.192L365.589 380.321L365.528 380.452L365.422 380.419C365.339 380.39 365.258 380.356 365.178 380.317L365.04 380.245V379.968L366.266 379.974L367.492 379.978L367.496 380.109C367.502 380.263 367.506 380.259 367.303 380.38ZM369.609 379.509C369.565 379.678 369.523 379.847 369.483 380.017C369.433 380.021 369.387 380.027 369.336 380.021H369.189L368.99 380.53C368.88 380.805 368.778 381.061 368.765 381.1L368.737 381.168L368.64 381.003L368.544 380.839V379.5L368.506 379.509C368.427 379.529 367.87 379.607 367.626 379.63C366.618 379.736 365.601 379.713 364.598 379.562C364.497 379.544 364.395 379.531 364.293 379.523C364.289 379.529 364.293 379.837 364.302 380.22L364.315 380.907L364.238 381.032C364.196 381.1 364.155 381.157 364.155 381.163C364.142 381.177 364.095 381.1 363.989 380.878C363.875 380.644 363.788 380.397 363.731 380.142L363.699 380.003L363.556 380.013L363.413 380.027L363.376 379.847C363.355 379.738 363.339 379.629 363.325 379.519L363.312 379.365L363.193 379.253C363.143 379.207 363.092 379.161 363.04 379.117C363.016 379.098 363.007 379.064 363.007 379.035V378.977L363.584 378.982L364.16 378.986L364.177 379.049L364.196 379.113L364.395 379.123L365.169 379.146L365.746 379.16L365.893 378.92L366.045 378.678H366.239L366.235 378.174L366.229 377.671L365.976 377.555C365.16 377.179 364.681 376.749 364.501 376.226C364.464 376.119 364.464 376.08 364.455 375.597C364.451 375.118 364.451 375.075 364.482 374.967C364.513 374.849 364.574 374.741 364.657 374.655C364.74 374.568 364.844 374.507 364.957 374.475C365.036 374.45 365.243 374.45 366.331 374.45L367.612 374.456L367.755 374.528C367.893 374.588 368.012 374.686 368.1 374.813C368.211 374.967 368.244 375.088 368.244 375.383C368.244 375.805 368.216 376.168 368.175 376.312C368.114 376.511 368.024 376.699 367.907 376.868C367.677 377.179 367.258 377.487 366.873 377.628L366.763 377.671L366.769 378.18L366.773 378.687L366.875 378.697L366.976 378.707L367.115 378.924L367.247 379.142H367.866C368.207 379.142 368.506 379.146 368.534 379.15C368.581 379.162 368.59 379.156 368.635 379.074L368.691 378.986H369.221C369.632 378.986 369.751 378.992 369.751 379.006C369.738 379.002 369.677 379.238 369.608 379.509H369.609Z" fill="white"/>
<path d="M378.789 373.988C378.779 373.763 378.765 373.539 378.746 373.315C378.547 371.119 378.013 369.325 376.999 367.424C376.961 367.359 376.928 367.291 376.898 367.221C376.889 367.207 376.885 367.193 376.88 367.183C377.023 366.733 377.609 364.851 378.073 362.7C378.705 359.78 379.107 356.364 377.881 355.339C377.881 355.339 375.76 355.175 372.921 358.096C372.151 358.902 371.445 359.778 370.819 360.711L370.62 360.645C369.479 360.253 368.296 360.012 367.098 359.928C366.739 359.901 365.397 359.901 364.96 359.928C363.637 360.02 362.622 360.229 361.47 360.649C361.428 360.666 361.385 360.683 361.341 360.697C360.692 359.766 359.965 358.897 359.17 358.1C356.215 355.166 354.016 355.335 354.016 355.335C352.717 356.393 353.159 359.963 353.83 362.981C354.163 364.462 354.56 365.926 355.02 367.368C355.005 367.404 354.988 367.44 354.97 367.474C353.896 369.757 353.314 371.957 353.177 374.298C354.379 374.114 357.694 373.906 360.178 376.71C360.178 376.71 361.819 372.165 366.244 372.165C370.669 372.165 371.614 376.712 371.614 376.712C372.608 375.845 373.755 375.192 374.99 374.791C376.225 374.391 377.523 374.249 378.81 374.376L378.787 373.988H378.789ZM355.892 365.544C355.892 365.544 354.169 361.021 354.611 358.438C354.685 358.004 354.823 357.621 355.04 357.332C355.04 357.332 356.994 357.535 360.147 361.211C360.147 361.211 359.548 361.515 358.746 362.163C358.746 362.163 358.741 362.167 358.737 362.167C357.588 363.087 356.622 364.234 355.892 365.544ZM363.209 372.26C363.18 372.319 363.042 372.381 362.886 372.405C362.728 372.43 362.249 372.415 361.978 372.381C360.999 372.245 359.963 371.931 359.207 371.544C358.783 371.327 358.478 371.109 358.253 370.873L358.123 370.732L358.11 370.549C358.086 370.229 358.091 369.727 358.128 369.547C358.152 369.398 358.201 369.254 358.272 369.122C358.307 369.073 358.307 369.073 358.474 369.073C358.677 369.073 358.847 369.107 359.124 369.198C359.691 369.383 360.534 369.828 361.563 370.476C362.411 371.008 362.729 371.269 362.973 371.626C363.139 371.849 363.249 372.163 363.208 372.26H363.209ZM374.067 370.66C374.054 370.738 373.838 370.969 373.621 371.138C372.984 371.626 371.846 372.081 370.689 372.299C370.03 372.425 369.371 372.444 369.172 372.343C369.044 372.274 369.025 372.222 369.072 372.048C369.168 371.686 369.482 371.288 369.97 370.916C370.219 370.727 371.229 370.084 371.699 369.813C372.473 369.368 373.1 369.104 373.524 369.04C373.658 369.02 373.819 369.015 373.87 369.04C373.953 369.073 374.045 369.33 374.082 369.639C374.1 369.803 374.091 370.529 374.069 370.66H374.067ZM373.302 362.163L373.293 362.158C372.871 361.796 372.418 361.477 371.939 361.205C374.986 357.53 376.869 357.327 376.869 357.327C377.077 357.621 377.211 357.998 377.285 358.434C377.714 361.016 376.05 365.542 376.05 365.542C375.352 364.24 374.419 363.092 373.302 362.163Z" fill="#FFA409"/>
<path d="M377.293 358.434C376.933 358.386 375.232 358.377 373.305 362.163L373.296 362.158C372.874 361.796 372.42 361.477 371.941 361.205C374.988 357.53 376.872 357.327 376.872 357.327C377.084 357.621 377.219 357.998 377.292 358.434H377.293Z" fill="#FF9300"/>
<path d="M376.056 365.543C375.358 364.239 374.423 363.091 373.304 362.163C375.231 358.376 376.928 358.386 377.291 358.433C377.721 361.021 376.056 365.543 376.056 365.543ZM377.36 358.447L377.291 358.433L377.36 358.447Z" fill="#FF8300"/>
<path d="M360.15 361.205C360.15 361.205 359.551 361.511 358.749 362.158C358.749 362.158 358.743 362.163 358.739 362.163C356.743 358.371 354.986 358.386 354.609 358.434C354.682 357.998 354.821 357.617 355.037 357.327C355.043 357.327 356.996 357.53 360.15 361.206V361.205Z" fill="#FF9300"/>
<path d="M358.743 362.163C357.592 363.083 356.624 364.231 355.895 365.542C355.895 365.542 354.172 361.021 354.613 358.433C354.987 358.386 356.747 358.376 358.743 362.163Z" fill="#FF8300"/>
<path d="M354.613 358.433L354.54 358.446L354.611 358.433H354.613Z" fill="#FF8300"/>
<path d="M371.392 368.053C371.392 368.053 369.917 368.149 370.101 366.941C370.287 365.731 371.438 365.586 371.76 365.634C372.084 365.682 373.374 366.166 373.144 367.183C372.914 368.198 372.59 368.003 372.406 368.053C372.222 368.101 371.392 368.053 371.392 368.053ZM360.513 368.053C360.513 368.053 359.039 368.149 359.223 366.941C359.408 365.731 360.559 365.586 360.882 365.634C361.204 365.682 362.495 366.166 362.265 367.183C362.034 368.198 361.712 368.003 361.528 368.053C361.342 368.101 360.514 368.053 360.514 368.053H360.513Z" fill="white"/>
<rect x="347.5" y="351.5" width="37" height="37" rx="18.5" stroke="#151515" stroke-width="7"/>
<rect x="404.5" y="51.5" width="33" height="33" rx="16.5" fill="#50AF95"/>
<path d="M421.074 59.3438C423.394 59.3438 425.622 59.3438 427.942 59.3438C428.128 59.3438 428.22 59.4378 428.22 59.5318C429.52 62.446 430.819 65.2662 432.212 68.0864C432.304 68.1804 432.212 68.2744 432.119 68.3684C430.541 69.9666 428.963 71.5647 427.292 73.1628C425.25 75.1369 423.116 77.2051 421.074 79.1792C420.888 79.2733 420.888 79.2733 420.795 79.1792C418.753 77.2051 416.711 75.231 414.669 73.1628C413.091 71.5647 411.421 69.9666 409.843 68.3684C409.75 68.2744 409.75 68.1804 409.75 68.0864C410.4 66.5823 411.142 65.1722 411.792 63.6681C412.442 62.258 413.091 60.9419 413.741 59.5318C413.834 59.3438 413.927 59.2498 414.205 59.2498C416.526 59.3438 418.753 59.2498 421.074 59.3438ZM421.166 61.882C419.496 61.882 417.732 61.882 416.062 61.882C415.969 61.882 415.969 61.882 415.876 61.882C415.783 61.882 415.783 61.882 415.783 61.976C415.783 62.822 415.783 63.6681 415.69 64.6082C415.69 64.7022 415.69 64.7022 415.783 64.7022C416.062 64.7022 416.34 64.7022 416.618 64.7022C417.547 64.7022 418.475 64.7022 419.403 64.7022C419.496 64.7022 419.496 64.7022 419.589 64.7022C419.681 64.7022 419.681 64.7962 419.681 64.8902C419.681 65.2662 419.681 65.7362 419.681 66.1123C419.681 66.2063 419.681 66.2063 419.589 66.3003C418.939 66.3943 418.289 66.3943 417.639 66.4883C416.804 66.5823 415.969 66.7703 415.226 67.0523C414.855 67.1463 414.576 67.3344 414.298 67.5224C414.02 67.8044 414.02 68.1804 414.298 68.3684C414.484 68.5565 414.669 68.6505 414.855 68.7445C415.505 69.0265 416.154 69.1205 416.804 69.3085C417.732 69.4965 418.66 69.5905 419.589 69.6845C419.774 69.6845 419.774 69.6845 419.774 69.8726C419.774 71.5647 419.774 73.3508 419.774 75.0429C419.774 75.231 419.774 75.231 419.96 75.231C420.795 75.231 421.723 75.231 422.559 75.231C422.837 75.231 422.837 75.231 422.837 74.9489C422.837 73.5388 422.837 72.2227 422.837 70.8126C422.837 70.4366 422.837 70.0606 422.837 69.6845C422.837 69.4965 422.93 69.4965 423.023 69.4965C423.951 69.4965 424.786 69.4025 425.714 69.2145C426.457 69.1205 427.107 68.9325 427.756 68.6505C427.942 68.5565 428.128 68.3684 428.313 68.2744C428.499 68.0864 428.499 67.8984 428.313 67.7104C428.128 67.6164 428.035 67.4284 427.849 67.3344C426.735 66.6763 425.436 66.3943 424.137 66.3003C423.765 66.3003 423.394 66.3003 423.023 66.2063C422.93 66.2063 422.93 66.2063 422.93 66.0183C422.93 65.6422 422.93 65.1722 422.93 64.7962C422.93 64.7022 422.93 64.6082 423.116 64.6082C423.394 64.6082 423.672 64.6082 423.951 64.6082C424.879 64.6082 425.714 64.6082 426.643 64.6082C426.828 64.6082 426.828 64.5142 426.828 64.4201C426.828 64.3261 426.828 64.3261 426.828 64.2321C426.828 63.4801 426.828 62.728 426.828 61.882C426.828 61.6939 426.828 61.6939 426.643 61.6939C424.601 61.882 422.837 61.882 421.166 61.882Z" fill="white"/>
<path d="M420.702 69.0264C420.052 69.0264 419.495 69.0264 418.846 68.9324C417.825 68.8384 416.711 68.7444 415.69 68.3684C415.504 68.2744 415.319 68.1804 415.04 68.0864C414.762 67.8983 414.762 67.7103 415.04 67.6163C415.411 67.4283 415.783 67.3343 416.154 67.2403C416.896 67.0523 417.639 66.9583 418.474 66.8643C418.753 66.8643 419.124 66.7703 419.403 66.7703C419.495 66.7703 419.588 66.7703 419.588 66.9583C419.588 67.5223 419.588 67.9924 419.588 68.5564C419.588 68.7444 419.681 68.7444 419.774 68.7444C420.516 68.7444 421.259 68.7444 421.909 68.7444C422.094 68.7444 422.28 68.7444 422.465 68.7444C422.651 68.7444 422.651 68.7444 422.651 68.5564C422.651 68.0864 422.651 67.6163 422.651 67.1463C422.651 66.8643 422.651 66.8643 422.93 66.8643C424.136 66.9583 425.343 67.0523 426.549 67.4283C426.735 67.5223 427.013 67.6163 427.199 67.7103C427.385 67.8043 427.385 67.9924 427.199 68.0864C426.828 68.3684 426.457 68.4624 425.993 68.5564C425.064 68.7444 424.136 68.9324 423.208 68.9324C422.465 68.9324 421.537 69.0264 420.702 69.0264Z" fill="white"/>
<rect x="404.5" y="51.5" width="33" height="33" rx="16.5" stroke="#151515" stroke-width="3"/>
<rect x="431.5" y="200.5" width="40" height="40" rx="20" fill="#EF0027"/>
<path d="M457.733 214.145L441.948 211.24L450.255 232.143L461.83 218.041L457.733 214.145ZM457.479 215.424L459.894 217.72L453.29 218.916L457.479 215.424V215.424ZM451.855 218.676L444.894 212.903L456.272 214.997L451.855 218.676V218.676ZM451.36 219.698L450.224 229.082L444.105 213.679L451.36 219.696V219.698ZM452.41 220.195L459.724 218.872L451.334 229.091L452.41 220.195Z" fill="white"/>
<rect x="431.5" y="200.5" width="40" height="40" rx="20" stroke="#151515" stroke-width="5"/>
<defs>
<linearGradient id="paint0_linear_306_353" x1="179" y1="0" x2="409.59" y2="127.212" gradientUnits="userSpaceOnUse">
<stop stop-color="#8C8C8C"/>
<stop stop-color="#8C8C8C"/>
<stop offset="0.0001" stop-color="#464644" stop-opacity="0.3"/>
<stop offset="1" stop-color="#2B2B2C" stop-opacity="0"/>
</linearGradient>
<linearGradient id="paint1_linear_306_353" x1="209" y1="33" x2="291" y2="33" gradientUnits="userSpaceOnUse">
<stop stop-color="#FC466B"/>
<stop offset="1" stop-color="#3F5EFB"/>
</linearGradient>
<linearGradient id="paint2_linear_306_353" x1="179" y1="330" x2="409.59" y2="457.212" gradientUnits="userSpaceOnUse">
<stop stop-color="#8C8C8C"/>
<stop stop-color="#8C8C8C"/>
<stop offset="0.0001" stop-color="#464644" stop-opacity="0.3"/>
<stop offset="1" stop-color="#2B2B2C" stop-opacity="0"/>
</linearGradient>
<linearGradient id="paint3_linear_306_353" x1="236" y1="364" x2="285" y2="364" gradientUnits="userSpaceOnUse">
<stop stop-color="#FC466B"/>
<stop offset="1" stop-color="#3F5EFB"/>
</linearGradient>
<linearGradient id="paint4_linear_306_353" x1="358" y1="125" x2="588.59" y2="252.212" gradientUnits="userSpaceOnUse">
<stop stop-color="#8C8C8C"/>
<stop stop-color="#8C8C8C"/>
<stop offset="0.0001" stop-color="#464644" stop-opacity="0.3"/>
<stop offset="1" stop-color="#2B2B2C" stop-opacity="0"/>
</linearGradient>
<linearGradient id="paint5_linear_306_353" x1="377" y1="159" x2="496" y2="159" gradientUnits="userSpaceOnUse">
<stop stop-color="#FC466B"/>
<stop offset="1" stop-color="#3F5EFB"/>
</linearGradient>
<linearGradient id="paint6_linear_306_353" x1="0" y1="203" x2="230.59" y2="330.212" gradientUnits="userSpaceOnUse">
<stop stop-color="#8C8C8C"/>
<stop stop-color="#8C8C8C"/>
<stop offset="0.0001" stop-color="#464644" stop-opacity="0.3"/>
<stop offset="1" stop-color="#2B2B2C" stop-opacity="0"/>
</linearGradient>
<linearGradient id="paint7_linear_306_353" x1="31" y1="237" x2="128" y2="237" gradientUnits="userSpaceOnUse">
<stop stop-color="#FC466B"/>
<stop offset="1" stop-color="#3F5EFB"/>
</linearGradient>
</defs>
</svg>
