<svg width="20" height="20" viewBox="0 0 20 20" fill="none" xmlns="http://www.w3.org/2000/svg">
<path opacity="0.4" d="M18.3337 6.475V7.5H1.66699V6.28333C1.66699 4.37499 3.21699 2.83333 5.12532 2.83333H13.3337V4.97499C13.3337 6.03333 13.967 6.66666 15.0253 6.66666H17.4753C17.8087 6.66666 18.092 6.60833 18.3337 6.475Z" fill="#3F5EFB"/>
<path d="M1.66699 7.5V13.7167C1.66699 15.625 3.21699 17.1667 5.12532 17.1667H14.8753C16.7837 17.1667 18.3337 15.625 18.3337 13.7167V7.5H1.66699ZM6.66699 14.375H5.00032C4.65866 14.375 4.37532 14.0917 4.37532 13.75C4.37532 13.4083 4.65866 13.125 5.00032 13.125H6.66699C7.00866 13.125 7.29199 13.4083 7.29199 13.75C7.29199 14.0917 7.00866 14.375 6.66699 14.375ZM12.0837 14.375H8.75032C8.40866 14.375 8.12532 14.0917 8.12532 13.75C8.12532 13.4083 8.40866 13.125 8.75032 13.125H12.0837C12.4253 13.125 12.7087 13.4083 12.7087 13.75C12.7087 14.0917 12.4253 14.375 12.0837 14.375Z" fill="#3F5EFB"/>
<path d="M17.4747 0.833328H15.0247C13.9663 0.833328 13.333 1.46666 13.333 2.525V4.975C13.333 6.03333 13.9663 6.66666 15.0247 6.66666H17.4747C18.533 6.66666 19.1663 6.03333 19.1663 4.975V2.525C19.1663 1.46666 18.533 0.833328 17.4747 0.833328ZM18.258 4.10833C18.1747 4.19166 18.0497 4.25 17.9163 4.25833H16.7413L16.7497 5.41666C16.7413 5.55833 16.6913 5.675 16.5913 5.775C16.508 5.85833 16.383 5.91666 16.2497 5.91666C15.9747 5.91666 15.7497 5.69166 15.7497 5.41666V4.25L14.583 4.25833C14.308 4.25833 14.083 4.025 14.083 3.75C14.083 3.475 14.308 3.25 14.583 3.25L15.7497 3.25833V2.09166C15.7497 1.81666 15.9747 1.58333 16.2497 1.58333C16.5247 1.58333 16.7497 1.81666 16.7497 2.09166L16.7413 3.25H17.9163C18.1913 3.25 18.4163 3.475 18.4163 3.75C18.408 3.89166 18.3497 4.00833 18.258 4.10833Z" fill="#3F5EFB"/>
</svg>
