<svg width="34" height="34" viewBox="0 0 34 34" fill="none" xmlns="http://www.w3.org/2000/svg">
<path d="M30.1042 31.1667H3.89583C3.315 31.1667 2.83333 30.685 2.83333 30.1042C2.83333 29.5233 3.315 29.0417 3.89583 29.0417H30.1042C30.685 29.0417 31.1667 29.5233 31.1667 30.1042C31.1667 30.685 30.685 31.1667 30.1042 31.1667Z" fill="#505BEE"/>
<path opacity="0.4" d="M29.1692 19.4083L18.9267 29.6508C16.915 31.6625 13.6708 31.6625 11.6733 29.665L5.1425 23.1342L22.6525 5.62418L29.1833 12.155C31.1808 14.1525 31.1808 17.3967 29.1692 19.4083Z" fill="#505BEE"/>
<path d="M22.6525 5.62418L5.12833 23.1342L3.83917 21.845C1.84167 19.8475 1.84167 16.6033 3.85333 14.5917L14.0958 4.34918C16.1075 2.33751 19.3517 2.33751 21.3492 4.33501L22.6525 5.62418Z" fill="#505BEE"/>
<path d="M18.2608 24.9334L16.3483 26.8459C15.9517 27.2425 15.3142 27.2425 14.9175 26.8459C14.5208 26.4492 14.5208 25.8117 14.9175 25.415L16.83 23.5025C17.2267 23.1059 17.8642 23.1059 18.2608 23.5025C18.6575 23.8992 18.6575 24.5367 18.2608 24.9334Z" fill="#505BEE"/>
<path d="M24.4658 18.7283L20.655 22.5392C20.2583 22.9358 19.6208 22.9358 19.2242 22.5392C18.8275 22.1425 18.8275 21.505 19.2242 21.1083L23.035 17.2975C23.4317 16.9008 24.0692 16.9008 24.4658 17.2975C24.8483 17.6942 24.8483 18.3317 24.4658 18.7283Z" fill="#505BEE"/>
</svg>
