<svg width="34" height="34" viewBox="0 0 34 34" fill="none" xmlns="http://www.w3.org/2000/svg">
<path d="M31.1667 31.1667H2.83334C2.25251 31.1667 1.77084 30.685 1.77084 30.1042C1.77084 29.5233 2.25251 29.0417 2.83334 29.0417H31.1667C31.7475 29.0417 32.2292 29.5233 32.2292 30.1042C32.2292 30.685 31.7475 31.1667 31.1667 31.1667Z" fill="#8B54C1"/>
<path d="M13.8125 5.66668V31.1667H20.1875V5.66668C20.1875 4.10834 19.55 2.83334 17.6375 2.83334H16.3625C14.45 2.83334 13.8125 4.10834 13.8125 5.66668Z" fill="#8B54C1"/>
<path opacity="0.4" d="M4.25 14.1667V31.1667H9.91667V14.1667C9.91667 12.6083 9.35 11.3333 7.65 11.3333H6.51667C4.81667 11.3333 4.25 12.6083 4.25 14.1667Z" fill="#8B54C1"/>
<path opacity="0.4" d="M24.0833 21.25V31.1667H29.75V21.25C29.75 19.6917 29.1833 18.4167 27.4833 18.4167H26.35C24.65 18.4167 24.0833 19.6917 24.0833 21.25Z" fill="#8B54C1"/>
</svg>
