<svg width="18" height="19" viewBox="0 0 18 19" fill="none" xmlns="http://www.w3.org/2000/svg">
<path d="M9.00016 18.5999C13.9706 18.5999 18 14.5706 18 9.60007C18 4.62959 13.9706 0.60022 9.00016 0.60022C4.02968 0.60022 0.000305176 4.62959 0.000305176 9.60007C0.000305176 14.5706 4.02968 18.5999 9.00016 18.5999Z" fill="#BA9F33"/>
<path fill-rule="evenodd" clip-rule="evenodd" d="M3.6549 8.5858C3.6011 8.53667 3.54426 8.48743 3.49199 8.4383C3.43971 8.38916 3.38602 8.33992 3.33222 8.29079L3.17236 8.13882C3.14622 8.11269 3.11856 8.08969 3.09242 8.06345C3.06629 8.04045 3.03559 8.01431 3.00945 7.99122C2.79731 7.78991 2.58395 7.58861 2.37474 7.38721C2.59145 7.58547 2.80359 7.78231 3.02029 7.98352L3.09556 8.05889C3.1217 8.08493 3.14936 8.10803 3.1755 8.13416L3.33526 8.28167C3.38906 8.33081 3.44133 8.38004 3.49513 8.43364C3.54892 8.48723 3.6012 8.53657 3.655 8.5856L3.6549 8.5858ZM0.839396 8.55541C0.839396 8.55541 1.61087 8.63524 1.98744 8.68904C2.33625 8.73827 3.42745 8.90574 3.42745 8.90574L0.839396 8.55541ZM0.839396 8.55541C1.0561 8.57385 1.2728 8.59685 1.4895 8.61994C1.60013 8.63068 1.7062 8.64294 1.81227 8.65368L1.97508 8.67222C2.02887 8.67982 2.08115 8.68752 2.13494 8.69522L2.78049 8.79815L3.10316 8.85194C3.20923 8.87038 3.3153 8.89044 3.42593 8.90888C3.31986 8.89814 3.20923 8.88274 3.10316 8.86734L2.78049 8.82125L2.13494 8.72602C2.08115 8.71832 2.02887 8.70748 1.97508 8.69988L1.81217 8.68113C1.7061 8.6704 1.59547 8.655 1.4894 8.64264C1.2727 8.6166 1.056 8.58884 0.839294 8.55511L0.839396 8.55541ZM3.35066 9.10674C3.35066 9.10674 2.52691 9.31584 2.24872 9.39577C1.97518 9.47105 1.14677 9.72311 1.14677 9.72311L3.35056 9.10684L3.35066 9.10674Z" fill="#CFB66C"/>
<path fill-rule="evenodd" clip-rule="evenodd" d="M3.35087 9.10669C3.16801 9.16049 2.98616 9.21277 2.80066 9.262L2.25044 9.40952C2.06758 9.46332 1.88573 9.51559 1.70337 9.56939L1.42983 9.64467C1.33916 9.67081 1.24697 9.69381 1.15326 9.72005C1.24383 9.68965 1.33612 9.65855 1.4268 9.63241L1.70033 9.54487C1.8832 9.48793 2.06505 9.43414 2.2474 9.3773C2.43331 9.3312 2.61627 9.28196 2.80218 9.23738C2.97886 9.19281 3.16487 9.14833 3.35087 9.10679V9.10669ZM1.26237 10.2303C1.35294 10.1964 2.39805 9.70931 2.64089 9.59553C2.76246 9.53859 3.11583 9.41316 3.11583 9.41316L1.26237 10.2303Z" fill="#CFB66C"/>
<path fill-rule="evenodd" clip-rule="evenodd" d="M1.26234 10.2302C1.34217 10.1998 1.41755 10.1627 1.49434 10.1273L1.72178 10.0212L2.17828 9.80148C2.33024 9.72925 2.47795 9.64952 2.63468 9.58164C2.71461 9.5479 2.79455 9.52025 2.87438 9.49411L2.99595 9.45571C3.03739 9.44497 3.07588 9.43261 3.11752 9.42188C2.96556 9.49411 2.80559 9.5556 2.65342 9.62622C2.50146 9.70159 2.34605 9.76309 2.18922 9.83066L1.72512 10.035C1.56931 10.0981 1.41734 10.1657 1.26224 10.2302H1.26234ZM1.36365 10.6557C1.36365 10.6557 2.31029 10.101 2.6361 9.92265C2.8067 9.82742 3.35844 9.55378 3.35844 9.55378L1.36365 10.6557Z" fill="#CFB66C"/>
<path fill-rule="evenodd" clip-rule="evenodd" d="M1.36359 10.6559C1.52335 10.5575 1.68626 10.4576 1.84916 10.3562L2.0923 10.2086C2.17528 10.1595 2.25521 10.1134 2.3398 10.0642C2.42277 10.015 2.50271 9.96587 2.5872 9.91977C2.62742 9.89494 2.66956 9.87336 2.71323 9.85524L2.8423 9.7907C3.0129 9.70773 3.1835 9.62314 3.36333 9.5509C3.20042 9.65394 3.03286 9.74157 2.86539 9.83214C2.78242 9.87823 2.69783 9.91977 2.61486 9.96587C2.53188 10.012 2.45195 10.0612 2.36736 10.1058C2.28439 10.1549 2.20445 10.201 2.11996 10.2456L1.86942 10.3824L1.36379 10.6559H1.36359ZM3.35066 9.67531C3.35066 9.67531 2.76206 10.1272 2.5715 10.2716C2.38093 10.4161 1.81998 10.8218 1.81998 10.8218L3.35066 9.67531Z" fill="#CFB66C"/>
<path fill-rule="evenodd" clip-rule="evenodd" d="M6.72878 13.3192L6.42758 12.7491L6.60275 12.036L7.85221 11.5534L7.32043 10.4623L7.58323 9.36036L8.07661 8.3736L9.60123 8.13391L10.7215 7.0658L13.1406 7.24866L13.6155 9.8352L12.701 13.0918L12.1801 14.7778L10.0684 14.8577L9.08789 14.1785L7.93984 13.6988L6.72878 13.3192Z" fill="#E2CC85"/>
<path fill-rule="evenodd" clip-rule="evenodd" d="M10.4325 13.3008C10.4325 13.3008 10.1405 13.4345 9.64231 13.4037C9.49815 13.2101 8.48851 13.1194 8.48851 13.1194C8.48851 13.1194 8.36248 13.081 8.1396 13.1732C7.9153 13.2644 7.70316 13.2532 7.5049 13.3023C7.30663 13.3514 7.10979 13.0933 6.95783 13.0395C6.80586 12.9827 6.60436 12.8459 6.60436 12.8459L6.17886 12.8044L5.32442 12.4432L3.96698 11.0908L3.59811 11.6683L3.48434 12.3829L3.89475 13.2298L4.99973 14.2364L7.15437 14.7835L8.43147 14.4072L10.0313 13.731L10.4325 13.3007V13.3008Z" fill="#F1D789"/>
<path fill-rule="evenodd" clip-rule="evenodd" d="M2.77756 8.52129L3.0511 7.69298L3.37702 7.15807L4.4266 7.07043L4.11152 7.98952L3.23407 9.551L3.59828 10.9449L2.95283 11.2676L2.75446 10.9634L2.59469 10.2656L2.58395 9.48181L2.77756 8.52129Z" fill="#F4ECB4"/>
<path fill-rule="evenodd" clip-rule="evenodd" d="M3.95479 13.2439L3.75349 12.9627C3.75349 12.9627 3.69969 12.829 3.73049 12.7122C3.76088 12.5938 3.75653 12.5861 3.74123 12.5416C3.72593 12.497 3.59676 12.3433 3.60446 12.2111C3.61206 12.0774 3.59372 12.0328 3.69199 11.9268C3.79492 11.8239 3.76423 11.6456 3.76423 11.6456L3.89796 11.7286L3.92835 11.6825C3.92835 11.6825 3.97748 11.7209 3.97748 11.7808C3.98822 11.6979 3.94365 11.3136 4.04506 11.2261C4.14647 11.1385 4.32629 11.6364 4.32629 11.6364L4.21566 10.914L3.93129 10.1733L3.42565 9.49711L3.39526 8.75167V8.68713C3.39526 8.68713 3.16316 9.04374 3.09862 9.32539C3.05253 9.51899 3.16316 9.75413 3.14016 10.0323C3.12162 10.309 3.09862 10.2874 3.1662 10.397C3.23377 10.5067 3.3983 10.7321 3.33376 10.895C3.27693 11.0349 3.08322 10.9365 3.08322 10.9365C3.08322 10.9365 3.04483 11.0502 2.99255 11.0917C2.97411 11.0241 2.95415 10.9811 2.91728 10.9398C2.91414 10.9659 2.90654 11.0013 2.90654 11.0013C2.90654 11.0013 2.8727 10.8952 2.83886 10.7615C2.79287 10.5832 2.74363 10.3481 2.69906 10.2221C2.68062 10.2943 2.63452 10.5141 2.63452 10.5141L2.66066 10.8522L2.78669 11.3163L2.90826 11.6203L3.02659 11.9922L3.12942 12.242L3.21239 12.4326L3.28463 12.8614L3.63344 13.2302L3.81944 13.3132L3.95459 13.244L3.95479 13.2439Z" fill="#F3E19D"/>
<path fill-rule="evenodd" clip-rule="evenodd" d="M2.96017 7.84501C2.96017 7.84501 2.70962 8.27051 2.63749 8.69946C2.56536 9.1284 2.50072 9.58166 2.54631 10.1656C2.59241 10.7543 2.68004 11.1154 2.75076 11.3736C2.87233 11.8025 3.1872 12.3988 3.1872 12.3988L3.19794 12.3757C3.14502 12.2754 3.10277 12.1698 3.07191 12.0606C3.03037 11.8977 3.01498 11.7041 2.97658 11.6165C2.94274 11.5289 2.88591 11.4536 2.85825 11.346C2.83211 11.243 2.82785 11.0801 2.74762 10.9588C2.71378 10.9095 2.67224 10.7805 2.65998 10.6514C2.64458 10.4577 2.66768 10.241 2.64924 10.0628C2.61541 9.76615 2.59241 9.56484 2.62311 9.40954C2.6538 9.25423 2.81377 8.81333 2.91214 8.4629C2.97668 8.2385 2.93818 8.04945 3.05651 7.85423C3.17484 7.66063 3.24718 7.49002 3.27322 7.37169C3.30361 7.2641 2.95976 7.84501 2.95976 7.84501H2.96017Z" fill="#F2E8B0"/>
<path fill-rule="evenodd" clip-rule="evenodd" d="M4.14842 7.67432C4.14842 7.67432 4.01935 7.71281 3.95785 7.78039C3.89635 7.84492 3.87022 7.89871 3.78724 8.00782C3.70427 8.11693 3.69961 8.20608 3.63193 8.34285C3.56436 8.47657 3.41523 8.67787 3.39679 8.75011C3.37835 8.82234 3.34765 9.1604 3.30925 9.32027C3.27542 9.48013 3.34765 9.67687 3.34765 9.67687L3.43518 9.65833C3.43518 9.65833 3.43518 9.7721 3.52282 9.849C3.61035 9.92427 3.62575 9.5938 3.62575 9.5938L3.95309 8.48883L4.44637 8.15381L4.50017 7.88331L4.14821 7.67432H4.14842Z" fill="#F5EEC0"/>
<path fill-rule="evenodd" clip-rule="evenodd" d="M4.38798 8.1755C4.38798 8.1755 4.15588 8.1908 4.04222 8.27387C3.99612 8.30761 3.97768 8.33527 3.92855 8.37681C3.83788 8.45208 3.74559 8.52127 3.70111 8.61995C3.65188 8.71822 3.59808 8.86735 3.56121 9.14858C3.54581 9.26691 3.54581 9.37602 3.53507 9.47135C3.51967 9.60042 3.49667 9.70335 3.50893 9.77528C3.52433 9.92279 3.67649 9.99968 3.69128 10.1671L4.00635 10.0074L4.30298 8.83776L4.93312 8.44266L4.57651 8.04309L4.38757 8.17479L4.38798 8.1755Z" fill="#E6DB9D"/>
<path fill-rule="evenodd" clip-rule="evenodd" d="M2.72596 16.0514C2.72728 16.0399 2.7286 16.0283 2.72991 16.0165C2.77591 15.6214 2.78371 15.3219 2.81745 15.1344C2.86658 14.8685 2.90042 14.7696 2.89272 14.6702C2.88198 14.5104 2.86972 14.3936 2.88512 14.2706C2.90812 14.1077 3.06799 13.9141 3.06343 13.7804C3.06029 13.6743 3.00649 13.6052 2.96039 13.5407C2.9143 13.4761 2.87742 13.4223 2.87742 13.4223C2.87742 13.4223 3.1925 13.2056 3.18946 12.3326C3.19589 12.3345 3.20208 12.337 3.2079 12.3403L3.3631 12.7813L3.46918 12.9104L3.87644 13.6696L4.40052 14.1784L5.17504 14.6993L5.66073 15.2279L5.70986 16.6372L5.07515 17.4609L4.97121 17.6492C4.14539 17.2346 3.38813 16.6957 2.72586 16.0513L2.72596 16.0514Z" fill="#E5CB7A"/>
<path fill-rule="evenodd" clip-rule="evenodd" d="M4.66486 17.3996C4.66486 17.3996 4.67559 17.2244 4.82006 17.1107C4.84316 17.1491 4.85846 17.186 4.8539 17.2136C4.88004 17.1676 5.0629 16.8725 5.47635 16.7956C5.88979 16.7203 5.98968 16.4191 5.98968 16.4191L6.86712 15.6215L7.87069 14.6979L9.09097 14.269L9.66124 14.1291C9.66124 14.1291 9.67198 14.1707 9.6505 14.2628C9.75647 14.2552 9.99161 14.2014 10.236 14.1153C10.3343 14.0769 10.4266 14.0615 10.4758 14.1123C10.548 14.1799 10.5587 14.3397 10.5633 14.435C10.6816 14.4088 10.8184 14.2952 10.928 14.3059C11.1033 14.3243 11.2585 14.5303 11.4368 14.5303C11.6719 14.5303 11.7779 14.3858 11.9424 14.2721C12.0408 14.2045 12.1821 14.1201 12.2621 14.0631C12.4526 13.9232 14.469 13.3069 14.469 13.3069L15.1759 13.353L15.2897 14.1122L15.2289 16.0969C15.2214 16.104 15.2139 16.1115 15.2063 16.1187L11.992 17.7975L7.53637 18.4806C6.5383 18.3175 5.57515 17.9862 4.68795 17.5008L4.66516 17.3995L4.66486 17.3996Z" fill="#D8C173"/>
<path fill-rule="evenodd" clip-rule="evenodd" d="M2.99625 16.3039C3.05956 16.1715 3.1165 16.0607 3.12653 16.0211C3.13443 16.101 3.14892 16.2761 3.1781 16.4623C3.11684 16.4102 3.05622 16.3574 2.99625 16.3038V16.3039Z" fill="#F1D789"/>
<path fill-rule="evenodd" clip-rule="evenodd" d="M6.25068 18.1716L6.82693 18.0113L6.87607 18.0267C6.87607 18.0267 6.90221 18.0421 6.90221 18.0943C6.97444 18.0528 7.03594 18.0604 7.08051 18.0329C7.10351 18.082 7.12651 18.2449 7.22802 18.2649C7.33399 18.288 7.44776 18.2188 7.56305 18.1313C7.67672 18.0406 7.8062 17.9268 7.90417 17.8807C7.94011 17.9468 7.97195 18.015 7.9995 18.0851C8.12857 17.9821 8.35297 17.5641 8.6726 17.5717C8.76499 17.3534 8.91933 17.1669 9.11655 17.0354C9.41318 16.8341 9.59909 16.8187 9.83119 16.8371C9.92338 16.7174 10.037 16.6158 10.1662 16.5374C10.2046 16.5528 10.3107 16.6174 10.4429 16.5559C10.5766 16.4945 10.7272 16.2562 10.9254 16.2255C11.0323 16.2108 11.1409 16.2336 11.2328 16.29C11.2328 16.29 11.8103 15.7167 12.2087 15.5262C12.1933 15.4801 12.1626 15.3064 12.6298 14.9221C12.6559 14.9452 12.6375 15.0098 12.6559 15.0133C12.6635 15.0133 12.7775 14.9642 12.9218 14.8535C13.1001 14.7198 13.3136 14.5799 13.4427 14.5415C13.6858 14.4693 13.9438 14.6168 13.9438 14.6168C13.9657 14.6014 13.9902 14.59 14.016 14.583C14.0774 14.5722 14.122 14.5645 14.1558 14.5526C14.1528 14.6325 14.1974 14.7693 14.1558 14.8876C14.2039 14.9147 14.2549 14.9363 14.3078 14.9521C14.2818 15.009 14.2248 15.1534 14.1296 15.2226C14.2094 15.261 14.2202 15.3056 14.3339 15.3442C14.2878 15.4087 14.2124 15.5195 14.1787 15.5873C14.1449 15.6596 14.0234 15.9593 13.9696 16.0729C13.9128 16.1867 13.836 16.3957 13.799 16.4376C13.762 16.4796 13.6284 16.6574 13.5255 16.7449C13.6167 16.7111 13.9897 16.5974 14.1479 16.5544C14.1008 16.6234 13.862 16.9777 13.6325 17.3184C12.5333 17.9773 11.3063 18.3942 10.0333 18.5416C8.76036 18.689 7.47059 18.5633 6.24997 18.1731L6.25068 18.1716Z" fill="#E0CD81"/>
<path fill-rule="evenodd" clip-rule="evenodd" d="M4.42588 8.13387C4.42588 8.13387 4.29225 8.13387 4.26611 8.1523C4.23997 8.17074 4.39984 8.20924 4.44898 8.22768C4.49812 8.24612 4.60419 8.33061 4.63185 8.39828C4.65799 8.46282 5.59239 8.83929 5.59239 8.83929L6.25325 8.80545L6.48111 8.49068L6.04769 8.11107L6.35163 7.21509L5.94901 7.27962L4.98077 7.85709L4.49508 8.04309L4.42588 8.13387Z" fill="#DFC57C"/>
<path fill-rule="evenodd" clip-rule="evenodd" d="M5.87727 8.43051C5.88682 8.44598 5.90028 8.45866 5.91628 8.46729C5.93229 8.47591 5.95028 8.48017 5.96845 8.47965C6.10522 8.47965 6.23115 8.51349 6.28342 8.58258C6.37105 8.69331 6.61389 9.04678 6.61389 9.04678L7.1948 9.25578L7.23229 8.57174L6.59758 8.13074L5.87524 8.39657V8.43041H5.87687L5.87727 8.43051Z" fill="#E5CC7C"/>
<path fill-rule="evenodd" clip-rule="evenodd" d="M5.7633 8.68406C5.7633 8.68406 5.86927 8.69176 6.00299 8.64253C6.13672 8.59329 6.35646 8.48732 6.4518 8.52886C6.58542 8.58569 6.55777 8.764 6.70234 8.92396C6.78987 9.02234 6.94973 9.0193 7.04041 9.12537C7.13108 9.23144 7.44301 9.1822 7.44301 9.1822L7.56134 9.82045L7.0865 10.4291L6.93119 11.1852H6.28909L5.70251 10.9525L5.41357 10.2535L5.55804 9.54651L5.7633 8.68406Z" fill="#D2C281"/>
<path fill-rule="evenodd" clip-rule="evenodd" d="M7.00556 8.71486C7.02148 8.71977 7.03803 8.72236 7.05469 8.72256C7.03625 8.73796 6.99776 8.77169 7.01315 8.85932C7.02855 8.94695 7.07769 9.05758 7.03625 9.12515C7.06933 9.16132 7.094 9.20436 7.10849 9.25118C7.13463 9.32655 7.14232 9.39564 7.31283 9.40648C7.28822 9.42163 7.26553 9.43969 7.24526 9.46028C7.24526 9.46028 7.36358 9.5632 7.42356 9.65843C7.48495 9.6558 7.64786 9.60515 7.64786 9.60515L7.6817 9.62824L7.75393 9.59785C7.75393 9.59785 7.68636 9.57171 7.73549 9.40729C7.78159 9.26283 7.82313 9.27053 7.82667 9.25979C7.83022 9.24905 7.86051 9.09689 7.86051 9.03539C7.88351 8.95556 7.90195 8.71273 7.90195 8.71273L7.85281 8.17641L7.57623 8.00885L7.35133 7.79175L7.13918 8.1913L6.99948 8.3306L6.98874 8.67636L7.00556 8.71486Z" fill="#E2C270"/>
<path fill-rule="evenodd" clip-rule="evenodd" d="M7.67093 8.26611C7.67093 8.26611 7.72006 8.40591 7.7386 8.51351C7.74514 8.49259 7.74875 8.47087 7.74934 8.44897C7.74934 8.44897 7.78774 8.66111 7.79534 8.74875C7.81074 8.74561 7.82573 8.74105 7.82917 8.75634C7.83262 8.77164 7.86767 8.94235 7.85957 9.03758C7.92357 8.932 8.01212 8.84344 8.1177 8.77944C8.1792 8.74095 8.25143 8.69951 8.32681 8.69637C8.44514 8.69333 8.53115 8.77174 8.67258 8.77174C9.01369 8.77174 9.32268 8.5212 9.55012 8.44441C9.71759 8.38748 9.86206 8.34604 9.96347 8.25375C10.0127 8.21231 10.1003 8.12012 10.1802 7.98325C10.2862 7.80089 10.3969 7.64214 10.5076 7.62218C10.4575 7.63139 10.4065 7.63499 10.3556 7.63292C10.3556 7.63292 10.3895 7.59908 10.4468 7.55299C10.5042 7.50689 10.5728 7.45006 10.6711 7.45006C10.8464 7.45006 10.9339 7.47609 11.0323 7.47609C11.1307 7.47305 11.1875 7.45006 11.1875 7.45006C11.1875 7.45006 11.2905 7.52229 11.5225 7.52229C11.7546 7.52533 11.9098 7.54529 12.0313 7.55613C12.1528 7.56697 12.5599 7.52229 12.6767 7.52574C12.7529 7.52867 12.8277 7.54697 12.8966 7.57953L12.52 6.48539L11.1673 5.3031L10.362 5.87327L9.1232 7.11199L7.92451 7.55613L7.67397 7.83736V8.26611H7.67093Z" fill="#CCB360"/>
<path fill-rule="evenodd" clip-rule="evenodd" d="M10.3605 7.63901C10.3605 7.63901 10.3943 7.60528 10.451 7.55918C10.5078 7.51309 10.5772 7.45615 10.6754 7.45615C10.8506 7.45615 10.9382 7.48229 11.0366 7.48229C11.135 7.47925 11.1918 7.45615 11.1918 7.45615C11.1918 7.45615 11.295 7.52828 11.5269 7.52828C11.759 7.53132 11.9142 7.55128 12.0357 7.56202C12.1571 7.57276 12.5643 7.52828 12.6811 7.53163C12.7572 7.53449 12.832 7.55279 12.9009 7.58542L12.7302 7.09204L12.5321 6.71558L11.9665 6.09617L11.2825 5.69356C11.2795 5.69052 11.0474 5.62903 11.0474 5.62903L10.4326 6.00094L9.87478 7.44409L9.86404 7.74802L10.2251 7.91863C10.3158 7.76666 10.4158 7.64509 10.5095 7.62969C10.4249 7.63891 10.3604 7.63891 10.3604 7.63891L10.3605 7.63901Z" fill="#D5B457"/>
<path fill-rule="evenodd" clip-rule="evenodd" d="M10.3526 7.7421C10.2988 7.74514 10.2544 7.7344 10.242 7.69601C10.1959 7.56694 10.159 7.5485 10.1204 7.5485C10.0818 7.5485 10.0298 7.63147 9.99887 7.63907C9.96797 7.64667 9.9313 7.54384 9.9313 7.54384L9.89746 7.52844C9.89746 7.52844 9.6992 7.65751 9.5594 7.80968C9.4196 7.96185 9.19054 8.22008 9.08761 8.26608C8.98469 8.31207 8.63112 8.32757 8.51016 8.35371C8.3892 8.37985 8.25507 8.46748 8.23664 8.48744C8.2182 8.5074 8.29053 8.52888 8.30127 8.54883C8.31201 8.56727 8.18284 8.55957 8.1721 8.57923C8.16451 8.59463 8.2025 8.68216 8.22134 8.72673C8.25431 8.71034 8.29049 8.70141 8.32731 8.7006C8.44563 8.69756 8.53174 8.77597 8.67307 8.77597C9.01427 8.77597 9.32315 8.52543 9.55059 8.44854C9.71815 8.3917 9.86261 8.35017 9.96402 8.25797C10.0132 8.21654 10.1008 8.12424 10.1807 7.98748C10.2391 7.89377 10.296 7.80613 10.3529 7.7416L10.3526 7.7421Z" fill="#D2B257"/>
<path fill-rule="evenodd" clip-rule="evenodd" d="M5.45925 15.3481C5.45925 15.3481 5.42886 15.2343 5.14722 14.9408C5.06728 14.8578 5.01815 14.7888 4.96435 14.7395C4.83062 14.6134 4.75221 14.5796 4.65698 14.5074C4.44797 14.3522 4.22053 14.3522 4.04536 14.1616C3.8702 13.9711 3.66606 13.6069 3.52422 13.2348C3.38441 12.8629 3.34592 12.7446 3.34592 12.7338C3.34592 12.7231 3.38441 12.6509 3.43355 12.6616C3.48269 12.6723 3.48269 12.7676 3.49505 12.7907C3.51953 12.8284 3.54729 12.8638 3.57802 12.8967C3.65025 12.9797 3.75319 13.079 3.80546 13.2271C3.79472 13.1011 3.75167 12.9613 3.75167 12.9613C3.75167 12.9613 4.02216 13.1319 4.25265 13.3101C4.48475 13.4884 4.57998 13.5499 4.64776 13.6636C4.71553 13.7772 4.8752 14.077 4.95169 14.1647C5.02818 14.2523 6.07623 14.5827 6.07623 14.5827L6.57478 14.9544L6.82228 15.4969L6.62858 15.8008L6.25667 15.8808L5.65266 15.6103L5.45925 15.348V15.3481Z" fill="#D2B159"/>
<path fill-rule="evenodd" clip-rule="evenodd" d="M4.11761 13.4792C4.11761 13.4792 4.24364 13.6805 4.55101 13.8711C4.82769 14.0386 5.26565 14.1908 5.65609 14.2815C5.88039 14.3353 6.10479 14.3767 6.30609 14.3798C6.8486 14.3874 7.22203 14.2323 7.68471 14.1816C7.93524 14.1554 8.24261 14.1355 8.56224 14.06C8.97255 13.9616 9.21538 13.8509 9.54585 13.6953C9.78555 13.5847 10.0054 13.5017 10.1836 13.3956C10.4341 13.2481 10.617 13.0837 10.8291 13.0345C10.803 13.1068 10.7753 13.2358 10.5663 13.3696C10.677 13.3664 10.8291 13.3588 10.8291 13.3588C10.8291 13.3588 10.6816 13.4464 10.4219 13.6431C10.262 13.7647 10.05 13.9704 9.83327 14.1072C9.69336 14.1948 9.54119 14.2592 9.4413 14.3117C9.19816 14.4454 9.10009 14.513 8.94033 14.6764C8.99716 14.6733 9.00182 14.6764 9.00182 14.6764C9.00182 14.6764 8.80042 14.7025 8.65606 14.7793C8.62566 14.7793 8.57298 14.7686 8.48079 14.7947C8.40856 14.8177 8.31323 14.8701 8.21496 14.8976C8.07505 14.9392 8.02906 14.9207 8.02906 14.9207L8.05205 14.9668C8.05205 14.9668 7.8697 14.9637 7.80891 14.9699C7.81965 14.9729 7.81661 14.9776 7.81661 14.9776C7.80593 14.9794 7.79565 14.983 7.78622 14.9883C7.75697 15.0073 7.72479 15.0213 7.69099 15.0297C7.67255 15.0328 7.65715 15.0328 7.63405 15.0374C7.64175 15.0559 7.70173 15.159 7.72938 15.2198C7.70639 15.2352 7.36052 15.4965 7.36052 15.4965C7.37124 15.5134 7.38001 15.5314 7.38665 15.5503C7.39739 15.584 7.40205 15.6332 7.41279 15.6562C7.43883 15.7023 7.45423 15.71 7.45423 15.71C7.45423 15.71 7.41279 15.7177 7.34046 15.7362C7.27906 15.7516 7.20369 15.7776 7.09732 15.793C7.06468 15.7973 7.03185 15.7998 6.99895 15.8007C7.01434 15.8345 7.08192 15.9636 6.95741 16.1126C6.8329 16.2617 6.7945 16.2833 6.75611 16.3786C6.73678 16.364 6.7162 16.3511 6.69461 16.3401C6.65318 16.3216 6.59624 16.2941 6.57628 16.2571C6.56465 16.3064 6.54924 16.3547 6.53019 16.4016C6.49179 16.5045 6.43496 16.606 6.42422 16.6828C6.38268 16.6367 6.30589 16.546 6.19982 16.5645C6.09375 16.5829 6.00926 16.7274 5.99082 16.7689C5.99082 16.7428 5.97238 16.7228 5.96782 16.7535C5.96468 16.7874 5.90633 17.1407 5.58052 17.4266C5.57748 17.3544 5.57748 17.1945 5.56978 17.1424C5.53939 17.1727 5.50221 17.2176 5.28085 17.313C5.06415 17.4082 5.09849 17.5035 5.09849 17.5035C5.09849 17.5035 5.08005 17.3516 5.19686 17.1915C5.31519 17.0317 5.38742 16.9563 5.38742 16.9441C5.38551 16.9316 5.38018 16.9199 5.37202 16.9103C5.35662 16.8949 5.32593 16.8764 5.32593 16.8642C5.34437 16.8566 5.52723 16.7689 5.51649 16.5875C5.50575 16.4247 5.43666 16.3401 5.38742 16.2802C5.37982 16.2725 5.45976 16.2157 5.44892 16.1972C5.44122 16.1865 5.34295 16.1142 5.33059 16.0757C5.33349 16.0527 5.33865 16.0301 5.34599 16.0081C5.35673 15.9743 5.36443 15.9512 5.36139 15.9282C5.35369 15.8898 5.31215 15.7837 5.29989 15.7729C5.31063 15.776 5.38742 15.7729 5.38742 15.7729C5.38742 15.7729 5.32603 15.6746 5.31519 15.6285C5.30435 15.5824 5.28135 15.4609 5.26909 15.4379C5.29523 15.441 5.35976 15.4455 5.35976 15.4379C5.36291 15.4148 5.30293 15.3764 5.32937 15.3467C5.34781 15.3498 5.38317 15.3652 5.4169 15.4082C5.39846 15.359 5.36777 15.2638 5.30313 15.2254C5.33353 15.2146 5.43686 15.1869 5.52753 15.2407C5.6182 15.2945 5.6491 15.3697 5.6491 15.3697C5.6491 15.3697 5.7029 15.4113 5.78597 15.4728C5.8812 15.548 6.00257 15.6551 6.19627 15.7309C6.23781 15.754 6.34378 15.754 6.42067 15.7386C6.45415 15.7306 6.48625 15.7177 6.5159 15.7002C6.52661 15.6939 6.53795 15.6887 6.54974 15.6848C6.53322 15.6516 6.51422 15.6198 6.49291 15.5895C6.51904 15.5895 6.54974 15.5926 6.54974 15.5926C6.54974 15.5926 6.56818 15.5511 6.48521 15.471C6.50365 15.4526 6.52674 15.4407 6.52674 15.4096C6.50061 15.4065 6.45451 15.3681 6.44377 15.3527C6.45907 15.342 6.48217 15.3066 6.50831 15.2959C6.48521 15.2774 6.42837 15.2005 6.40223 15.193C6.4272 15.1837 6.45136 15.1724 6.47447 15.1591C6.47447 15.1591 6.3454 15.1253 6.30386 15.0976C6.26233 15.0672 6.20093 15.0146 6.16406 14.9992C6.12556 14.9838 6.05799 14.9762 6.03033 14.9455C6.05637 14.9531 6.0979 14.9455 6.1287 14.9455C6.1517 14.9455 6.16254 14.9485 6.17014 14.9485C6.1671 14.9378 6.1671 14.9147 6.22707 14.9071C6.25592 14.9027 6.28391 14.8939 6.31004 14.8809C6.31004 14.8809 6.25311 14.8779 6.18847 14.8164C6.12384 14.7549 6.07014 14.7058 6.03327 14.6981C5.99487 14.6904 5.92264 14.7242 5.87806 14.721C5.81657 14.7135 5.79043 14.6827 5.79043 14.6827C5.79043 14.6827 5.58609 14.7011 5.13273 14.4245C4.74077 14.1847 4.57016 13.9727 4.57016 13.9727C4.53348 13.9594 4.49802 13.9429 4.46419 13.9234C4.31669 13.8466 4.11225 13.6868 4.11843 13.4777L4.11761 13.4792Z" fill="#C2A44D"/>
<path fill-rule="evenodd" clip-rule="evenodd" d="M9.77164 4.25488C9.80719 4.26643 9.83879 4.28774 9.86282 4.31638C9.93505 4.39935 9.98115 4.55608 9.81672 4.72364C9.88126 4.74664 9.9079 4.75404 9.96423 4.74664C9.90739 4.81432 9.77832 4.95878 9.77062 5.08481C9.76292 5.18774 9.82746 5.21854 9.82746 5.21854C9.82746 5.21854 9.72909 5.33221 9.72453 5.52247C9.77098 5.47008 9.82182 5.42175 9.87649 5.378C9.99027 5.28733 10.147 5.1844 10.2531 5.11987C10.2516 5.14691 10.2553 5.17399 10.2638 5.1997C10.2638 5.1997 10.462 5.03679 10.6285 5.10913C10.7038 5.14296 10.67 5.24893 10.67 5.24893C10.67 5.24893 10.773 5.21054 10.8452 5.28277C10.9175 5.35501 11.0196 5.54131 11.072 5.61355C11.095 5.64739 11.1549 5.71192 11.2163 5.81181C11.3002 5.95166 11.3702 6.09936 11.4254 6.25281C11.4285 6.17288 11.4484 6.04847 11.676 6.12678C11.9034 6.20672 12.1616 6.37428 12.3783 6.70425C12.595 7.03421 12.6487 7.40673 12.7578 7.54856C12.8684 7.68533 12.9822 7.91277 12.9899 8.00811C12.9976 8.10344 12.956 8.41071 13.1835 9.24216C13.248 8.98402 13.3464 8.41071 13.3464 8.41071L13.4002 7.90507L13.4617 6.34055L11.8279 4.9833L10.5508 4.05652L9.71936 4.13645L9.77154 4.25478L9.77164 4.25488Z" fill="#CAA13E"/>
<path fill-rule="evenodd" clip-rule="evenodd" d="M12.807 6.58319C12.807 6.58319 12.7839 6.43122 12.3997 6.17288C12.0154 5.91779 11.7158 5.91779 11.4392 5.70109C11.2271 5.53048 11.0058 5.13851 10.8617 5.00944C10.7218 4.88189 10.6988 4.51303 10.6988 4.51303L11.1706 4.11792L11.8723 3.10371L12.4655 2.45056L12.7497 2.84567L13.1448 3.30977L13.3646 4.24111L13.4445 5.60433L12.8063 6.58329L12.807 6.58319Z" fill="#B59544"/>
<path fill-rule="evenodd" clip-rule="evenodd" d="M13.2821 8.21726C13.2937 8.01052 13.2682 7.80338 13.2067 7.60565C13.1054 7.29058 12.8841 6.73115 12.7812 6.52164C12.7397 6.28954 12.7705 6.2711 12.8151 6.24496C12.8596 6.21882 13.0272 6.12339 13.119 5.78856C13.2108 5.45373 13.4956 5.44279 13.4956 5.44279L13.6707 5.31372L13.9367 5.97912L14.1687 6.58009L14.2409 7.03963L14.2947 7.4315L14.1687 8.25991L13.5463 8.82238L13.282 8.21726H13.2821Z" fill="#C89D3A"/>
<path fill-rule="evenodd" clip-rule="evenodd" d="M4.59714 17.4505V17.4334C4.61007 17.4254 4.62149 17.4151 4.63087 17.4031C4.64161 17.3877 4.64941 17.3692 4.65701 17.3647C4.67241 17.357 4.74464 17.3343 4.78304 17.3416C4.82144 17.3488 4.92295 17.3907 4.97674 17.3877C5.08738 17.3846 5.21644 17.3 5.42089 17.3385C5.72826 17.3954 5.8005 17.6044 5.9788 17.7227C6.10037 17.8058 6.2262 17.7688 6.24464 17.7688H6.28607C6.29377 17.7688 6.35061 17.7043 6.38141 17.7074C6.4429 17.7104 6.44898 17.7612 6.48737 17.7642C6.57805 17.775 6.75331 17.7181 6.84095 17.7412C6.86693 17.7494 6.89056 17.7637 6.90983 17.7829C6.92909 17.8022 6.94341 17.8258 6.95158 17.8518C6.97001 17.9086 6.95462 17.9808 6.91004 18.0224C6.81481 18.1099 6.72414 18.193 6.7057 18.2655C6.72915 18.2834 6.75167 18.3025 6.77317 18.3227C6.01276 18.1289 5.28114 17.836 4.59714 17.4514V17.4505Z" fill="#CEB052"/>
<path fill-rule="evenodd" clip-rule="evenodd" d="M12.7806 14.3798C12.7806 14.3798 13.0203 14.0602 13.1034 13.9018C13.1864 13.7386 12.8406 11.6719 12.8406 11.6719L13.5353 9.39585L13.5167 8.65508C13.5167 8.65508 13.5506 7.97114 13.6305 7.6745C13.7259 7.84511 14.0225 8.05107 14.087 8.16018C14.1174 7.95108 14.2206 7.51007 14.2053 7.03979C14.2622 7.12733 14.3989 8.00801 14.3989 8.00801L14.5357 8.60118L14.714 9.23133L14.9123 9.89683L15.0306 10.3564L15.0982 10.467L15.1551 10.6606L15.2089 10.8697L15.3641 11.3599L15.4553 11.7626L15.5275 12.4926C15.5432 12.5485 15.5546 12.6055 15.5614 12.6632C15.5644 12.7431 15.5506 12.7892 15.5506 12.8031C15.5506 12.817 15.5768 12.9783 15.566 13.0997C15.5506 13.2213 15.5506 13.3164 15.4553 13.4037C15.36 13.4909 15.3001 14.0122 15.3001 14.0122L15.1295 13.8986C15.1295 13.8986 15.1633 13.7433 15.0834 13.6019C15.0035 13.4606 14.8483 13.4313 14.7606 13.4544C14.6731 13.4729 14.4979 13.5004 14.441 13.5497C14.3872 13.5988 14.2551 13.751 14.1336 13.8202C13.9817 13.9113 13.7341 13.9185 13.602 13.9492C13.4682 13.9796 13.3207 14.0708 13.1654 14.1767C13.0436 14.2555 12.9151 14.3233 12.7812 14.3793L12.7806 14.3798Z" fill="#CCA847"/>
<path fill-rule="evenodd" clip-rule="evenodd" d="M12.7806 17.7378C12.7806 17.7378 12.7908 17.7444 12.8103 17.7552C13.9022 17.2436 14.8805 16.5185 15.6875 15.6226C15.6787 15.3116 15.6673 14.9927 15.6547 14.8746C15.6287 14.6241 15.6471 14.369 15.6394 14.2215C15.6317 14.074 15.5487 13.473 15.5103 13.3178C15.4688 13.1626 15.3888 13.0857 15.3766 13.0857C15.3659 13.0888 15.3012 13.3778 15.3012 13.4504C15.3012 13.523 15.2858 13.6979 15.2858 13.7425C15.2751 13.7393 15.2705 13.7121 15.2705 13.7009C15.2551 13.7393 15.2367 13.807 15.229 13.8147C15.2213 13.8224 15.2397 13.7502 15.229 13.7348C15.2183 13.7194 15.1986 13.7271 15.2029 13.6887C15.2047 13.6659 15.2083 13.6433 15.2136 13.6211C15.2136 13.6211 15.1675 13.6887 15.1338 13.8608C15.0999 14.0314 15.0999 14.0361 15.0877 14.0514C15.0769 14.0699 15.0154 14.1313 15.0123 14.1544C15.0093 14.1958 15.0692 14.2374 15.0738 14.2604C15.0768 14.2989 15.02 14.4771 15.0016 14.5643C14.9831 14.6515 14.9908 14.8224 14.9712 14.9101C14.9558 14.99 14.9408 15.0361 14.8882 15.0698C14.9266 15.0775 14.9635 15.0883 14.9635 15.0883C14.9635 15.0883 15.0173 15.3157 14.8805 15.5094C14.8314 15.577 14.8191 15.6078 14.7668 15.6693C14.6638 15.783 14.5839 15.9124 14.5762 15.9966C14.5708 15.9718 14.5672 15.9466 14.5654 15.9213C14.5654 15.9213 14.4056 16.1073 14.338 16.2133C14.2504 16.3501 14.129 16.3424 14.0948 16.3762C14.0607 16.4101 14.0533 16.4715 14.0644 16.5207C14.034 16.5283 13.9769 16.5391 13.9384 16.6575C13.92 16.7189 13.8739 16.779 13.8016 16.8204C13.7294 16.8617 13.6418 16.8742 13.5972 16.8849C13.6356 16.8956 13.651 16.8956 13.6694 16.9079C13.6464 16.9463 13.5404 17.0063 13.422 17.0832C13.3037 17.1554 13.2468 17.2614 13.2176 17.3306C13.1872 17.3951 13.1423 17.4366 13.0701 17.4443C13.1005 17.4628 13.1455 17.5057 13.1685 17.5196C13.1346 17.5273 13.0773 17.5273 12.9748 17.6149C12.8673 17.7041 12.8304 17.7302 12.7811 17.7379L12.7806 17.7378Z" fill="#C39D3C"/>
<path fill-rule="evenodd" clip-rule="evenodd" d="M10.6423 18.45C10.7011 18.4088 10.7649 18.375 10.832 18.3494C11.0717 18.2542 11.3253 18.2358 11.4252 18.2051C11.5205 18.1747 11.5958 18.1327 11.7141 18.1097C11.711 18.1367 11.7084 18.162 11.7055 18.1859C11.3567 18.2956 11.0014 18.3838 10.6418 18.45H10.6423Z" fill="#D2BA6B"/>
<path fill-rule="evenodd" clip-rule="evenodd" d="M15.0634 12.1452C15.0634 12.1452 15.0143 12.411 14.9267 12.5786C14.839 12.7462 14.7443 12.9782 14.7443 12.9782C14.7449 12.9259 14.7511 12.8738 14.7627 12.8228C14.6521 12.8874 14.3831 13.0427 14.3068 13.1118C14.2346 13.1763 14.1131 13.2901 14.0824 13.3439C14.1547 13.1318 14.23 12.9413 14.2423 12.8536C14.1317 12.9336 13.6152 13.3593 13.3463 13.6405L12.5087 14.3183C12.412 14.3704 12.3125 14.417 12.2105 14.4579C12.0662 14.5193 11.8956 14.5716 11.7695 14.6208C11.8034 14.5301 11.8571 14.4501 11.9324 14.3733C12.0124 14.298 12.2521 14.0383 12.289 13.9174C12.3228 13.7914 12.3305 13.7161 12.2859 13.61C12.2444 13.6208 12.1492 13.6254 12.0846 13.6439C12.0201 13.6623 11.9509 13.7314 11.9509 13.7314C11.9509 13.7314 12 13.4502 12.1061 13.1843C12.0262 13.1874 11.8894 13.2104 11.8894 13.2104C11.8894 13.2104 12.08 12.8907 12.4061 12.6679C12.3062 12.6892 12.2085 12.7195 12.1141 12.7585C11.9235 12.8384 11.7145 12.9568 11.5593 13.0213C11.6469 12.8997 12.2616 12.0224 12.6274 11.2047C12.9921 10.3887 13.1284 10.1797 13.2083 9.74171C13.2498 9.52501 13.2387 9.20477 13.2498 8.91797C13.2605 8.63359 13.2959 8.37849 13.2729 8.20789C13.3681 8.32622 13.7247 8.65973 13.737 9.40516C13.7477 10.1505 13.3959 11.1572 13.0223 11.6996C13.1135 11.7258 13.3498 11.7566 13.5925 11.3349C13.8352 10.9133 13.8323 10.7955 13.9199 10.6203C13.9307 10.7079 13.9275 10.7386 13.9275 10.7386C13.9275 10.7386 14.2811 10.3099 14.4486 9.77039C14.4824 10.0025 14.5823 10.2069 14.4255 10.6326C14.2857 11.0168 14.1028 11.1106 14.1028 11.1106C14.1028 11.1106 14.1935 11.0952 14.3271 11.0153C14.3502 11.0721 14.3456 11.1369 14.384 11.1597C14.4224 11.1826 14.4747 11.2212 14.4824 11.2581C14.5239 11.1966 14.5884 11.1182 14.6084 11.0599C14.593 11.1814 14.5823 11.713 14.6388 11.9835C14.7573 11.9728 14.8786 11.9651 14.9616 11.7514C14.9048 11.9605 14.9048 12.0864 14.9432 12.2647C15.0062 12.2218 15.063 12.1449 15.063 12.1449L15.0634 12.1452Z" fill="#C0993A"/>
<path fill-rule="evenodd" clip-rule="evenodd" d="M11.0702 3.67396C11.0702 3.67396 10.9519 3.72309 10.7506 3.72309C10.5754 3.72309 10.6245 3.65552 10.351 3.65552C9.92994 3.65552 8.45911 3.89866 8.20086 3.89522C8.03329 3.89218 8.76638 3.96745 8.76638 3.96745L10.6399 3.99359L11.0164 3.9632L11.1563 3.67851L11.0702 3.67396Z" fill="#A88F33"/>
<path fill-rule="evenodd" clip-rule="evenodd" d="M6.21242 7.3363C6.21242 7.3363 5.97262 7.51916 5.87121 7.65907C5.76979 7.79898 5.716 7.89107 5.60071 8.00484C5.62777 8.00587 5.65481 8.00224 5.68064 7.9941C5.68064 7.9941 5.68064 8.0245 5.6622 8.0325C5.67814 8.03072 5.69427 8.03252 5.70941 8.03778C5.72456 8.04304 5.73833 8.05162 5.74973 8.06289C5.7159 8.08133 5.62371 8.17362 5.69594 8.28273C5.74973 8.36571 5.86351 8.37331 5.86351 8.37331C5.86351 8.37331 5.83737 8.44868 5.94648 8.44098C6.18162 8.43024 6.44442 8.32721 6.56578 8.35335C6.68736 8.38374 6.75645 8.39489 6.84246 8.54401C6.93364 8.69152 7.01307 8.71462 7.01307 8.71462C7.01307 8.71462 7.06686 8.57775 7.0546 8.37341C7.09871 8.26326 7.12316 8.14623 7.12684 8.02764L7.0469 7.43903L6.6981 6.99792L6.24625 7.24846L6.21242 7.336V7.3363Z" fill="#E3C571"/>
<path fill-rule="evenodd" clip-rule="evenodd" d="M6.64093 7.24866C6.64093 7.24866 6.67477 7.32859 6.8162 7.33619C6.8008 7.37003 6.8008 7.37469 6.80546 7.40072C6.8085 7.42686 6.81306 7.46526 6.81306 7.46526C6.82863 7.45772 6.8427 7.44742 6.85459 7.43486C6.86229 7.4687 6.84689 7.5224 6.85459 7.56089C6.85934 7.58431 6.86707 7.60702 6.87759 7.62847C6.87983 7.62321 6.8824 7.6181 6.88529 7.61317C6.88833 7.60547 6.91568 7.69614 6.99136 7.76513C6.99129 7.75452 6.99391 7.74407 6.99896 7.73474C7.00012 7.75401 7.00649 7.77261 7.0174 7.78854C7.01173 7.78584 7.00656 7.78221 7.0021 7.7778C7.0021 7.7778 7.0097 8.02094 7.05123 8.14667C7.05818 8.13854 7.06435 8.12979 7.06967 8.12053C7.06967 8.11293 7.06663 8.1882 7.05893 8.2421C7.0482 8.2959 7.05589 8.37117 7.05589 8.37117C7.0836 8.34935 7.11405 8.33127 7.14647 8.31737C7.19256 8.29883 7.26804 8.242 7.31403 8.11597C7.34072 8.0446 7.36129 7.97108 7.37553 7.89623C7.39039 7.92484 7.40064 7.95561 7.40592 7.98741C7.40906 8.0258 7.48129 8.00585 7.48129 8.00585L7.49669 7.83828L7.58787 7.45867L7.67085 7.22353L8.07041 6.60119L8.79234 6.0452L9.42249 6.18967L9.95417 5.46733L9.03822 4.91711L8.17142 5.00779L7.38475 6.09737L6.7547 7.08565L6.64093 7.24856V7.24866Z" fill="#D8B65B"/>
<path fill-rule="evenodd" clip-rule="evenodd" d="M11.181 5.67189C11.181 5.67189 11.1272 5.68263 10.972 5.76307C10.8168 5.84351 10.7092 5.86904 10.6492 5.98737C10.5893 6.1057 10.5847 6.19952 10.5847 6.19952C10.5847 6.19952 10.6908 6.15342 10.7523 6.13802C10.8168 6.12272 10.889 6.12728 10.8813 6.15342C10.874 6.17134 10.8637 6.18794 10.851 6.20256C10.851 6.20256 10.9725 6.19952 10.9693 6.25949C10.966 6.31947 10.9463 6.38552 10.9233 6.4147C10.9002 6.44509 10.805 6.49008 10.7942 6.52543C10.7681 6.59767 10.805 6.60071 10.7911 6.65906C10.7803 6.716 10.7297 6.82663 10.5636 7.02023C10.393 7.21394 10.3205 7.35071 10.3205 7.35071C10.3205 7.35071 10.2375 7.1955 10.1945 7.06177C10.1641 7.07707 10.0009 7.16774 10.0009 7.16774L9.62277 5.85071L9.63037 5.76307C9.63037 5.76307 9.6642 5.72164 9.6719 5.64474C9.61507 5.6263 9.60737 5.6109 9.53199 5.53877C9.45662 5.46664 9.39523 5.3789 9.2693 5.31893C9.25086 5.28509 9.22776 5.23909 9.13557 5.22055C9.04337 5.20201 8.98806 5.18682 8.98806 5.18682C8.98806 5.18682 9.03719 5.16828 9.06029 5.12988C9.00336 5.13758 8.95736 5.15602 8.83285 5.15298C8.70682 5.14984 8.69294 5.14528 8.62385 5.15602C8.55475 5.16676 8.47188 5.19756 8.44098 5.09148C8.40714 5.06535 8.33491 5.08845 8.27342 5.17902C8.21192 5.26959 8.19044 5.34192 8.07211 5.37728C8.06379 5.42944 8.04553 5.47952 8.01832 5.52479C7.98448 5.58173 7.93068 5.63856 7.85845 5.72305C7.74468 5.85678 7.76311 6.07653 7.58177 6.24409C7.3989 6.41156 7.61216 5.77989 7.61216 5.77989L7.90414 5.08085L8.73559 4.26783L10.0266 4.1803L10.1526 4.84895L10.7828 5.06565L11.1808 5.6727L11.181 5.67189Z" fill="#D3AE4D"/>
<path fill-rule="evenodd" clip-rule="evenodd" d="M11.3854 5.81938L10.8429 5.03718L10.4633 4.7451C10.4633 4.7451 10.1928 4.24727 10.1744 4.23187C10.159 4.22114 9.90386 4.19348 9.74096 4.18274L9.77135 4.25801C9.80691 4.26956 9.8385 4.29087 9.86253 4.31951C9.93476 4.40248 9.98085 4.5592 9.81643 4.72677C9.88097 4.74976 9.90761 4.75716 9.96394 4.74976C9.9071 4.81744 9.77804 4.9619 9.77034 5.08793C9.76264 5.19086 9.82717 5.22156 9.82717 5.22156C9.82717 5.22156 9.7288 5.33533 9.72424 5.52548C9.7707 5.47309 9.82154 5.42476 9.8762 5.38102C9.98997 5.28984 10.1467 5.18731 10.2528 5.12278C10.2513 5.14986 10.255 5.17697 10.2635 5.20271C10.2635 5.20271 10.4617 5.03981 10.6282 5.11204C10.7035 5.14588 10.6696 5.25195 10.6696 5.25195C10.6696 5.25195 10.7727 5.21355 10.8449 5.28579C10.9171 5.35802 11.0201 5.54392 11.0723 5.61626C11.0953 5.65009 11.1553 5.71463 11.2167 5.81441C11.3006 5.95429 11.3706 6.10202 11.4258 6.25551C11.4288 6.19402 11.4412 6.10801 11.5474 6.10801L11.386 5.81907L11.3854 5.81938Z" fill="#CAA13E"/>
<path fill-rule="evenodd" clip-rule="evenodd" d="M3.25239 8.04174C3.25239 8.04174 3.21399 7.94641 3.25239 7.76051C3.29078 7.57461 3.35076 7.48697 3.37072 7.21344C3.39067 6.9399 3.56898 6.59869 3.56898 6.59869L4.06225 6.37439L4.41116 6.46962L4.51409 6.93686L4.07299 7.18C4.07299 7.18 4.04999 7.28293 3.92548 7.36591C3.80098 7.44888 3.62885 7.51341 3.58742 7.59801C3.56265 7.64981 3.54457 7.70455 3.53362 7.76091C3.53362 7.76091 3.40759 7.73478 3.33232 7.81775C3.25239 7.90234 3.25543 7.97762 3.25239 8.04215V8.04174Z" fill="#F4EFC8"/>
<path fill-rule="evenodd" clip-rule="evenodd" d="M4.24818 7.91728C4.24818 7.91728 4.20665 7.94342 4.17595 8.00846C4.14556 7.95932 4.07292 7.66725 4.06988 7.40446C4.06684 7.14166 4.05114 7.07652 4.11192 6.98595C4.17271 6.89538 4.41109 6.79995 4.37725 6.63684C4.34341 6.48163 4.20199 6.4171 4.02834 6.46167C3.90677 6.49207 3.8163 6.75061 3.69027 6.87968C3.59494 6.97805 3.48127 6.96265 3.45057 7.01644C3.40903 7.08868 3.44743 7.16091 3.43517 7.207C3.43203 7.2224 3.39363 7.30538 3.32444 7.40527C3.18463 7.60657 2.94797 7.89094 2.91718 8.14604C2.92791 8.00157 2.92032 7.99853 2.95871 7.83867L2.93561 7.80027L3.08758 7.30234L3.18595 6.89204L3.40579 6.20496L3.793 5.50268L4.16957 5.08154L4.56143 5.10768L4.60753 5.69629L4.83193 6.80136L5.30373 7.38227L4.54755 7.89114L4.24788 7.91728H4.24818Z" fill="#EBCC73"/>
<path fill-rule="evenodd" clip-rule="evenodd" d="M4.48343 8.12601C4.48343 8.12601 4.4189 8.14141 4.3958 8.12916C4.3727 8.1169 4.3498 8.10302 4.3574 8.08762C4.365 8.07222 4.40654 8.04618 4.40654 8.03382C4.40739 8.02265 4.40386 8.01159 4.39669 8.00298C4.38952 7.99438 4.37928 7.9889 4.36814 7.98772C4.33278 7.98316 4.32204 8.00616 4.32204 8.00616C4.32204 8.00616 4.28821 7.98012 4.26065 7.97577C4.27695 7.97377 4.29336 7.97272 4.30978 7.97263C4.26731 7.95339 4.22226 7.94045 4.17606 7.93423C4.21445 7.91123 4.28983 7.84356 4.33896 7.84356C4.3881 7.84356 4.4189 7.83596 4.4112 7.80982C4.4035 7.78368 4.3651 7.74528 4.32366 7.72988C4.33896 7.71144 4.3498 7.68379 4.31293 7.60831C4.27443 7.53303 4.28983 7.48228 4.30219 7.46394C4.31293 7.44084 4.35132 7.3994 4.36976 7.37326C4.3882 7.34713 4.4036 7.31177 4.43429 7.29333C4.44969 7.28259 4.49883 7.26294 4.54807 7.24419C4.60186 7.22575 4.64644 7.20265 4.67713 7.22575C4.71097 7.24875 4.69557 7.27955 4.69557 7.27955C4.69557 7.27955 4.80164 7.24105 4.89687 7.29029C4.99221 7.33629 5.22431 7.36556 5.22431 7.36556L5.30748 7.53313L4.75727 8.00495L4.52983 8.11872L4.48373 8.12632L4.48343 8.12601Z" fill="#E5C66B"/>
<path fill-rule="evenodd" clip-rule="evenodd" d="M5.24713 7.35476C5.24713 7.35476 5.07652 7.46853 5.03813 7.50997C5.06113 7.51311 5.09952 7.52851 5.08412 7.5515C5.06568 7.5745 4.95505 7.65443 4.89356 7.72981C4.82903 7.80508 4.76753 7.90041 4.74605 7.94651C4.72306 7.98795 4.54779 8.10942 4.48792 8.12471C4.61394 8.12471 4.86752 7.96951 4.96275 7.96951C4.95971 8.0156 4.98889 8.06788 5.04269 8.07244C5.09648 8.077 5.25169 8.10628 5.46069 7.97721C5.66969 7.85118 5.6006 7.75736 5.68813 7.69597C5.8557 7.58524 5.92327 7.48687 6.01546 7.42547C6.10766 7.36408 6.15537 7.3501 6.15537 7.3501C6.15537 7.3501 6.15841 7.304 6.18577 7.30866C6.19325 7.30952 6.20036 7.31241 6.20633 7.31702C6.21229 7.32162 6.21688 7.32777 6.2196 7.3348C6.2196 7.3348 6.37947 7.22103 6.58432 7.19033C6.57954 7.1882 6.57572 7.18437 6.57358 7.1796C6.57358 7.1796 6.58888 7.1719 6.59202 7.1642C6.59202 7.1642 6.60276 7.1488 6.61046 7.1565C6.61816 7.1642 6.62889 7.22103 6.64429 7.24413C6.67813 7.22873 6.74267 7.08426 6.74267 7.08426L6.89797 6.64012V6.23438L6.7764 6.25747L5.86461 6.64468L5.31126 7.21799L5.24673 7.35476H5.24713Z" fill="#E6BD62"/>
<path fill-rule="evenodd" clip-rule="evenodd" d="M7.87212 5.36461C7.92144 5.35264 7.96872 5.33345 8.01243 5.30767C7.99399 5.35691 7.99399 5.4107 7.91406 5.52751C7.83413 5.64433 7.83109 5.66124 7.76655 5.78262C7.70202 5.90865 7.69432 6.08999 7.63282 6.16983C7.66039 6.15643 7.68995 6.14764 7.72036 6.14379C7.72036 6.14379 7.65896 6.19758 7.63282 6.25442C7.60669 6.31126 7.56059 6.42959 7.44692 6.50192C7.33325 6.57426 7.18868 6.62025 7.03347 6.79086C6.87817 6.95833 6.7184 7.17047 6.63837 7.24676C6.6799 7.17453 6.73674 7.03006 6.75214 6.93482C6.76754 6.83959 6.749 6.72572 6.77513 6.59979C6.80127 6.47386 6.80127 6.38308 6.9271 6.16324C7.05293 5.9434 7.26831 5.17961 7.26831 5.17961L7.73241 5.0321L7.87232 5.3641L7.87212 5.36461Z" fill="#B6933F"/>
<path fill-rule="evenodd" clip-rule="evenodd" d="M7.53707 5.08322C7.53707 5.08322 7.39727 5.28452 7.35887 5.46283C7.32048 5.64113 7.35573 5.62573 7.33273 5.71336C7.31898 5.7668 7.31898 5.82284 7.33273 5.87627C7.38115 5.79827 7.44745 5.73291 7.52613 5.68561C7.65834 5.60577 7.76593 5.54884 7.83006 5.48126C7.89459 5.40903 7.94839 5.2907 8.0882 5.20003C8.03136 5.19233 7.95143 5.16619 7.93623 5.16964C7.99317 5.1051 8.16367 5.00673 8.33579 4.8884C8.5064 4.76683 8.49566 4.71779 8.77234 4.59642C8.68166 4.61182 8.63861 4.58872 8.56323 4.59642C8.59363 4.53189 8.7 4.50109 8.80637 4.39512C8.91275 4.28915 8.7388 4.13232 8.7388 4.13232L7.92833 4.62256L7.53647 5.08362L7.53707 5.08322Z" fill="#C49937"/>
<path fill-rule="evenodd" clip-rule="evenodd" d="M5.33777 4.71752L5.35621 4.57001L5.58831 4.1981L5.83115 3.54496V2.65201L5.81271 2.13564L5.8511 1.79746L5.88028 1.68997L5.91108 1.64844L6.10924 1.75137L6.38288 2.12328L6.40902 2.84106L6.14308 3.9737L5.38386 4.80211L5.33777 4.71752Z" fill="#DFC068"/>
<path fill-rule="evenodd" clip-rule="evenodd" d="M5.94186 1.60684C5.94186 1.60684 5.82029 1.60998 5.79435 2.11561C5.76842 2.62125 5.75586 2.88709 5.73742 3.13763C5.71898 3.38817 5.67603 3.54023 5.65445 3.68784C5.63287 3.83545 5.62061 4.03665 5.55152 4.15964C5.52112 4.21647 5.45618 4.39478 5.30402 4.52851C5.13341 4.67602 4.87852 4.77905 4.83992 4.78675C4.77225 4.80205 4.42952 4.83588 4.28971 4.91278C4.24058 4.93891 4.15599 4.96961 4.06228 5.05724C3.87627 5.22471 3.62888 5.52438 3.45057 5.88555C3.17704 6.42503 2.9035 7.94802 2.9035 7.94802L2.965 7.84509C2.965 7.84509 2.9727 7.70832 3.10946 7.46852C3.24319 7.22882 3.2048 6.95984 3.3907 6.5003C3.46293 6.32514 3.5536 6.0977 3.66423 5.90399C3.8395 5.58892 4.05154 5.31842 4.2652 5.17091C4.614 4.93121 4.99827 4.87894 4.99827 4.87894L5.41171 4.6054C5.41171 4.6054 5.48394 4.4656 5.57928 4.30573C5.7129 4.08143 5.8832 3.83089 5.92038 3.46668C5.97732 2.92721 5.84045 2.57374 5.84815 2.2541C5.85585 1.93447 5.85889 1.69933 5.92352 1.6424C5.98816 1.58546 5.94196 1.60704 5.94196 1.60704L5.94186 1.60684Z" fill="#A88F33"/>
<path fill-rule="evenodd" clip-rule="evenodd" d="M5.94178 4.01972C5.94178 4.01972 6.12414 3.57092 6.20762 3.17287C6.22302 3.09294 6.25372 3.01311 6.26142 2.94857C6.29982 2.572 6.31056 2.4168 6.26142 2.21084C6.22302 2.05887 6.07551 1.9219 5.99862 1.81573C5.92334 1.705 5.88798 1.66376 5.90338 1.64046C5.91878 1.61716 5.97866 1.57907 6.03701 1.58363C6.09905 1.58543 6.16006 1.59983 6.21635 1.62596C6.27264 1.65208 6.32303 1.68938 6.36446 1.73559C6.48279 1.87236 6.5765 2.33656 6.5765 2.33656L6.67508 2.94908L6.92562 3.72055L5.94198 4.02033L5.94178 4.01972Z" fill="#C99E3D"/>
<path fill-rule="evenodd" clip-rule="evenodd" d="M7.65548 3.55249C7.65548 3.55249 7.62165 3.56779 7.56025 3.55249C7.56287 3.57758 7.55852 3.60291 7.54767 3.62568C7.53682 3.64845 7.51989 3.66779 7.49876 3.68156C7.43422 3.65542 6.83011 3.7077 6.83011 3.7077C6.83011 3.7077 6.54888 3.65846 6.46124 3.28655C6.39985 3.03905 6.50734 2.69794 6.47198 2.47354C6.41819 2.14307 6.34291 2.07843 6.33521 1.9756C6.32752 1.87278 6.31982 1.84654 6.31982 1.782C6.28598 1.7743 6.26602 1.76356 6.23228 1.76356C6.22458 1.73317 6.23988 1.70663 6.20615 1.65283C6.22458 1.66053 6.35061 1.67593 6.49812 1.81574C6.61969 1.92951 6.61969 1.97094 6.63803 1.99404C6.66103 2.01704 6.84703 2.1764 6.92697 2.33525C7.0069 2.49411 7.16211 3.00066 7.19746 3.08363C7.2082 3.11747 7.2313 3.1513 7.28864 3.2281C7.37779 3.33883 7.50838 3.5219 7.65589 3.55229L7.65548 3.55249Z" fill="#B58634"/>
<path fill-rule="evenodd" clip-rule="evenodd" d="M6.65948 2.00183C6.75259 2.15223 6.83623 2.30828 6.90992 2.46907C7.00059 2.67341 7.05439 2.84098 7.16816 2.97775C7.10667 2.79954 6.99756 2.44911 6.93302 2.3246C6.86079 2.1929 6.71328 2.05107 6.65948 2.00193V2.00183Z" fill="#A88F33"/>
<path fill-rule="evenodd" clip-rule="evenodd" d="M5.61427 4.52854C5.61427 4.52854 5.45907 4.56694 5.17014 4.71911C5.07481 4.76824 4.98424 4.80968 4.89661 4.84818C4.66897 4.95111 4.42482 5.04624 4.23112 5.09871C4.24652 5.11715 4.25412 5.12475 4.25412 5.12475C4.25412 5.12475 4.25412 5.20013 4.29565 5.24308C4.27266 5.26618 3.96519 5.47518 4.05596 6.17442C4.11735 6.15142 4.18958 6.12063 4.20032 6.12063C4.21886 6.12377 4.22342 6.17442 4.24642 6.17442C4.26941 6.17442 4.34479 6.14403 4.42472 6.04069C4.42168 6.08223 4.37558 6.50023 4.62298 6.78147C4.66907 6.72767 4.78588 6.54937 4.78588 6.54937L4.78892 6.49253C4.78892 6.49253 4.79966 6.29427 4.86429 6.11293C4.92893 5.93158 5.05485 5.79785 5.05485 5.79785L5.71244 4.85881L5.61407 4.52844L5.61427 4.52854Z" fill="#E6C367"/>
<path fill-rule="evenodd" clip-rule="evenodd" d="M4.99962 5.90741C4.96951 5.92869 4.93634 5.94525 4.90125 5.95655C4.89051 5.91815 4.87511 5.78594 4.96578 5.65687C5.07186 5.50156 5.30386 5.30026 5.36839 5.14018C5.40993 5.03715 5.39149 4.77901 5.76036 4.44854C6.12923 4.11806 6.27359 4.00439 6.27359 4.00439L6.8699 3.70471L7.60298 3.99365L7.23877 5.42112L6.95601 6.08977L5.83148 5.87773L4.99952 5.90741H4.99962Z" fill="#DCBA5A"/>
<path fill-rule="evenodd" clip-rule="evenodd" d="M5.42911 5.51973L5.56902 5.34457V5.22006C5.56902 5.22006 5.72423 5.17852 5.89169 5.00791C6.05916 4.8373 6.29126 4.50997 6.49571 4.52993C6.70015 4.55302 6.72011 4.97407 6.72781 5.0925C6.73551 5.21094 6.76165 5.47971 6.80308 5.62429C6.84918 5.76875 6.30514 6.31583 6.30514 6.31583L5.93566 6.59707L5.42911 5.51973Z" fill="#E9CE77"/>
<path fill-rule="evenodd" clip-rule="evenodd" d="M5.86182 6.97819C5.86182 6.97819 5.97558 6.79988 5.89221 6.76149C5.94134 6.65086 6.03201 6.53405 6.03201 6.53405C6.03201 6.53405 6.09655 6.37428 6.30554 6.17754C6.51454 5.9808 6.6437 5.85011 6.67754 5.718C6.6984 5.6319 6.70975 5.54377 6.71138 5.4552C6.73397 5.47366 6.75814 5.4901 6.78361 5.50434C6.81745 5.51973 6.97721 5.65184 6.95421 5.91778C6.93121 6.18372 6.83264 6.29435 6.83264 6.29435C6.83264 6.29435 6.73741 6.38958 6.66984 6.43882C6.59751 6.48795 6.57147 6.54479 6.45 6.54945C6.46249 6.53952 6.47652 6.53172 6.49154 6.52635C6.49154 6.52635 6.36552 6.51105 6.29784 6.57244C6.23017 6.63384 6.08631 6.82298 6.01408 6.87992C5.94185 6.92602 5.86212 6.97829 5.86212 6.97829L5.86182 6.97819Z" fill="#CDAE50"/>
<path fill-rule="evenodd" clip-rule="evenodd" d="M10.972 3.98903C10.7904 3.92285 10.5996 3.88552 10.4065 3.8784C10.0837 3.86766 9.61193 3.8861 9.14935 3.88913C8.65142 3.89217 8.19958 3.71853 7.57258 3.68783C7.46965 3.62634 7.20787 3.35736 6.39072 3.92753C6.43985 3.92449 6.98398 3.8015 7.17292 4.03826C7.36348 4.27341 7.30969 4.67297 7.28365 4.76821C7.23442 4.98035 7.07455 5.28925 7.01012 5.50595C6.94569 5.72265 6.96088 5.83653 6.91479 5.98849C6.86869 6.14046 6.76728 6.21594 6.82715 6.3911C6.90709 6.34197 6.94872 6.34197 7.08225 6.04229C7.21577 5.74261 7.18832 5.52895 7.40968 5.27537C7.62638 5.02027 7.98714 4.67135 8.12431 4.58372C8.26148 4.49609 9.35065 3.93057 10.4911 4.47005C10.7661 4.44087 10.9721 3.98893 10.9721 3.98893L10.972 3.98903Z" fill="#D2A83E"/>
<path fill-rule="evenodd" clip-rule="evenodd" d="M6.85005 3.77983C6.84892 3.76828 6.84637 3.75691 6.84245 3.74599C6.83178 3.72352 6.81778 3.70278 6.80091 3.6845C6.80091 3.6845 6.53042 3.63536 6.39365 3.65066C6.15385 3.6768 5.93715 3.97343 5.83574 4.1256C5.73433 4.27777 5.6083 4.51281 5.47154 4.63428C5.47303 4.62245 5.47031 4.61047 5.46384 4.60045C5.46384 4.60045 5.47154 4.61119 5.45624 4.62659C5.44094 4.64198 5.44084 4.64958 5.44854 4.65698L5.47164 4.67998C5.47924 4.67998 5.69138 4.58464 5.98031 4.31526C6.28768 4.03402 6.52282 3.88975 6.64581 3.84031C6.7114 3.81244 6.77995 3.79215 6.85015 3.77983H6.85005Z" fill="#C29637"/>
<path fill-rule="evenodd" clip-rule="evenodd" d="M12.097 2.62427C12.097 2.62427 12.0478 2.68566 11.9863 2.75334C11.8495 2.89781 11.6712 3.06061 11.519 3.22818C11.3747 3.38805 11.2118 3.51256 11.0288 3.72156C10.8458 3.93056 10.6337 4.16256 10.58 4.23024C10.5309 4.29791 10.4925 4.40854 10.4925 4.46538C10.4663 4.44694 10.4356 4.42698 10.4356 4.42698C10.4486 4.45111 10.464 4.4738 10.4817 4.49466C10.5201 4.54845 10.58 4.61623 10.6108 4.65757C10.6486 4.71019 10.6757 4.76969 10.6906 4.83273C10.7091 4.83577 10.8274 4.85887 10.975 4.61603C11.1226 4.37319 11.3161 4.10735 11.3161 4.10735L11.6235 3.65084L11.8172 3.26364L12.0603 2.83023L12.0973 2.62427H12.097Z" fill="#AC8132"/>
<path fill-rule="evenodd" clip-rule="evenodd" d="M12.412 2.31384C12.412 2.31384 12.226 2.46581 12.1538 2.55699C12.0815 2.64817 11.9106 2.88747 11.9106 2.88747L11.9721 2.87977L12.2841 2.60319L12.4057 2.38648L12.4119 2.31425L12.412 2.31384Z" fill="#A88F33"/>
<path fill-rule="evenodd" clip-rule="evenodd" d="M12.355 14.5273C12.355 14.5273 12.352 14.4012 12.4227 14.3259C12.4949 14.2506 12.6778 14.1399 12.8561 13.725C13.0344 13.31 13.0543 13.2163 13.0543 13.2163C13.0543 13.2163 12.7346 13.4898 12.5376 13.5544C12.5837 13.459 12.6098 13.3915 12.6329 13.3422C12.6068 13.3192 12.4962 13.2931 12.4854 13.2808C12.5468 13.2193 12.5806 13.0687 12.7052 12.9688C12.865 12.8472 13.157 12.6383 13.3839 12.4521C13.6109 12.2659 14.057 11.8328 14.114 11.7068C14.1478 11.7559 14.1554 11.7866 14.1554 11.7866C14.1554 11.7866 13.9311 12.0787 13.8143 12.2646C13.7113 12.4245 13.719 12.5151 13.719 12.5151L13.9311 12.424C13.9311 12.424 13.9925 12.6514 13.7144 12.9973C13.836 12.9512 13.885 12.9788 13.9541 12.9403C13.8403 13.0127 13.6836 13.111 13.5361 13.3814C13.3916 13.6519 13.1949 13.967 12.863 14.1637C12.5402 14.3711 12.3542 14.5263 12.3542 14.5263L12.355 14.5273Z" fill="#A67A2E"/>
<path fill-rule="evenodd" clip-rule="evenodd" d="M11.522 4.14889C11.522 4.14889 11.396 4.41158 11.3776 4.61602C11.3745 4.66526 11.3622 4.70365 11.3622 4.76049C11.3591 4.94335 11.3729 5.14779 11.3318 5.24302C11.3164 5.20463 11.3087 5.17849 11.2933 5.16319C11.2703 5.22772 11.2287 5.42902 11.1949 5.5043C11.1796 5.45516 11.1458 5.28456 11.1489 5.08326C11.152 4.88196 11.1565 4.84346 11.1565 4.80202C11.1489 4.86342 11.1074 4.94649 11.092 4.99563C11.069 4.95419 11.0428 4.90039 11.012 4.85582C10.9936 4.88621 10.9706 4.93109 10.9506 4.95419C10.9475 4.93575 10.9399 4.88652 10.9352 4.81742C10.9322 4.73749 10.9275 4.63456 10.9322 4.61298C10.9398 4.57155 11.0044 4.40864 11.1412 4.25952C11.3041 4.08121 11.4717 3.73859 11.5208 3.63252C11.5699 3.52645 11.7789 3.08545 11.7789 3.08545H11.9388L11.7067 3.61408C11.7067 3.61408 11.5669 3.90301 11.4947 4.00918C11.4224 4.11535 11.2703 4.41958 11.2026 4.53791C11.2517 4.47338 11.2933 4.43954 11.3425 4.37805C11.3901 4.33499 11.5222 4.14909 11.5222 4.14909L11.522 4.14889Z" fill="#8C6228"/>
<path fill-rule="evenodd" clip-rule="evenodd" d="M12.4153 2.29382C12.3892 2.3742 12.3479 2.44882 12.2937 2.51367C12.1984 2.62744 11.994 2.7795 11.8942 2.90087C11.803 3.0192 11.6206 3.34197 11.7035 3.72462C11.7339 3.64165 11.7911 3.47722 11.9433 3.29122C12.0955 3.10521 12.2584 2.89165 12.3384 2.72571C12.4182 2.55814 12.429 2.42603 12.429 2.42603L12.4594 2.38764L12.4409 2.3L12.4148 2.29382H12.4153Z" fill="#CBA94C"/>
<path fill-rule="evenodd" clip-rule="evenodd" d="M15.5274 12.4878C15.5274 12.4878 15.4659 12.3204 15.4475 12.1682C15.4291 12.016 15.4779 11.9858 15.4214 11.8117C15.3875 11.7056 15.3261 11.7205 15.3107 11.7056C15.2953 11.6907 15.2846 11.5305 15.2876 11.4428C15.2907 11.3552 15.2846 11.2415 15.2692 11.1923C15.2462 11.1738 15.2308 11.1584 15.197 11.0448C15.1586 10.931 15.1401 10.8742 15.1217 10.8404C15.1032 10.8067 15.0493 10.7759 15.0493 10.7421C15.0493 10.6744 15.1108 10.6391 15.1108 10.6205C15.1078 10.5821 15.0617 10.6129 15.0493 10.6021C15.034 10.5836 15.0878 10.473 15.0679 10.4576C15.0602 10.45 15.0064 10.5145 14.9925 10.4961C14.9771 10.4775 14.9587 10.2947 14.931 10.1733C14.905 10.055 14.8772 9.96897 14.8742 9.93361C14.8711 9.89978 14.662 9.30347 14.6114 9.159C14.5706 9.03693 14.5362 8.91278 14.5084 8.78709C14.493 8.71486 14.4823 8.56725 14.4746 8.58265C14.4669 8.59805 14.4716 8.67332 14.4592 8.67028C14.4485 8.66714 14.4101 8.40445 14.3978 8.36291C14.3871 8.32137 14.3224 8.18055 14.3066 8.07863C14.2912 7.9756 14.2575 7.70662 14.2344 7.52376C14.2113 7.3409 14.2006 7.26562 14.2006 7.21983C14.2043 7.10783 14.1982 6.99571 14.1821 6.8848C14.1517 6.69109 14.0909 6.45595 14.0377 6.31929C13.9347 6.06105 13.6611 5.40021 13.6122 5.23578C13.6122 5.19424 13.6659 5.21734 13.6659 5.21734C13.6659 5.21734 13.7996 5.55237 13.8979 5.81051C13.9933 6.06875 14.084 6.29619 14.1071 6.31929C14.1255 6.34229 14.27 6.59586 14.3345 7.01083C14.399 7.42579 14.422 7.80844 14.4605 8.06354C14.479 8.18511 14.4944 8.31408 14.5328 8.44315C14.5742 8.58305 14.6387 8.72752 14.7233 8.94878C14.7956 9.13479 14.8494 9.28999 14.8785 9.42372C14.9124 9.59433 14.9124 9.7234 14.9323 9.80799C14.9509 9.88022 14.9784 10.0246 15.0431 10.2335C15.1077 10.4424 15.2028 10.7115 15.2674 10.8789C15.3935 11.214 15.4497 11.4937 15.4688 11.6428C15.4856 11.7965 15.5425 12.3283 15.5271 12.488L15.5274 12.4878Z" fill="#A88F33"/>
<path fill-rule="evenodd" clip-rule="evenodd" d="M12.4229 2.27533L12.4152 2.29377C12.4152 2.29377 12.4382 2.30147 12.4337 2.33226C12.434 2.3744 12.4314 2.41651 12.426 2.45829C12.4184 2.51209 12.403 2.55353 12.3999 2.58736C12.3999 2.6596 12.4107 2.74257 12.3088 2.94854C12.2784 3.00537 12.2596 3.05451 12.2442 3.08834C12.2058 3.17132 12.1981 3.18368 12.1643 3.22207C12.2181 3.19168 12.4118 3.07011 12.5101 3.08834C12.4425 3.12674 12.3395 3.20212 12.2749 3.30049C12.2903 3.30353 12.3549 3.31589 12.4573 3.30049C12.6279 3.27435 12.8184 3.21285 12.9859 3.22511C13.1689 3.23585 13.0966 3.00537 13.0966 3.00537L12.8855 2.54127L12.486 2.26013L12.4229 2.27543V2.27533Z" fill="#BE9C44"/>
<path fill-rule="evenodd" clip-rule="evenodd" d="M13.4649 5.75183C13.4649 5.75183 13.2866 5.57353 13.2144 4.96162C13.1421 4.34687 13.1575 3.44197 13.1575 3.44197L13.0131 3.0885C13.0131 3.0885 12.9827 2.85336 12.907 2.76583C12.8313 2.6783 12.6827 2.53069 12.615 2.45846C12.5474 2.38622 12.4706 2.28785 12.4245 2.27245C12.4475 2.23405 12.5505 2.01735 12.9454 2.01431C13.3403 2.01127 13.4621 2.23102 13.5033 2.31095C13.5445 2.39088 13.7308 2.73645 13.7999 3.39496C13.8644 4.05267 13.8675 4.1019 13.8568 4.32934C13.8491 4.45537 13.8076 4.74735 13.7352 5.05928C13.6692 5.3237 13.5969 5.61881 13.4647 5.75244L13.4649 5.75183Z" fill="#A17C34"/>
<path fill-rule="evenodd" clip-rule="evenodd" d="M12.9056 6.2759C12.965 6.28019 13.0244 6.2668 13.0762 6.23741C13.133 6.23437 13.339 6.2605 13.4973 6.0592C13.508 6.1052 13.5358 6.22981 13.4634 6.34044C13.5019 6.30194 13.5588 6.28664 13.5665 6.2759C13.5695 6.33274 13.6233 6.5079 13.3958 6.9336C13.4572 6.86603 13.5295 6.86907 13.594 6.86137C13.5972 6.9413 13.6401 7.21017 13.5264 7.35474C13.4512 7.45311 13.3282 7.42231 13.3282 7.42231C13.33 7.40084 13.33 7.37925 13.3282 7.35778C13.3251 7.31624 13.3097 7.27481 13.3206 7.24715C13.2611 7.22001 13.207 7.18251 13.1607 7.13642C13.027 7.01039 12.8533 6.79531 12.841 6.63545C12.8256 6.45715 12.9855 6.41875 12.9855 6.41875C12.9721 6.40677 12.9607 6.39275 12.9517 6.37721C12.944 6.35118 12.9363 6.30964 12.9056 6.2759Z" fill="#8C6228"/>
<path fill-rule="evenodd" clip-rule="evenodd" d="M11.7205 4.34248C11.7205 4.34248 11.7128 4.33175 11.6713 4.38088C11.679 4.33175 11.6867 4.28555 11.6898 4.24097C11.7094 4.1997 11.7348 4.16143 11.7651 4.1273C11.742 4.1733 11.7266 4.21483 11.7266 4.21483C11.7266 4.21483 11.7836 4.10876 11.8665 4.04423C11.9234 3.99813 11.9956 3.97666 12.0263 3.9336C12.0601 3.8875 12.0524 3.8798 12.0601 3.8721C12.0601 3.8721 12.1355 3.82297 12.2508 3.6784C12.2661 3.65996 12.2892 3.64 12.3046 3.62156C12.3306 3.61083 12.3921 3.58317 12.4644 3.54619C12.5397 3.50475 12.6242 3.44792 12.6765 3.42462C12.7794 3.37852 12.8886 3.38318 12.9393 3.31085C12.9777 3.30011 13.0191 3.18482 13.0115 3.08655C13.0683 3.10955 13.3603 3.29089 13.4603 3.68742C13.5325 3.96865 13.4034 4.40205 13.3496 4.61116C13.2958 4.82026 13.2882 4.97537 13.2128 5.0706C13.1175 5.19673 12.8102 5.37453 12.7348 5.46257C12.6703 5.5348 12.4767 5.71766 12.4843 5.84977C12.492 5.94814 12.6134 6.00174 12.6396 6.02038C12.6659 6.03902 12.6657 6.06191 12.7149 6.05077C12.7641 6.03963 12.7825 6.01693 12.8025 6.01693C12.8255 6.01997 12.8255 6.02463 12.8363 6.02463C12.844 6.0244 12.8518 6.02335 12.8594 6.02149C12.8594 6.02149 12.8517 6.1614 12.5243 6.20385C12.5012 6.20699 12.4782 6.21459 12.449 6.21925C12.4875 6.20081 12.5105 6.20081 12.552 6.14397C12.5059 6.13628 12.3737 6.12858 12.3399 6.11784C12.3506 6.0994 12.3859 6.05016 12.4151 6.02716C12.4413 6.00417 12.4121 5.99677 12.3891 6.00873C12.3495 6.03566 12.3115 6.06489 12.2753 6.09626C12.2369 6.1301 12.2031 6.17619 12.1416 6.21783C12.1232 6.15633 12.1262 6.03952 12.1985 5.95503C12.18 5.95807 12.1446 6.01187 12.1109 6.00113C12.1048 5.94507 12.1084 5.88838 12.1216 5.83356C12.1401 5.76437 12.24 5.643 12.24 5.643L12.7225 4.78075L12.8254 4.12761L11.7205 4.34228V4.34248Z" fill="#92723A"/>
<path fill-rule="evenodd" clip-rule="evenodd" d="M11.6943 4.37932C11.6943 4.37932 11.6682 4.39776 11.7204 4.43311C11.7127 4.44385 11.6943 4.48225 11.6712 4.50839C11.6452 4.53878 11.6174 4.55762 11.6067 4.58376C11.5837 4.63756 11.5652 4.67443 11.5652 4.69753C11.5652 4.72063 11.5575 4.86814 11.493 4.96337C11.4699 4.99721 11.4438 5.05404 11.4253 5.09244C11.3869 5.16001 11.3531 5.21401 11.3454 5.2444C11.3301 5.2982 11.3193 5.4457 11.3193 5.4457C11.3193 5.4457 11.3532 5.40417 11.3654 5.38887C11.3469 5.42727 11.3269 5.4687 11.2978 5.4995C11.3162 5.4841 11.37 5.4457 11.4607 5.36577C11.5867 5.2598 11.7835 5.0815 12.0233 4.94027C11.9509 4.96641 11.8895 4.96641 11.8404 4.97411C11.8788 4.93571 12.2246 4.52997 12.406 4.49157C12.417 4.47761 12.4224 4.46008 12.4213 4.44233L12.266 4.42703L11.9509 4.49461L11.9049 4.25146L11.6943 4.37901V4.37932Z" fill="#B18E3E"/>
<path fill-rule="evenodd" clip-rule="evenodd" d="M12.1955 5.76257C12.1955 5.76257 12.1539 5.804 12.1155 5.90703C12.086 5.87617 12.0606 5.84152 12.0401 5.804C11.9833 5.70877 11.8958 5.5873 11.6913 5.6565C11.6883 5.59196 11.6836 5.55812 11.6913 5.51203C11.7252 5.50443 11.8281 5.42146 11.931 5.29999C12.0034 5.21701 12.0709 5.12168 12.117 5.00031C12.1474 4.97721 12.2 4.93882 12.269 4.89424C12.3674 4.82667 12.4857 4.73437 12.5041 4.63144C12.458 4.64988 12.3597 4.69598 12.2121 4.68838C12.269 4.66224 12.3565 4.63458 12.3458 4.52081C12.3689 4.50541 12.3873 4.49468 12.3873 4.49468C12.37 4.4889 12.3518 4.48629 12.3335 4.48698C12.3304 4.47624 12.3258 4.46094 12.2997 4.46854C12.2736 4.47614 12.2693 4.47624 12.2659 4.48698C12.2551 4.49012 12.2198 4.48698 12.1936 4.50552C12.1675 4.52406 12.0953 4.58535 12.0676 4.59609C12.0783 4.57765 12.0936 4.55009 12.0936 4.55009C12.0936 4.55009 12.0184 4.55769 11.9646 4.58048C11.8662 4.61432 11.7525 4.67582 11.6372 4.73569C11.648 4.71725 11.6526 4.7053 11.6602 4.70185C11.6678 4.69841 11.6864 4.69426 11.6864 4.69112C11.6864 4.68797 11.6788 4.66072 11.6833 4.64968C11.7178 4.57666 11.7585 4.50674 11.8049 4.44068C11.8587 4.36834 11.8694 4.26541 11.8694 4.26541L12.1046 4.14708L12.7654 3.99512L13.1943 4.02125L13.1405 4.31789L12.8872 4.83579L12.6705 5.30758L12.423 5.59662L12.1956 5.76257H12.1955Z" fill="#543E26"/>
<path fill-rule="evenodd" clip-rule="evenodd" d="M13.2667 4.47881C13.2667 4.47881 13.0084 4.79844 12.9362 4.84768C12.9823 4.74931 13.2667 4.16373 13.3696 4.00083C13.3466 3.98239 13.3158 3.98239 13.388 3.6969C13.3266 3.84127 13.3051 3.91664 13.2544 3.95504C13.2037 3.99343 13.1975 3.98117 13.1632 3.98117C13.1697 3.96948 13.1723 3.95606 13.1708 3.94278C13.1708 3.94278 12.9541 3.91664 12.8061 3.91664C12.6581 3.91664 12.3651 3.99657 12.2021 4.06111C12.073 4.1149 12.0008 4.1149 11.9547 4.14864C11.9086 4.18704 11.8824 4.22857 11.8593 4.23931C11.8409 4.25005 11.7534 4.27771 11.7333 4.30689C11.7149 4.33728 11.6842 4.37142 11.6842 4.37912C11.6842 4.38682 11.6765 4.39766 11.6996 4.38986C11.7072 4.38682 11.7641 4.35602 11.8286 4.31762C11.9162 4.26849 12.0222 4.21165 12.0991 4.17782C12.3189 4.09018 12.3881 4.10558 12.4863 4.08714C12.5893 4.06871 12.7369 4.02565 12.8352 4.02565C12.9335 4.02261 13.1196 4.02565 13.1626 4.03335C13.1442 4.04875 13.1288 4.06719 13.1365 4.13172C13.1365 4.15016 13.1211 4.17012 13.1061 4.21469C13.0601 4.34072 12.9724 4.54972 12.9237 4.6558C12.8561 4.80016 12.7793 4.92163 12.7414 4.99691C12.7034 5.07218 12.6198 5.27044 12.537 5.37651C12.4542 5.48258 12.411 5.54712 12.385 5.57022C12.3591 5.59332 12.1729 5.72998 12.1868 5.77922C12.2206 5.76848 12.4343 5.68804 12.5894 5.51338C12.7445 5.33872 12.7754 5.23215 12.8968 5.13681C13.0181 5.04148 13.1135 4.88172 13.1703 4.74961C13.2179 4.62662 13.2072 4.58822 13.2671 4.47911L13.2667 4.47881Z" fill="#806031"/>
<path fill-rule="evenodd" clip-rule="evenodd" d="M7.70146 6.86455C7.70146 6.86455 7.66762 7.00436 7.59073 7.07355C7.51545 7.14123 7.38172 7.19958 7.36642 7.31335C7.34798 7.42702 7.50015 7.48396 7.50015 7.48396C7.50015 7.48396 7.41707 7.62073 7.41707 7.72366C7.41707 7.82973 7.41404 7.84969 7.42477 7.9511C7.41259 7.95894 7.40222 7.9693 7.39438 7.98149C7.39438 7.98149 7.40198 8.07986 7.47736 8.14126C7.55273 8.20265 7.61717 8.23963 7.65556 8.22423C7.66143 8.23676 7.66657 8.24961 7.67096 8.26273C7.67096 8.26273 7.7279 8.11826 7.7663 7.99223C7.8047 7.86316 7.83854 7.8815 7.85383 7.70785C7.86913 7.53421 8.0362 7.23605 8.0362 7.23605L8.15017 6.98126L7.96427 6.83679L7.70146 6.86445V6.86455Z" fill="#B6903C"/>
<path fill-rule="evenodd" clip-rule="evenodd" d="M8.04742 7.11499C8.00908 7.15434 7.9737 7.19647 7.94155 7.24102C7.89241 7.30869 7.85401 7.37009 7.78178 7.39633C7.70954 7.42257 7.66345 7.42236 7.668 7.4947C7.67256 7.56703 7.74024 7.59763 7.77864 7.63451C7.82018 7.6729 7.85401 7.73744 7.83557 7.80977C7.85857 7.79903 7.90011 7.78667 7.93851 7.7037C7.97691 7.62073 8.24548 7.11509 8.24548 7.11509H8.04742V7.11499Z" fill="#685026"/>
<path fill-rule="evenodd" clip-rule="evenodd" d="M9.10647 5.94843C9.10647 5.94843 9.12947 5.88704 9.10647 5.84246C9.08337 5.79637 8.94357 5.78097 8.87437 5.72869C8.80214 5.6749 8.7145 5.63751 8.64227 5.66112C8.65301 5.63498 8.69607 5.57805 8.66071 5.56579C8.62687 5.55505 8.50095 5.61188 8.46711 5.63802C8.43327 5.66416 8.35638 5.69485 8.34108 5.71339C8.32578 5.73193 8.29954 5.76719 8.28414 5.75179C8.26875 5.74105 8.26115 5.71339 8.23501 5.72869C8.20887 5.74399 8.08305 5.84702 8.05985 5.907C8.03665 5.96697 7.98447 6.1007 7.82775 6.25276C7.67102 6.40483 7.60335 6.5033 7.64944 6.56014C7.69554 6.61697 7.71712 6.57553 7.72482 6.62467C7.73074 6.6729 7.72813 6.7218 7.71712 6.76914C7.69868 6.84907 7.66798 6.92434 7.70942 6.93974C7.81549 6.97358 7.91852 6.90935 7.94152 6.929C7.98761 6.97044 7.91538 7.11956 8.02449 7.14874C8.13522 7.17913 8.24433 7.1226 8.24433 7.1226L8.64693 6.9059L9.03424 6.70156L9.2324 6.3096L9.12612 5.98227L9.10586 5.94843H9.10647Z" fill="#D4B968"/>
<path fill-rule="evenodd" clip-rule="evenodd" d="M8.72646 6.88441C8.72646 6.88441 8.65878 6.78148 8.74185 6.69071C8.82493 6.59993 8.94315 6.56164 8.98925 6.5048C8.98047 6.49398 8.9687 6.48598 8.95541 6.48181C8.98601 6.42705 9.03269 6.38302 9.08914 6.35568C9.06614 6.33268 9.03534 6.31424 9.00161 6.31424C8.92623 6.31424 8.88004 6.36034 8.81095 6.36034C8.74337 6.36034 8.73567 6.3265 8.73567 6.3265C8.73567 6.3265 8.84944 6.31576 8.8386 6.26501C8.82786 6.21121 8.80821 6.21121 8.80821 6.21121C8.80821 6.21121 9.02795 6.12003 9.06634 6.0714C9.10474 6.02278 9.10018 5.96533 9.10788 5.94234C9.13391 5.94234 9.28608 5.8624 9.34757 5.89624C9.40906 5.93008 9.36601 6.02227 9.36601 6.02227C9.36601 6.02227 9.55211 5.88236 9.64693 5.74519C9.7299 5.75289 9.7685 5.68835 9.82929 5.68835C9.90466 5.68835 10.023 5.79128 10.046 6.01102C10.0614 6.13705 10.0844 6.20929 10.0614 6.43217C10.0506 6.55819 10.0537 6.82727 10.0918 6.9608C10.1178 7.06687 10.1793 7.05613 10.1793 7.05613C10.1699 7.08845 10.1512 7.1173 10.1255 7.1391C10.084 7.1775 10.0794 7.27901 10.084 7.3174C10.0901 7.34548 10.0978 7.37318 10.1071 7.40038C10.1071 7.40038 10.0579 7.45721 10.0456 7.49571C10.0348 7.5341 9.98419 7.56024 9.94721 7.56024C9.91023 7.56024 9.92877 7.5571 9.87964 7.56024C9.8305 7.56338 9.8151 7.57098 9.78431 7.56024C9.75351 7.5495 9.73051 7.53714 9.74287 7.43867C9.75361 7.3403 9.36327 7.11134 9.36327 7.11134L8.72504 6.8839L8.72646 6.88441Z" fill="#CCA849"/>
<path fill-rule="evenodd" clip-rule="evenodd" d="M7.99352 7.85568C7.99352 7.85568 8.13333 8.04169 8.70816 8.04169C8.9817 8.04169 9.07703 8.01555 9.13367 8.00015C9.19516 7.98475 9.42564 7.89418 9.65774 7.62054C9.86675 7.37315 9.82065 7.27173 9.82065 7.27173L9.69908 7.2533L9.30397 7.30709L8.13485 7.80503L7.99301 7.85568H7.99352Z" fill="#585136"/>
<path fill-rule="evenodd" clip-rule="evenodd" d="M8.42207 7.90177C8.42207 7.90177 7.92413 8.0125 7.92413 7.69744C7.92413 7.39008 8.23151 7.06732 8.3084 7.01048C8.38833 6.95355 8.5789 6.88892 8.5789 6.88892H9.03844L9.12597 7.12101L9.08758 7.62197L8.42207 7.90167V7.90177Z" fill="#252211"/>
<path fill-rule="evenodd" clip-rule="evenodd" d="M8.8818 6.98283C8.8818 6.98283 8.78657 6.8952 8.56987 7.01323C8.35316 7.13125 8.1779 7.37795 8.16716 7.60195C8.15642 7.80011 8.33007 7.94772 8.60056 7.95542C8.80187 7.96302 8.92334 7.94002 8.98483 7.92503C8.96944 7.90659 8.8895 7.8067 8.8895 7.8067L8.8819 6.98293L8.8818 6.98283Z" fill="#C3B378"/>
<path fill-rule="evenodd" clip-rule="evenodd" d="M8.7882 7.03183C8.7882 7.03183 8.7652 7.01339 8.69702 7.05027C8.64019 7.08066 8.55722 7.161 8.49269 7.21783C8.45115 7.25166 8.42501 7.26696 8.40151 7.2931C8.30618 7.40687 8.22624 7.59286 8.27244 7.68505C8.31864 7.77724 8.4707 7.88331 8.858 7.81108L8.78709 7.03193L8.7882 7.03183Z" fill="#E6D89C"/>
<path fill-rule="evenodd" clip-rule="evenodd" d="M8.66207 7.22251C8.66207 7.22251 8.60058 7.31785 8.60058 7.47002C8.60058 7.62523 8.68821 7.87263 9.01097 7.89107C9.25836 7.90647 9.4243 7.53455 9.60412 7.39008C9.74089 7.27945 9.82386 7.27631 9.82386 7.27631C9.82386 7.27631 9.68405 7.12434 9.31064 6.9275C8.94178 6.72923 8.52835 6.70309 8.30396 7.00743C8.41002 6.99973 8.75274 6.9121 8.75274 6.9121L8.9203 6.96589L8.66207 7.22262V7.22251Z" fill="#252211"/>
<path fill-rule="evenodd" clip-rule="evenodd" d="M9.14476 7.42387C9.13402 7.40087 9.12632 7.37008 9.17089 7.36248C9.21546 7.35488 9.23541 7.35934 9.25081 7.39287C9.2662 7.4264 9.28119 7.45437 9.2584 7.46824C9.23541 7.4805 9.17545 7.46824 9.14466 7.42367L9.14476 7.42387ZM9.07254 7.20717C9.07254 7.20717 9.05714 7.21791 9.06484 7.19643C9.06788 7.1704 9.08793 7.1242 9.13706 7.13504C9.18618 7.14588 9.17555 7.19958 9.16745 7.21497C9.15934 7.23037 9.11832 7.25641 9.08753 7.24537C9.08362 7.24437 9.08001 7.24246 9.07698 7.23981C9.07395 7.23715 9.07159 7.23382 9.07009 7.23007C9.06859 7.22633 9.06799 7.22229 9.06835 7.21828C9.0687 7.21426 9.07 7.21039 9.07213 7.20697L9.07254 7.20717Z" fill="#6F674D"/>
<path fill-rule="evenodd" clip-rule="evenodd" d="M4.91251 7.30538C4.91251 7.30538 5.03408 7.39656 5.1753 7.39301C5.31511 7.38987 5.49494 7.2455 5.57791 7.15321C5.62704 7.09942 5.66909 7.04258 5.71468 6.998C5.75317 6.95961 5.77921 6.94117 5.79765 6.91503C5.82379 6.88464 5.85144 6.8275 5.86532 6.80896C5.83149 6.8351 5.78235 6.8813 5.73159 6.91199C5.68246 6.94238 5.57639 6.99952 5.53333 7.01492C5.4919 7.03032 5.06153 7.25807 5.06153 7.25807L4.91251 7.30538Z" fill="#AC924C"/>
<path fill-rule="evenodd" clip-rule="evenodd" d="M5.09799 6.16982C5.09799 6.16982 5.16556 6.12372 5.29625 6.09444C5.42228 6.06405 5.67586 6.04065 5.67586 6.04065L5.88486 6.13183L5.96784 6.4469L5.81587 6.77434L5.62227 6.89591L5.40243 6.54244L5.0985 6.17043L5.09799 6.16982Z" fill="#9F8E57"/>
<path fill-rule="evenodd" clip-rule="evenodd" d="M4.82459 6.45109L4.75226 6.50509C4.75226 6.50509 4.7708 6.47125 4.7861 6.36832C4.80139 6.26538 4.88143 6.01484 4.99824 5.87037C5.11505 5.7259 5.11201 5.7336 5.11201 5.7336C5.10126 5.73163 5.09022 5.73198 5.07961 5.73462C5.06901 5.73726 5.05909 5.74212 5.05052 5.7489C5.06592 5.71486 5.16429 5.59328 5.26266 5.5325C5.36103 5.47171 5.39943 5.45256 5.50236 5.5021C5.60529 5.55164 5.63143 5.57738 5.7068 5.57434C5.78218 5.5713 5.84661 5.49136 5.84661 5.49136C5.84661 5.49136 5.86201 5.5405 5.80518 5.65427C5.74834 5.76805 5.52394 6.00005 5.52394 6.00005L5.0567 6.31969L4.82459 6.45139V6.45109Z" fill="#EAC970"/>
<path fill-rule="evenodd" clip-rule="evenodd" d="M5.1703 6.13145C5.1703 6.13145 5.50847 6.17754 5.6114 6.08231C5.61444 6.09305 5.6268 6.09305 5.6268 6.10075C5.62597 6.10655 5.62327 6.11192 5.6191 6.11605C5.6303 6.11426 5.6416 6.11324 5.65294 6.11301C5.66647 6.11704 5.68039 6.11962 5.69447 6.12071C5.70581 6.12046 5.71712 6.11941 5.72831 6.11757C5.72724 6.1252 5.72465 6.13255 5.72068 6.13916C5.71671 6.14578 5.71145 6.15153 5.70521 6.15606C5.72061 6.15606 5.73561 6.1591 5.73561 6.17136C5.73561 6.18362 5.73864 6.2206 5.72021 6.2283C5.70493 6.23252 5.68867 6.23141 5.67411 6.22516C5.67533 6.25425 5.68323 6.28268 5.69721 6.30823C5.7276 6.36507 5.79244 6.4298 5.87957 6.41116C5.87957 6.41116 5.92556 6.52179 5.73196 6.76767C5.70592 6.80151 5.67816 6.8476 5.64443 6.886C5.6311 6.91506 5.62091 6.94545 5.61403 6.97667C5.61403 6.97667 5.94147 6.85064 6.03518 6.56323C6.13051 6.27429 6.14895 5.99002 6.13051 5.72418C6.12737 5.64881 6.11511 5.59511 6.09667 5.55661C6.05058 5.46128 5.92141 5.47668 5.86923 5.53048C5.79386 5.60585 5.66783 5.79327 5.49266 5.92234C5.31436 6.05141 5.30676 6.07431 5.16989 6.13145H5.1703Z" fill="#D7BC6B"/>
<path fill-rule="evenodd" clip-rule="evenodd" d="M4.76465 6.54643C4.76465 6.54643 4.70011 6.58482 4.66628 6.72878C4.63244 6.87629 4.69667 7.05612 4.73385 7.11295C4.77103 7.16979 4.85542 7.32509 5.03049 7.33279C5.07382 7.33256 5.11667 7.32368 5.15652 7.30665C5.21763 7.27863 5.27496 7.24299 5.32713 7.20058C5.4025 7.14375 5.4639 7.09461 5.4562 7.08995C5.43776 7.08225 4.99209 6.71339 4.99209 6.71339L4.82452 6.52637L4.76455 6.54663L4.76465 6.54643Z" fill="#585136"/>
<path fill-rule="evenodd" clip-rule="evenodd" d="M5.18605 7.15804C5.18605 7.15804 5.27673 7.15044 5.33053 7.11661C5.38432 7.08277 5.01544 6.71704 5.01544 6.71704L5.04158 7.11215L5.18605 7.15804Z" fill="#453A25"/>
<path fill-rule="evenodd" clip-rule="evenodd" d="M4.79362 6.51856C4.79362 6.51856 4.74752 6.6062 4.74752 6.6293C4.73982 6.70457 4.76292 6.94123 4.78136 7.0165C4.7998 7.09644 4.89969 7.2178 5.02886 7.2178C5.10869 7.2178 5.21942 7.16867 5.21942 7.15641C5.21942 7.14101 5.10565 7.12602 5.07495 7.06878C5.05652 7.03838 5.04882 6.96281 5.04456 6.88642C5.04152 6.83729 5.04152 6.78349 5.05996 6.76485C5.1015 6.71875 5.10909 6.58654 5.10909 6.58654L5.2566 6.3125H5.06259L4.8305 6.45697L4.79362 6.51856Z" fill="#84754B"/>
<path fill-rule="evenodd" clip-rule="evenodd" d="M4.73718 6.60326C4.73718 6.60326 4.88914 6.40196 5.02611 6.35576C5.16308 6.30957 5.22437 6.33732 5.22437 6.33732L5.14444 6.54177L5.03067 6.66779L5.03837 6.73233C5.03837 6.73233 5.01983 6.90293 5.1336 7.02126C5.24737 7.13959 5.33186 7.13503 5.38109 7.13503C5.43033 7.13503 5.57165 7.09349 5.64388 6.92289C5.70842 6.76312 5.76221 6.55818 5.63314 6.35272C5.50702 6.14828 5.28424 6.14038 5.24119 6.14038C5.19813 6.14038 4.86007 6.1573 4.73718 6.60296V6.60326Z" fill="#252211"/>
<path fill-rule="evenodd" clip-rule="evenodd" d="M8.63887 7.28699C8.58204 7.26085 8.63583 7.10109 8.69267 7.05185C8.7495 7.00262 8.82174 6.94589 8.94787 6.93808C8.99387 6.93505 9.03844 6.96422 9.03085 6.99502C9.02011 7.05185 8.94017 7.13179 8.86794 7.18862C8.76804 7.26703 8.70341 7.31617 8.63887 7.28699Z" fill="#F7F7E7"/>
<path fill-rule="evenodd" clip-rule="evenodd" d="M5.5653 6.41572C5.60684 6.41268 5.66063 6.44611 5.67137 6.4911C5.68211 6.54023 5.64524 6.63861 5.5653 6.63861C5.50076 6.63861 5.46692 6.55867 5.46692 6.53568C5.46765 6.51676 5.47293 6.49831 5.48232 6.48188C5.48536 6.47722 5.49306 6.42342 5.5653 6.41572Z" fill="#F8F6DE"/>
<path fill-rule="evenodd" clip-rule="evenodd" d="M4.96581 6.45105C4.96581 6.45105 4.85974 6.50018 4.8106 6.60301C4.7755 6.67894 4.76487 6.76391 4.78021 6.84614C4.78791 6.88454 4.82631 6.97976 4.85245 7.0136C4.87858 7.04743 4.91394 7.07053 4.94008 7.06739C4.96622 7.06425 5.01991 6.99516 5.01991 6.95373C5.01991 6.91229 5.02305 6.73703 5.07371 6.64171C5.11828 6.54648 4.96612 6.45115 4.96612 6.45115L4.96581 6.45105Z" fill="#D4C38B"/>
<path fill-rule="evenodd" clip-rule="evenodd" d="M4.9812 6.44333C4.96276 6.45407 4.93206 6.46947 4.93966 6.48943C4.94736 6.50786 5.0119 6.51982 5.035 6.5648C5.06113 6.61089 5.06113 6.66002 5.05343 6.68312C5.07351 6.67358 5.09173 6.66055 5.10723 6.64462C5.14107 6.60623 5.1825 6.55406 5.21786 6.55406C5.24096 6.55406 5.26396 6.5648 5.28554 6.5648C5.31937 6.5648 5.35311 6.55406 5.35777 6.5187C5.36537 6.47261 5.29324 6.43107 5.2517 6.43877C5.2594 6.40838 5.27014 6.3635 5.2363 6.33271C5.20246 6.30191 5.09649 6.35581 5.07339 6.3712C5.05029 6.3866 4.9812 6.44343 4.9812 6.44343V6.44333Z" fill="#E2D59D"/>
<path fill-rule="evenodd" clip-rule="evenodd" d="M7.42343 9.67227L7.65087 9.6051L7.7154 9.6512C7.7154 9.6512 7.7614 9.74957 7.83373 9.76183C7.81063 9.81096 7.75066 9.85301 7.7538 9.88786C7.75694 9.92271 7.78764 9.94935 7.78764 9.94935C7.78764 9.94935 7.58319 10.2874 7.9859 10.6281C7.89057 10.6665 7.7692 10.7193 7.70466 10.7497C7.75066 10.7604 7.84903 10.7801 7.89057 10.8174C7.9321 10.8547 7.93211 10.8665 7.9705 10.8896C8.0089 10.9127 8.0319 10.9434 8.0243 10.9572C7.99816 10.9418 7.91053 10.8958 7.89523 10.9387C7.87993 10.9817 7.51562 10.9649 7.51562 10.9649L6.90087 11.0832C6.90087 11.0832 6.92387 11.0217 6.85934 10.9649C6.78406 10.8973 6.69187 10.9679 6.5935 10.8926C6.46443 10.7943 6.45977 10.6805 6.41833 10.6376C6.45977 10.6114 6.54436 10.573 6.74567 10.5464C6.73797 10.531 6.71183 10.4849 6.72723 10.4434C6.74567 10.3896 6.82246 10.3558 6.79946 10.2915C6.8333 10.2838 6.8486 10.2838 6.93319 10.1777C7.01312 10.0716 7.06226 10.0486 7.12375 10.0409C7.18525 10.0332 7.22213 10.0409 7.3359 9.93487C7.41573 9.85959 7.38969 9.79506 7.38969 9.79506C7.38969 9.79506 7.44187 9.77814 7.42353 9.67207L7.42343 9.67227Z" fill="#CBAC5A"/>
<path fill-rule="evenodd" clip-rule="evenodd" d="M6.75188 9.70644C6.75492 9.69104 6.76728 9.68334 6.85025 9.69104C6.93323 9.69874 7.45883 9.64191 7.60178 9.63421C7.74625 9.62347 8.25493 9.63107 8.50243 9.68334C8.74993 9.73561 9.00037 9.7971 9.12174 9.82779C9.24331 9.86163 9.28161 9.87378 9.27695 9.88918C9.27391 9.90458 9.24656 9.91957 9.23085 9.91532C9.21555 9.91228 8.81284 9.7893 8.68843 9.76337C8.56403 9.73743 8.13356 9.66804 7.89821 9.6722C7.67847 9.67534 7.59083 9.66916 7.40493 9.69063C7.21892 9.71373 6.91155 9.74442 6.81935 9.73217C6.72817 9.72143 6.74702 9.72143 6.75168 9.70603L6.75188 9.70644Z" fill="#D6BC6F"/>
<path fill-rule="evenodd" clip-rule="evenodd" d="M7.98898 10.911C7.98898 10.911 8.30405 11.0816 8.41782 11.2906C8.50079 11.4459 8.36869 11.5227 8.36869 11.5227C8.36869 11.5227 8.54699 11.5227 8.52389 11.6211C8.51315 11.6825 8.21652 11.8485 8.01826 11.9361C7.81696 12.0237 7.82466 12.0192 7.72629 12.0345C7.63095 12.0499 7.36968 12.0041 7.31588 12.0805C7.26209 12.157 7.28549 12.2359 7.30048 12.2481C7.31588 12.2589 7.44039 12.2742 7.44039 12.2742C7.44039 12.2742 7.41425 12.3465 7.15612 12.3542C6.89798 12.3619 6.83335 12.3802 6.81795 12.408C6.80255 12.434 6.86708 12.4187 6.98551 12.4384C7.10384 12.4568 7.26979 12.4688 7.26979 12.4688C7.26979 12.4688 7.21599 12.5149 7.07618 12.5517C6.91632 12.5932 6.66578 12.6317 6.59051 12.6778C6.6289 12.7039 6.68584 12.7423 6.71208 12.7453C6.64755 12.7607 6.55677 12.7946 6.54147 12.8068C6.56447 12.8222 6.59527 12.8407 6.59527 12.8407C6.59527 12.8407 6.4661 12.9959 6.39083 13.0344C6.31556 13.0729 5.88215 13.2741 5.73303 13.2357C5.36112 13.1373 5.31503 12.73 5.22435 12.6993C5.08759 12.6532 5.02305 12.7453 4.90158 12.6808C4.95538 12.6424 4.98466 12.6194 5.04149 12.5933C4.98 12.5629 4.66188 12.3612 4.66188 12.3612C4.62862 12.2887 4.5917 12.2179 4.55126 12.1491C4.48976 12.0431 4.39929 11.9016 4.33141 11.7771C4.18391 11.5036 4.17621 11.3776 4.04248 11.2224C4.06558 11.192 4.14541 11.1962 4.14541 11.1962L5.26589 11.5651L7.25267 11.6226L7.76934 10.885L7.98908 10.9111L7.98898 10.911Z" fill="#DFC677"/>
<path fill-rule="evenodd" clip-rule="evenodd" d="M5.04605 12.0359C5.05804 12.0493 5.07202 12.0607 5.08749 12.0697C5.12598 12.0959 5.18282 12.1267 5.22122 12.1727C5.23661 12.1497 5.27501 12.1081 5.34279 12.1727C5.41056 12.2372 5.49475 12.1912 5.54713 12.2065C5.60092 12.2251 5.60396 12.2327 5.60396 12.2327C5.60396 12.2327 5.63436 12.2065 5.70234 12.1789C5.74387 12.1635 5.79301 12.1527 5.8468 12.1374C5.89594 12.1267 5.94973 12.1113 5.98671 12.1113C6.02055 12.1343 6.14192 12.2632 6.62912 12.0729C7.08866 11.8946 7.19463 11.8746 7.27152 11.9022C7.27922 11.8837 7.28692 11.8484 7.40525 11.853C7.40525 11.8039 7.30688 11.6363 7.30688 11.6363L6.76437 11.4504H6.46763L5.57783 11.6133L5.08475 11.8947L5.04636 12.0365L5.04605 12.0359Z" fill="#C4A859"/>
<path fill-rule="evenodd" clip-rule="evenodd" d="M4.74924 11.724C4.74924 11.724 4.75998 11.807 4.88297 11.8946C5.00454 11.9821 5.04273 12.0344 5.04273 12.0344C5.04273 12.0344 5.06583 12.004 5.08427 11.973C5.10271 11.9392 5.11811 11.9008 5.1488 11.89C5.2103 11.8639 5.3501 11.913 5.3809 11.9053C5.40704 11.8977 5.39934 11.8439 5.427 11.8439C5.49153 11.8408 5.53297 11.8854 5.55607 11.8854C5.57917 11.8854 5.6359 11.8823 5.6436 11.8701C5.6513 11.8578 5.65434 11.7302 5.74197 11.6687C5.8373 11.6011 5.95411 11.6303 5.98511 11.6457C5.98511 11.6687 5.98815 11.7256 6.04965 11.7286C6.11114 11.7317 6.11722 11.7209 6.17122 11.7394C6.22522 11.7578 6.28955 11.7363 6.31873 11.8269C6.34487 11.8193 6.40636 11.8116 6.39096 11.724C6.42135 11.701 6.4479 11.6856 6.51253 11.5949C6.52793 11.5719 6.55397 11.5458 6.57403 11.5119C6.62782 11.5119 6.69236 11.5012 6.77837 11.5765C6.75223 11.5949 6.73683 11.6069 6.72923 11.6256C6.75173 11.6479 6.77227 11.672 6.79063 11.6978C6.81373 11.7282 6.82913 11.7655 6.8583 11.7732C6.92284 11.7917 7.02891 11.7655 7.14724 11.7732C7.26101 11.7809 7.35624 11.8223 7.39778 11.8485C7.41318 11.8409 7.41318 11.8377 7.45157 11.8454C7.48997 11.8531 7.51915 11.8562 7.47771 11.8071C7.50071 11.8178 7.52685 11.8409 7.54994 11.8178C7.57304 11.7947 7.59138 11.761 7.65591 11.7533C7.72045 11.7456 7.74355 11.7563 7.76968 11.6887C7.80352 11.6058 7.68671 11.6058 7.68671 11.6058C7.68671 11.6058 7.74051 11.5565 7.80048 11.492C7.87272 11.4244 7.95569 11.3368 7.97565 11.2292C8.00949 11.0309 7.81588 11.0049 7.81588 11.0049L6.87684 11.2938L5.7288 11.2369L4.74984 11.7241L4.74924 11.724Z" fill="#927D49"/>
<path fill-rule="evenodd" clip-rule="evenodd" d="M3.9055 9.01152C3.9055 9.01152 3.87511 9.04992 3.85637 9.14059C3.83763 9.23127 3.84563 9.22053 3.83023 9.28506C3.81483 9.3496 3.62569 9.99202 3.69661 10.2087C3.76752 10.4254 3.89031 10.5054 3.9671 10.6805C3.9825 10.7189 3.99749 10.742 4.0055 10.7759C4.03163 10.8895 4.00864 10.9772 4.03933 11.091C4.05007 11.1293 4.07783 11.1739 4.11927 11.22C4.21045 11.3153 4.35907 11.4059 4.42319 11.4705C4.51377 11.5658 4.64293 11.7595 4.80736 11.7778C4.89499 11.7886 5.0195 11.7517 5.12243 11.6903C5.21361 11.6334 5.26994 11.5535 5.36557 11.508C5.43315 11.4741 5.50538 11.4619 5.56991 11.4465C5.70364 11.4203 5.82511 11.4161 5.89734 11.4311C6.00797 11.4542 6.26925 11.5341 6.41402 11.5341C6.52715 11.5323 6.63964 11.5168 6.74905 11.488C6.96879 11.4235 7.23463 11.3127 7.40989 11.2636C7.51282 11.2332 7.59579 11.2252 7.68039 11.2067C7.82485 11.1729 7.94622 11.1268 8.01542 11.0392C7.96932 10.9854 7.91249 10.9024 7.60501 10.9054C7.2562 10.9131 6.8535 11.1068 6.65524 11.1376C6.45698 11.1684 6.37097 11.1944 6.1496 11.1145C5.9326 11.0337 5.92541 10.9803 5.92541 10.9803C5.92541 10.9803 5.69756 10.821 5.60223 10.4147C5.5069 10.0084 5.60223 9.7124 5.84973 9.43105C5.91426 9.35882 5.89886 9.29428 5.89886 9.29428C5.89886 9.29428 6.06177 9.07454 6.01719 8.86877C5.96806 8.66432 5.65299 8.70586 5.65299 8.70586L3.90561 9.01152H3.9055Z" fill="#6E6342"/>
<path fill-rule="evenodd" clip-rule="evenodd" d="M4.16825 9.69543C4.1547 9.72091 4.14832 9.74959 4.14981 9.7784C4.15285 9.81984 4.16521 9.87363 4.28961 9.9951C4.39569 10.1011 4.37259 10.2194 4.37259 10.2194C4.37259 10.2194 4.42598 10.2301 4.57085 10.1624C4.68462 10.1086 4.72281 10.2039 4.72281 10.2039C4.75593 10.1865 4.79183 10.1751 4.82888 10.1701C4.86246 10.167 4.89496 10.1566 4.92411 10.1397C4.92411 10.1397 5.05784 10.2764 5.17465 10.341C5.28072 10.3979 5.34222 10.4363 5.39449 10.3979C5.44363 10.3641 5.44363 10.2949 5.44049 10.2642C5.4283 10.2358 5.41286 10.209 5.39449 10.1842C5.36066 10.1351 5.30686 10.0782 5.30332 10.0323C5.29562 9.92631 5.38325 9.80019 5.36471 9.76949C5.34617 9.73879 5.27718 9.73109 5.10657 9.79259C4.92989 9.85094 4.16754 9.69574 4.16754 9.69574L4.16825 9.69543Z" fill="#39331F"/>
<path fill-rule="evenodd" clip-rule="evenodd" d="M4.57097 10.3824C4.57097 10.3824 4.48347 10.2995 4.51415 9.89678C4.5513 9.89624 4.5884 9.89984 4.62475 9.90752C4.62475 9.90752 4.67245 10.2195 4.57097 10.3824Z" fill="#292311"/>
<path fill-rule="evenodd" clip-rule="evenodd" d="M3.94705 8.70405C3.95927 8.69501 3.9706 8.68483 3.98089 8.67366C3.9505 8.73049 3.81018 8.95793 3.92395 9.31605C4.03773 9.67256 4.32352 9.93839 4.67547 9.95075C5.02742 9.96311 5.21241 9.79088 5.42395 9.53275C5.50692 9.42982 5.60225 9.30065 5.68675 9.21312C5.81277 9.07626 5.91115 9.03786 5.91115 8.90575C5.91115 8.63526 5.63447 8.51379 5.2272 8.39242C4.81994 8.27106 4.45259 8.28605 4.26203 8.36912C4.07612 8.45969 3.99619 8.55502 3.94695 8.70415L3.94705 8.70405Z" fill="#252211"/>
<path fill-rule="evenodd" clip-rule="evenodd" d="M5.25482 10.5038L5.28521 10.4884C5.28521 10.4884 5.29281 10.3668 5.34204 10.3701C5.39117 10.3778 5.41426 10.4424 5.4096 10.4654C5.40656 10.4884 5.39431 10.5269 5.34508 10.5222C5.28055 10.5238 5.25452 10.5038 5.25452 10.5038H5.25482Z" fill="#3F3824"/>
<path fill-rule="evenodd" clip-rule="evenodd" d="M5.11795 9.98742C5.11795 9.98742 5.14834 9.97668 5.18552 10.0136C5.21592 10.0136 5.34843 9.99815 5.38997 10.0243C5.4315 10.0504 5.44376 10.0734 5.44376 10.0734C5.44376 10.0734 5.28856 10.1072 5.20396 10.0734C5.11795 10.0442 5.11795 9.98742 5.11795 9.98742Z" fill="#2D2815"/>
<path fill-rule="evenodd" clip-rule="evenodd" d="M5.8021 10.0104C5.8021 10.0027 5.71914 9.9459 5.63151 9.92737C5.61612 9.92433 5.61298 9.93507 5.60112 9.93507C5.59343 9.93203 5.59039 9.90894 5.59039 9.90894L5.54055 9.93517C5.54055 9.93517 5.53285 9.9459 5.55898 9.96555C5.58198 9.98399 5.62047 9.99938 5.63121 10.0301C5.64195 10.0608 5.64195 10.0715 5.64661 10.0762C5.64965 10.0792 5.70344 10.0762 5.72957 10.0608C5.7557 10.0454 5.80494 10.0202 5.8018 10.0101L5.8021 10.0104Z" fill="#82764F"/>
<path fill-rule="evenodd" clip-rule="evenodd" d="M5.02612 10.3225C5.02612 10.3225 5.04142 10.2165 5.14445 10.2118C5.25042 10.2041 5.27048 10.3071 5.27048 10.3071L5.20899 10.3686C5.20899 10.3671 5.16289 10.3025 5.02663 10.3225H5.02612Z" fill="#2D2816"/>
<path fill-rule="evenodd" clip-rule="evenodd" d="M5.69463 9.86589C5.69463 9.86589 5.63769 9.9274 5.51177 9.94585C5.50103 9.93044 5.47793 9.89974 5.51177 9.85058C5.54561 9.80143 5.584 9.78602 5.6224 9.80133C5.63934 9.80407 5.65514 9.81161 5.66794 9.82305C5.68074 9.83449 5.69 9.84935 5.69463 9.86589Z" fill="#574F35"/>
<path fill-rule="evenodd" clip-rule="evenodd" d="M5.92634 9.94122C5.92948 9.92582 5.91874 9.92278 5.92634 9.91508C5.93393 9.90739 5.97557 9.89209 5.98327 9.89969C5.98631 9.90283 5.98327 9.91509 5.98327 9.93008C5.98327 9.94507 5.98327 9.96047 5.97557 9.97151C5.96483 9.98691 5.93414 9.9946 5.91874 9.99005C5.90334 9.98549 5.9003 9.96391 5.9003 9.95966C5.9079 9.95662 5.92634 9.94892 5.92634 9.94122ZM6.18873 9.77529C6.18873 9.76759 6.21487 9.7522 6.23026 9.7522C6.25326 9.7522 6.25326 9.77063 6.2564 9.77529C6.264 9.77833 6.264 9.77215 6.2717 9.78603C6.2794 9.79991 6.29024 9.82442 6.28244 9.83982C6.27464 9.85522 6.24404 9.86585 6.23645 9.86282C6.22571 9.85512 6.19187 9.78603 6.18873 9.77529Z" fill="#82764F"/>
<path fill-rule="evenodd" clip-rule="evenodd" d="M5.66055 9.97666C5.66055 9.97666 5.69439 9.98426 5.74049 10.0228C5.72509 10.0335 5.70199 10.0458 5.70199 10.0458C5.70199 10.0458 5.69895 10.0104 5.66055 9.97656V9.97666Z" fill="#6E6342"/>
<path fill-rule="evenodd" clip-rule="evenodd" d="M5.58523 9.63848C5.57753 9.63088 5.60823 9.61244 5.62667 9.61548C5.64511 9.61852 5.65281 9.63088 5.67276 9.63392C5.69272 9.63696 5.69586 9.62622 5.70316 9.61852C5.71045 9.61082 5.737 9.61548 5.74156 9.61852C5.7444 9.62189 5.74697 9.62549 5.74926 9.62926C5.74958 9.62341 5.7511 9.61769 5.75373 9.61246C5.75637 9.60723 5.76005 9.6026 5.76455 9.59886C5.77045 9.59453 5.77725 9.59159 5.78444 9.59026C5.79163 9.58892 5.79904 9.58923 5.80609 9.59116C5.80913 9.6019 5.82453 9.6403 5.82149 9.648C5.81845 9.6557 5.77236 9.66654 5.76455 9.65874C5.77225 9.67728 5.80609 9.71568 5.81065 9.72328C5.81521 9.73088 5.77681 9.74942 5.76151 9.74638C5.74004 9.74486 5.60782 9.66796 5.58482 9.63878L5.58523 9.63848ZM5.78654 9.38336C5.78369 9.37562 5.77825 9.3691 5.77114 9.36492C5.7604 9.36188 5.72504 9.36492 5.72504 9.38336C5.72504 9.4018 5.75544 9.50494 5.78958 9.55864C5.82808 9.61244 5.85411 9.65692 5.88025 9.66928C5.88846 9.67302 5.89778 9.6735 5.90633 9.67065C5.91489 9.66779 5.92204 9.6618 5.92635 9.65388C5.92939 9.64618 5.93709 9.58934 5.93405 9.4556C5.93101 9.32186 5.92635 9.19278 5.91865 9.18508C5.91095 9.17738 5.88025 9.17748 5.86951 9.19278C5.85878 9.20808 5.78958 9.36036 5.78644 9.38336H5.78654Z" fill="#585136"/>
<path fill-rule="evenodd" clip-rule="evenodd" d="M5.65 10.1703C5.65 10.1703 5.5962 10.1365 5.54391 10.1596C5.49477 10.1826 5.49781 10.2733 5.49781 10.2733C5.50886 10.2776 5.52081 10.2792 5.53261 10.2778C5.5444 10.2765 5.5557 10.2723 5.5655 10.2656C5.59934 10.2426 5.6423 10.2042 5.65 10.1704V10.1703Z" fill="#574F35"/>
<path fill-rule="evenodd" clip-rule="evenodd" d="M5.75122 10.2917C5.74818 10.2613 5.72083 10.2613 5.72083 10.2456C5.72271 10.2381 5.72706 10.2314 5.73317 10.2267C5.73929 10.2219 5.74682 10.2194 5.75456 10.2194C5.76996 10.2194 5.78495 10.2379 5.8038 10.2498C5.82224 10.2606 5.84989 10.2802 5.85293 10.3036C5.85597 10.327 5.82254 10.3912 5.78536 10.3912C5.74818 10.3912 5.75922 10.322 5.75152 10.2913L5.75122 10.2917ZM6.04785 10.2501C6.04785 10.2501 5.98636 10.2686 5.99092 10.2501C5.99548 10.2317 6.00946 10.2271 6.02941 10.2271C6.03956 10.2165 6.05319 10.2099 6.06781 10.2086C6.07617 10.2082 6.08438 10.2109 6.09081 10.2163C6.09081 10.2163 6.13235 10.1978 6.1446 10.2086C6.15686 10.2193 6.14774 10.2193 6.15534 10.2317C6.16502 10.2454 6.17137 10.2612 6.17388 10.2778C6.17388 10.29 6.12779 10.3162 6.09081 10.3116C6.04785 10.3024 6.05545 10.2578 6.04785 10.2501ZM6.40588 10.1809C6.40588 10.1809 6.42432 10.1917 6.40902 10.204C6.39828 10.2148 6.34449 10.2344 6.29829 10.2379C6.25219 10.2379 6.21076 10.2455 6.21076 10.2302C6.21076 10.2149 6.24916 10.1841 6.27215 10.1764C6.27676 10.1706 6.28262 10.1659 6.28929 10.1627C6.29596 10.1595 6.30326 10.1579 6.31065 10.1579C6.32909 10.1579 6.40122 10.1502 6.42128 10.1472C6.43972 10.144 6.45512 10.1548 6.44428 10.1702C6.43972 10.1809 6.40588 10.1809 6.40588 10.1809ZM6.51195 9.70637C6.51195 9.70637 6.48885 9.75551 6.46282 9.75551C6.43668 9.75247 6.43668 9.74477 6.43668 9.73707C6.43668 9.72633 6.46282 9.69867 6.45968 9.69097C6.45208 9.69097 6.43354 9.69097 6.43668 9.67253C6.43668 9.65713 6.46282 9.63869 6.48582 9.64214C6.50319 9.62786 6.52483 9.61977 6.54731 9.61914C6.57345 9.61914 6.59645 9.62674 6.59645 9.64214C6.59645 9.65754 6.56605 9.69128 6.55491 9.69908C6.54265 9.71134 6.52725 9.71934 6.51195 9.70668V9.70637ZM6.16152 10.6146C6.16152 10.6146 6.13113 10.6178 6.13113 10.6331C6.13113 10.6408 6.13873 10.6408 6.14957 10.6362C6.15581 10.6359 6.162 10.6348 6.16801 10.6331C6.17105 10.6362 6.17105 10.6515 6.19414 10.6515C6.21311 10.649 6.23139 10.6427 6.24794 10.6331C6.26638 10.6255 6.28178 10.6177 6.28178 10.6027C6.27408 10.5766 6.25868 10.5642 6.23568 10.5642C6.2239 10.5634 6.21215 10.5661 6.20184 10.5719C6.20184 10.5719 6.19414 10.5565 6.16801 10.5719C6.14187 10.5873 6.14491 10.5873 6.15261 10.595C6.16639 10.6073 6.16183 10.6153 6.16183 10.6153L6.16152 10.6146ZM5.98788 10.7745C5.98788 10.7668 6.02627 10.7514 6.03701 10.7561C6.04775 10.7591 6.07845 10.8175 6.07845 10.8237C6.07845 10.8314 6.04005 10.8498 6.02465 10.8498C6.00925 10.8498 5.98322 10.8237 5.98322 10.8194C5.98322 10.8164 6.00166 10.8118 6.00166 10.8087C6.00622 10.8011 5.98788 10.7825 5.98788 10.7748V10.7745ZM5.86631 10.5501C5.87401 10.5471 5.87401 10.5394 5.88474 10.5317C5.88811 10.5294 5.89194 10.528 5.89594 10.5275C5.89994 10.5269 5.90402 10.5273 5.90784 10.5286C5.91055 10.5238 5.9143 10.5196 5.91882 10.5164C5.92334 10.5132 5.92852 10.5111 5.93398 10.5101C5.95242 10.5071 5.96782 10.5101 5.96437 10.5178C5.96437 10.5409 5.97977 10.5562 5.97977 10.5746C5.97977 10.5931 5.96903 10.6162 5.93064 10.6316C5.89224 10.6423 5.83997 10.6423 5.83227 10.6393C5.82457 10.6362 5.81687 10.6054 5.82457 10.59C5.83227 10.5746 5.85374 10.5578 5.8661 10.5501H5.86631Z" fill="#82764F"/>
<path fill-rule="evenodd" clip-rule="evenodd" d="M5.91542 10.5605C5.91542 10.5605 5.88926 10.5759 5.88926 10.5836C5.88694 10.5911 5.88592 10.5988 5.88622 10.6066C5.88622 10.6112 5.92008 10.6036 5.92464 10.5989C5.92616 10.5959 5.91542 10.5685 5.91542 10.5605Z" fill="#6E6342"/>
<path fill-rule="evenodd" clip-rule="evenodd" d="M5.68664 10.4884C5.70193 10.4915 5.72807 10.4884 5.74803 10.4961C5.76342 10.5038 5.77416 10.5192 5.75876 10.5376C5.74337 10.556 5.72837 10.5837 5.69423 10.579C5.65584 10.576 5.61897 10.556 5.61897 10.5406C5.61832 10.5309 5.61962 10.5211 5.62278 10.5119C5.62595 10.5027 5.63092 10.4942 5.6374 10.4869C5.6528 10.4746 5.6604 10.4823 5.68653 10.4884H5.68664Z" fill="#585136"/>
<path fill-rule="evenodd" clip-rule="evenodd" d="M5.66831 10.5038C5.66831 10.5038 5.61917 10.5422 5.60681 10.5607C5.59141 10.5792 5.51613 10.6744 5.49314 10.6943C5.50077 10.6809 5.50948 10.668 5.51917 10.656C5.48878 10.6754 5.46599 10.7047 5.45464 10.7389C5.4362 10.7959 5.55767 10.8266 5.63751 10.8497C5.71734 10.8728 5.74824 10.88 5.74824 10.88C5.71885 10.8359 5.69362 10.7891 5.67287 10.7402C5.64247 10.668 5.62677 10.6603 5.64673 10.6265C5.66213 10.5926 5.68523 10.5696 5.68523 10.5435C5.67601 10.5192 5.66831 10.5038 5.66831 10.5038Z" fill="#574F35"/>
<path fill-rule="evenodd" clip-rule="evenodd" d="M3.91607 10.6252C3.92725 10.6273 3.93872 10.6273 3.9499 10.6252C3.9729 10.6221 4.2127 10.5341 4.46324 10.5499C4.65079 10.5612 4.83669 10.5918 5.01801 10.6411C5.33308 10.724 5.72494 10.8885 5.97852 10.9823C6.04609 11.0083 6.11225 11.0545 6.16087 11.0729C6.35458 11.1482 6.36217 11.1482 6.47594 11.1682C6.60967 11.1866 6.74644 11.1421 6.88939 11.1114C7.06455 11.0729 7.36422 11.0544 7.62702 11.016C7.712 11.0042 7.79581 10.9852 7.87756 10.9592C7.87756 10.9592 7.66856 11.1682 7.16748 11.2435C6.96494 11.2742 6.75913 11.2768 6.55588 11.2512C6.39601 11.2358 6.29004 11.2127 6.21011 11.1897C6.11944 11.1635 5.93343 11.0943 5.70448 11.0377C5.54461 10.9962 5.36631 10.9655 5.16197 10.9271C4.65785 10.8348 4.11078 10.7288 3.91586 10.6259L3.91607 10.6252Z" fill="#252211"/>
<path fill-rule="evenodd" clip-rule="evenodd" d="M3.35047 9.67542C3.2289 9.77835 3.09994 9.87672 2.97401 9.97195L2.5944 10.2636C2.46534 10.3589 2.33931 10.4572 2.21014 10.5526C2.08097 10.6479 1.952 10.7385 1.81503 10.8261C1.9366 10.7232 2.06557 10.6278 2.19464 10.5341C2.32371 10.4404 2.45753 10.3485 2.58204 10.2535L2.96165 9.96141C3.09224 9.86618 3.21826 9.76781 3.35047 9.67562V9.67542ZM2.6789 10.7512C2.6789 10.7512 2.81566 10.6375 2.98627 10.4777C3.19831 10.2795 3.45806 10.0258 3.54104 9.97985L2.67879 10.7513L2.6789 10.7512Z" fill="#CFB66C"/>
<path fill-rule="evenodd" clip-rule="evenodd" d="M2.67902 10.7512C2.74669 10.6836 2.81892 10.6175 2.89116 10.5529L3.00179 10.4577C3.03563 10.4273 3.07412 10.3931 3.10786 10.3593C3.17543 10.2917 3.24159 10.2194 3.30916 10.1503C3.34266 10.1156 3.37807 10.0827 3.41523 10.0519C3.43382 10.0355 3.45445 10.0215 3.47663 10.0104C3.49517 9.99966 3.51513 9.98001 3.54116 9.97656C3.52586 9.99966 3.50743 10.0104 3.49203 10.0304C3.47359 10.0458 3.45819 10.0642 3.44289 10.0795C3.40905 10.1133 3.37066 10.144 3.33682 10.1748C3.26459 10.2363 3.18931 10.2964 3.11708 10.3607C3.04485 10.4251 2.97727 10.4945 2.90494 10.559C2.82662 10.6251 2.75439 10.6897 2.67902 10.7515V10.7512ZM3.5981 10.1364C3.5981 10.1364 3.09712 10.6268 2.99409 10.7066L3.5981 10.1364Z" fill="#CFB66C"/>
<path fill-rule="evenodd" clip-rule="evenodd" d="M3.59815 10.1365C3.55308 10.1886 3.50476 10.2379 3.45348 10.284L3.30151 10.4284C3.25238 10.4776 3.20618 10.5268 3.15401 10.576C3.10021 10.6221 3.05108 10.6671 2.99414 10.7097L3.14165 10.5652C3.19088 10.5161 3.24468 10.4746 3.29696 10.4254L3.44446 10.2809C3.49512 10.2303 3.54435 10.1811 3.59815 10.1365ZM3.62115 10.4023C3.57497 10.5312 3.52055 10.657 3.45824 10.7789C3.32917 11.0371 3.13557 11.3598 3.05098 11.5243L3.62115 10.4023Z" fill="#CFB66C"/>
<path fill-rule="evenodd" clip-rule="evenodd" d="M3.62102 10.4023C3.62102 10.4592 3.60562 10.5084 3.58718 10.5576C3.56921 10.6067 3.54872 10.6549 3.52579 10.702C3.50269 10.7481 3.47655 10.7973 3.45041 10.8419C3.42428 10.8865 3.39358 10.9325 3.37048 10.9787L3.21527 11.2522C3.16148 11.3434 3.1092 11.4351 3.05237 11.5227C3.09076 11.4244 3.14304 11.3322 3.19228 11.2415C3.24607 11.1503 3.29521 11.0591 3.34424 10.9648C3.36818 10.9178 3.38972 10.8696 3.40878 10.8204C3.43177 10.7712 3.45477 10.7251 3.47331 10.6805C3.49631 10.6314 3.51475 10.5852 3.53784 10.5407C3.56388 10.493 3.58546 10.4469 3.62082 10.4023H3.62102Z" fill="#CFB66C"/>
<path fill-rule="evenodd" clip-rule="evenodd" d="M4.16826 11.6625C4.16826 11.6625 4.0163 11.8638 4.03149 12.1189C4.07293 11.9852 4.1252 11.7808 4.16826 11.6625ZM4.31273 11.8643C4.31273 11.8643 4.25893 12.4114 4.21436 12.6803C4.27737 12.3694 4.28963 12.3956 4.31273 11.8643ZM5.31933 12.7127C5.31933 12.7127 5.09189 13.3813 5.08723 13.5671C5.13646 13.376 5.23169 12.9857 5.31933 12.7121V12.7127Z" fill="#DEC270"/>
<path fill-rule="evenodd" clip-rule="evenodd" d="M5.85114 11.6212C5.85114 11.6212 6.22 12.2298 6.49668 12.7492C6.42181 12.4878 6.24959 12.0084 5.85114 11.6212Z" fill="#CBAF59"/>
<path fill-rule="evenodd" clip-rule="evenodd" d="M6.84265 12.5171C7.04518 12.8751 7.22781 13.244 7.38972 13.6221C7.35903 13.3608 7.27595 12.9136 6.84265 12.5171Z" fill="#E3C677"/>
<path fill-rule="evenodd" clip-rule="evenodd" d="M9.75635 13.4143C9.81775 13.3759 9.93922 13.1668 10.0453 13.1146C10.1513 13.0608 10.2312 13.0501 10.3265 12.944C10.4218 12.8333 10.4481 12.7657 10.6569 12.6782C10.949 12.552 10.7481 12.3891 10.7481 12.3891C10.7802 12.3575 10.8146 12.3283 10.851 12.3016C10.9264 12.2448 11.0139 12.1756 11.0063 12.0541C10.9956 11.8498 10.9572 11.5531 10.7896 11.381C10.9525 11.3472 11.2644 11.3242 11.4582 11.275C11.6825 11.2181 11.7856 11.1382 11.7856 11.1382C11.7856 11.1382 11.6565 10.9184 11.8655 10.6972C12.0745 10.4759 12.2451 10.3437 12.3711 10.0962C12.2267 10.0778 12.0064 10.001 11.4444 10.2145C11.4747 10.2288 11.504 10.2452 11.532 10.2637C11.532 10.2637 11.1862 10.359 11.0602 10.4651C10.8404 10.651 10.8127 10.8031 10.5745 10.9169C10.3363 11.0307 10.0966 10.9999 9.89839 11.0921C9.70023 11.1843 9.67095 11.2627 9.59862 11.2965C9.61402 11.315 9.59558 11.3456 9.62475 11.3718C9.60632 11.3979 9.49873 11.5731 9.38962 11.5731C9.40035 11.6146 9.49255 11.6453 9.49255 11.6453C9.49255 11.6453 9.42497 11.6946 9.25285 11.7068C9.34038 11.798 9.42345 11.8974 9.65241 12.0418C9.63397 12.0802 9.55708 12.1372 9.58788 12.2094C9.62171 12.2816 9.70945 12.38 10.0597 12.46C9.88137 12.4676 9.67247 12.5091 9.39103 12.4707C9.1098 12.4369 9.0637 12.4169 8.89006 12.46C8.9085 12.4784 8.95763 12.4784 9.00069 12.5275C8.95459 12.5306 8.66566 12.4937 8.56729 12.6229C8.46436 12.7565 8.41978 12.9763 8.42748 13.1238C8.37369 13.15 8.32141 13.1961 8.34755 13.2914C8.37369 13.3867 8.51045 13.4174 8.59809 13.4773C8.68562 13.5418 8.69332 13.5648 8.77639 13.5495C8.86392 13.5311 8.99299 13.4436 9.06836 13.4436C9.14374 13.4436 9.19743 13.5004 9.19743 13.5004C9.19743 13.5004 9.40187 13.402 9.42183 13.4205C9.44027 13.4389 9.42487 13.5572 9.44483 13.5757C9.46509 13.5896 9.69537 13.4528 9.75686 13.4143H9.75635Z" fill="#ECD592"/>
<path fill-rule="evenodd" clip-rule="evenodd" d="M14.224 7.26411C13.2635 4.78364 10.889 4.3241 10.889 4.3241H4.11448L4.14062 6.85066H5.48976V12.4925H4.11438V15.0145H10.7014C12.289 15.0145 13.5615 13.4192 13.5615 13.4192C15.5994 10.5269 14.2239 7.26411 14.2239 7.26411H14.224ZM10.7368 11.7194C10.7368 11.7194 10.2201 12.4648 9.65795 12.4648H8.53341L8.50677 6.85684H9.94992C9.94992 6.85684 10.6186 6.99665 11.0857 8.31985C11.0857 8.31985 11.705 10.2143 10.7368 11.7194Z" fill="white" fill-opacity="0.8"/>
</svg>
