<svg width="91" height="92" viewBox="0 0 91 92" fill="none" xmlns="http://www.w3.org/2000/svg">
<circle cx="45.7453" cy="46" r="32" transform="rotate(135 45.7453 46)" fill="url(#paint0_linear_306_355)"/>
<path opacity="0.4" d="M54.9613 40.83V44.025L40.325 54.7575L37.3662 52.5412C36.635 51.99 36.0387 50.8087 36.0387 49.8975V40.83C36.0387 39.57 37.0062 38.175 38.1875 37.7362L44.3413 35.43C44.9825 35.1937 46.0175 35.1937 46.6588 35.43L52.8125 37.7362C53.9938 38.175 54.9613 39.57 54.9613 40.83Z" fill="#DF4981"/>
<path d="M54.9613 45.5663V49.8975C54.9613 50.8088 54.365 51.99 53.6338 52.5413L47.48 57.1425C46.94 57.5475 46.22 57.75 45.5 57.75C44.78 57.75 44.06 57.5475 43.52 57.1425L41.36 55.5338L54.9613 45.5663Z" fill="#DF4981"/>
<defs>
<linearGradient id="paint0_linear_306_355" x1="-43.3686" y1="-43.1139" x2="91.1518" y2="-5.82565" gradientUnits="userSpaceOnUse">
<stop stop-color="#DF4981"/>
<stop offset="1" stop-color="#2B2B2C" stop-opacity="0"/>
</linearGradient>
</defs>
</svg>
