<svg width="92" height="92" viewBox="0 0 92 92" fill="none" xmlns="http://www.w3.org/2000/svg">
<circle cx="46.2358" cy="46.2162" r="32" transform="rotate(135 46.2358 46.2162)" fill="url(#paint0_linear_307_358)"/>
<path d="M54.2817 38.7174L47.6892 35.7812C46.7217 35.3537 45.2592 35.3537 44.2917 35.7812L37.6992 38.7174C36.0342 39.4599 35.7867 40.4724 35.7867 41.0124C35.7867 41.5524 36.0342 42.5649 37.6992 43.3074L44.2917 46.2437C44.7755 46.4574 45.383 46.5699 45.9905 46.5699C46.598 46.5699 47.2055 46.4574 47.6892 46.2437L54.2817 43.3074C55.9467 42.5649 56.1942 41.5524 56.1942 41.0124C56.1942 40.4724 55.958 39.4599 54.2817 38.7174Z" fill="#8B54C1"/>
<path opacity="0.4" d="M45.9905 52.3862C45.563 52.3862 45.1355 52.2962 44.7417 52.1274L37.1592 48.7524C36.0005 48.2349 35.1005 46.8512 35.1005 45.5799C35.1005 45.1187 35.4717 44.7474 35.933 44.7474C36.3942 44.7474 36.7655 45.1187 36.7655 45.5799C36.7655 46.1874 37.2717 46.9749 37.8342 47.2224L45.4167 50.5974C45.7767 50.7549 46.193 50.7549 46.553 50.5974L54.1355 47.2224C54.698 46.9749 55.2042 46.1987 55.2042 45.5799C55.2042 45.1187 55.5755 44.7474 56.0367 44.7474C56.498 44.7474 56.8692 45.1187 56.8692 45.5799C56.8692 46.8399 55.9692 48.2349 54.8105 48.7524L47.228 52.1274C46.8455 52.2962 46.418 52.3862 45.9905 52.3862Z" fill="#8B54C1"/>
<path opacity="0.4" d="M45.9905 57.9661C45.563 57.9661 45.1355 57.8761 44.7417 57.7074L37.1592 54.3324C35.9105 53.7811 35.1005 52.5324 35.1005 51.1599C35.1005 50.6986 35.4717 50.3274 35.933 50.3274C36.3942 50.3274 36.7655 50.6986 36.7655 51.1599C36.7655 51.8686 37.1817 52.5099 37.8342 52.8024L45.4167 56.1774C45.7767 56.3349 46.193 56.3349 46.553 56.1774L54.1355 52.8024C54.7767 52.5211 55.2042 51.8686 55.2042 51.1599C55.2042 50.6986 55.5755 50.3274 56.0367 50.3274C56.498 50.3274 56.8692 50.6986 56.8692 51.1599C56.8692 52.5324 56.0592 53.7699 54.8105 54.3324L47.228 57.7074C46.8455 57.8761 46.418 57.9661 45.9905 57.9661Z" fill="#8B54C1"/>
<defs>
<linearGradient id="paint0_linear_307_358" x1="-21.2013" y1="-3.04857" x2="79.8195" y2="13.349" gradientUnits="userSpaceOnUse">
<stop stop-color="#8B54C1"/>
<stop offset="1" stop-color="#2B2B2C" stop-opacity="0"/>
</linearGradient>
</defs>
</svg>
