<svg width="92" height="92" viewBox="0 0 92 92" fill="none" xmlns="http://www.w3.org/2000/svg">
<circle cx="46.2358" cy="46.1967" r="32" transform="rotate(135 46.2358 46.1967)" fill="url(#paint0_linear_307_359)"/>
<path opacity="0.4" d="M41.0967 56.7202C41.063 56.7202 41.018 56.7427 40.9842 56.7427C38.8017 55.6627 37.0242 53.874 35.933 51.6915C35.933 51.6577 35.9555 51.6127 35.9555 51.579C37.328 51.984 38.7455 52.2877 40.1517 52.524C40.3992 53.9415 40.6917 55.3477 41.0967 56.7202Z" fill="#DFB549"/>
<path opacity="0.4" d="M56.048 51.7027C54.9342 53.9415 53.078 55.7527 50.8167 56.844C51.2442 55.4152 51.6042 53.9752 51.8405 52.524C53.258 52.2877 54.653 51.984 56.0255 51.579C56.0142 51.624 56.048 51.669 56.048 51.7027Z" fill="#DFB549"/>
<path opacity="0.4" d="M56.138 41.8703C54.7205 41.4428 53.2917 41.0941 51.8405 40.8466C51.6042 39.3953 51.2555 37.9553 50.8167 36.5491C53.1455 37.6628 55.0242 39.5416 56.138 41.8703Z" fill="#DFB549"/>
<path opacity="0.4" d="M41.0967 36.6728C40.6917 38.0453 40.3992 39.4403 40.163 40.8578C38.7117 41.0828 37.2717 41.4428 35.843 41.8703C36.9342 39.609 38.7455 37.7528 40.9842 36.639C41.018 36.639 41.063 36.6728 41.0967 36.6728Z" fill="#DFB549"/>
<path d="M49.9167 40.6105C47.3067 40.318 44.6742 40.318 42.0642 40.6105C42.3455 39.0693 42.7055 37.528 43.2117 36.043C43.2342 35.953 43.223 35.8855 43.2342 35.7955C44.123 35.5818 45.0342 35.4468 45.9905 35.4468C46.9355 35.4468 47.858 35.5818 48.7355 35.7955C48.7467 35.8855 48.7467 35.953 48.7692 36.043C49.2755 37.5393 49.6355 39.0693 49.9167 40.6105Z" fill="#DFB549"/>
<path d="M39.9042 50.623C38.3517 50.3418 36.8217 49.9818 35.3367 49.4755C35.2467 49.453 35.1792 49.4643 35.0892 49.453C34.8755 48.5643 34.7405 47.653 34.7405 46.6968C34.7405 45.7518 34.8755 44.8293 35.0892 43.9518C35.1792 43.9405 35.2467 43.9405 35.3367 43.918C36.833 43.423 38.3517 43.0518 39.9042 42.7705C39.623 45.3805 39.623 48.013 39.9042 50.623Z" fill="#DFB549"/>
<path d="M57.2405 46.6968C57.2405 47.653 57.1055 48.5643 56.8917 49.453C56.8017 49.4643 56.7342 49.453 56.6442 49.4755C55.148 49.9705 53.618 50.3418 52.0767 50.623C52.3692 48.013 52.3692 45.3805 52.0767 42.7705C53.618 43.0518 55.1592 43.4118 56.6442 43.918C56.7342 43.9405 56.8017 43.9518 56.8917 43.9518C57.1055 44.8405 57.2405 45.7518 57.2405 46.6968Z" fill="#DFB549"/>
<path d="M49.9167 52.7831C49.6355 54.3356 49.2755 55.8656 48.7692 57.3506C48.7467 57.4406 48.7467 57.5081 48.7355 57.5981C47.858 57.8118 46.9355 57.9468 45.9905 57.9468C45.0342 57.9468 44.123 57.8118 43.2342 57.5981C43.223 57.5081 43.2342 57.4406 43.2117 57.3506C42.7167 55.8543 42.3455 54.3356 42.0642 52.7831C43.3692 52.9293 44.6742 53.0306 45.9905 53.0306C47.3067 53.0306 48.623 52.9293 49.9167 52.7831Z" fill="#DFB549"/>
<path d="M50.2242 50.9305C47.4105 51.2855 44.5704 51.2855 41.7567 50.9305C41.4017 48.1168 41.4017 45.2768 41.7567 42.463C44.5704 42.108 47.4105 42.108 50.2242 42.463C50.5792 45.2768 50.5792 48.1168 50.2242 50.9305Z" fill="#DFB549"/>
<defs>
<linearGradient id="paint0_linear_307_359" x1="-42.8782" y1="-42.9173" x2="91.6422" y2="-5.62899" gradientUnits="userSpaceOnUse">
<stop stop-color="#DFB549"/>
<stop offset="1" stop-color="#2B2B2C" stop-opacity="0"/>
</linearGradient>
</defs>
</svg>
