<svg width="21" height="21" viewBox="0 0 21 21" fill="none" xmlns="http://www.w3.org/2000/svg">
<path d="M16.4062 7V8.12892C16.4062 8.50373 16.1129 8.79685 15.7388 8.77417C15.4021 8.75375 15.0938 8.47972 15.0938 8.14243V7C15.0938 4.24375 14.315 2.40625 10.5 2.40625C6.685 2.40625 5.90625 4.24375 5.90625 7V8.14243C5.90625 8.47972 5.5979 8.75375 5.26122 8.77417C4.8871 8.79685 4.59375 8.50373 4.59375 8.12892V7C4.59375 4.4625 5.20625 1.09375 10.5 1.09375C15.7937 1.09375 16.4062 4.4625 16.4062 7Z" fill="url(#paint0_linear_125_852)"/>
<path opacity="0.4" d="M19.25 13.125V14.875C19.25 18.375 18.375 19.25 14.875 19.25H6.125C2.625 19.25 1.75 18.375 1.75 14.875V13.125C1.75 10.2025 2.3625 9.10876 4.59375 8.83751C4.97875 8.78501 5.41625 8.75875 5.90625 8.75H15.0937C15.5837 8.75875 16.0212 8.78501 16.4062 8.83751C18.6375 9.10876 19.25 10.2025 19.25 13.125Z" fill="url(#paint1_linear_125_852)"/>
<path d="M7 14.875C6.88625 14.875 6.7725 14.8488 6.6675 14.805C6.55375 14.7613 6.46626 14.7 6.37876 14.6213C6.22126 14.455 6.125 14.2275 6.125 14C6.125 13.8863 6.15124 13.7725 6.19499 13.6675C6.23874 13.5625 6.30001 13.4662 6.37876 13.3787C6.46626 13.3 6.55375 13.2388 6.6675 13.195C6.99125 13.055 7.37624 13.1337 7.62124 13.3787C7.69999 13.4662 7.76126 13.5625 7.80501 13.6675C7.84876 13.7725 7.875 13.8863 7.875 14C7.875 14.2275 7.77874 14.455 7.62124 14.6213C7.45499 14.7788 7.2275 14.875 7 14.875Z" fill="url(#paint2_linear_125_852)"/>
<path d="M10.5 14.875C10.2637 14.875 10.045 14.7788 9.87876 14.6213C9.80001 14.5338 9.73874 14.4375 9.69499 14.3325C9.65124 14.2275 9.625 14.1138 9.625 14C9.625 13.7638 9.72126 13.545 9.87876 13.3788C10.2025 13.055 10.7887 13.055 11.1212 13.3788C11.2787 13.545 11.375 13.7638 11.375 14C11.375 14.1138 11.3488 14.2275 11.305 14.3325C11.2613 14.4375 11.2 14.5338 11.1212 14.6213C10.955 14.7788 10.7275 14.875 10.5 14.875Z" fill="url(#paint3_linear_125_852)"/>
<path d="M14 14.875C13.7725 14.875 13.545 14.7788 13.3788 14.6213C13.2213 14.455 13.125 14.2363 13.125 14C13.125 13.7638 13.2213 13.545 13.3788 13.3788C13.7113 13.055 14.2975 13.055 14.6212 13.3788C14.6562 13.4225 14.6912 13.4663 14.7262 13.5188C14.7268 13.5194 14.7273 13.5201 14.7278 13.5207C14.7966 13.6078 14.8393 13.7156 14.8575 13.825C14.8663 13.8863 14.875 13.9475 14.875 14C14.875 14.2275 14.7787 14.455 14.6212 14.6213C14.455 14.7788 14.2275 14.875 14 14.875Z" fill="url(#paint4_linear_125_852)"/>
<defs>
<linearGradient id="paint0_linear_125_852" x1="4.59375" y1="4.96563" x2="16.4062" y2="4.96563" gradientUnits="userSpaceOnUse">
<stop stop-color="#FC466B"/>
<stop offset="1" stop-color="#3F5EFB"/>
</linearGradient>
<linearGradient id="paint1_linear_125_852" x1="1.75" y1="14" x2="19.25" y2="14" gradientUnits="userSpaceOnUse">
<stop stop-color="#FC466B"/>
<stop offset="1" stop-color="#3F5EFB"/>
</linearGradient>
<linearGradient id="paint2_linear_125_852" x1="6.125" y1="14.0005" x2="7.875" y2="14.0005" gradientUnits="userSpaceOnUse">
<stop stop-color="#FC466B"/>
<stop offset="1" stop-color="#3F5EFB"/>
</linearGradient>
<linearGradient id="paint3_linear_125_852" x1="9.625" y1="14.0055" x2="11.375" y2="14.0055" gradientUnits="userSpaceOnUse">
<stop stop-color="#FC466B"/>
<stop offset="1" stop-color="#3F5EFB"/>
</linearGradient>
<linearGradient id="paint4_linear_125_852" x1="13.125" y1="14.0055" x2="14.875" y2="14.0055" gradientUnits="userSpaceOnUse">
<stop stop-color="#FC466B"/>
<stop offset="1" stop-color="#3F5EFB"/>
</linearGradient>
</defs>
</svg>
