<svg width="20" height="20" viewBox="0 0 20 20" fill="none" xmlns="http://www.w3.org/2000/svg">
<path opacity="0.4" d="M11.0335 1.66666C11.4252 1.66666 11.7502 1.98332 11.7502 2.38332V17.625C11.7502 18.0167 11.4335 18.3417 11.0335 18.3417C6.12519 18.3417 2.7002 14.9167 2.7002 10.0083C2.7002 5.09999 6.13353 1.66666 11.0335 1.66666Z" fill="#FF4949"/>
<path d="M17.1164 9.61667L14.7497 7.24167C14.5081 7.00001 14.1081 7.00001 13.8664 7.24167C13.6247 7.48334 13.6247 7.88334 13.8664 8.12501L15.1664 9.42501H7.19141C6.84974 9.42501 6.56641 9.70834 6.56641 10.05C6.56641 10.3917 6.84974 10.675 7.19141 10.675H15.1664L13.8664 11.975C13.6247 12.2167 13.6247 12.6167 13.8664 12.8583C13.9914 12.9833 14.1497 13.0417 14.3081 13.0417C14.4664 13.0417 14.6247 12.9833 14.7497 12.8583L17.1164 10.4833C17.3581 10.25 17.3581 9.85834 17.1164 9.61667Z" fill="#FF4949"/>
</svg>
