<svg width="20" height="20" viewBox="0 0 20 20" fill="none" xmlns="http://www.w3.org/2000/svg">
<path d="M4.16686 15.2083C4.00853 15.2083 3.8502 15.15 3.7252 15.025C3.48353 14.7833 3.48353 14.3833 3.7252 14.1417L15.3919 2.475C15.6335 2.23333 16.0335 2.23333 16.2752 2.475C16.5169 2.71666 16.5169 3.11666 16.2752 3.35833L4.60853 15.025C4.48353 15.15 4.3252 15.2083 4.16686 15.2083Z" fill="#FC466B"/>
<path d="M12.7253 15.2083H4.16699C3.82533 15.2083 3.54199 14.925 3.54199 14.5833V6.02498C3.54199 5.68331 3.82533 5.39998 4.16699 5.39998C4.50866 5.39998 4.79199 5.68331 4.79199 6.02498V13.9583H12.7253C13.067 13.9583 13.3503 14.2416 13.3503 14.5833C13.3503 14.925 13.067 15.2083 12.7253 15.2083Z" fill="#FC466B"/>
<path d="M17.0837 18.9583H2.91699C2.57533 18.9583 2.29199 18.675 2.29199 18.3333C2.29199 17.9917 2.57533 17.7083 2.91699 17.7083H17.0837C17.4253 17.7083 17.7087 17.9917 17.7087 18.3333C17.7087 18.675 17.4253 18.9583 17.0837 18.9583Z" fill="#FC466B"/>
</svg>
