<svg width="34" height="34" viewBox="0 0 34 34" fill="none" xmlns="http://www.w3.org/2000/svg">
<path opacity="0.4" d="M29.8775 30.4583C29.8775 30.855 29.5658 31.1667 29.1692 31.1667H4.83083C4.43416 31.1667 4.1225 30.855 4.1225 30.4583C4.1225 24.5933 9.90249 19.8333 17 19.8333C18.4592 19.8333 19.8758 20.0316 21.1792 20.4141C20.3433 21.4058 19.8333 22.695 19.8333 24.0833C19.8333 25.1458 20.1308 26.1517 20.655 27.0017C20.9383 27.4833 21.3067 27.9225 21.7317 28.2908C22.7233 29.1975 24.0408 29.75 25.5 29.75C27.0867 29.75 28.5175 29.0983 29.5375 28.05C29.7642 28.815 29.8775 29.6225 29.8775 30.4583Z" fill="#DF4981"/>
<path d="M29.7075 20.3008C28.6875 19.1392 27.1717 18.4167 25.5 18.4167C23.9133 18.4167 22.4683 19.0684 21.4342 20.1309C20.4425 21.1509 19.8333 22.5533 19.8333 24.0833C19.8333 25.1458 20.1308 26.1517 20.655 27.0017C20.9383 27.4833 21.3067 27.9224 21.7317 28.2908C22.7233 29.1974 24.0408 29.75 25.5 29.75C27.5683 29.75 29.3675 28.645 30.345 27.0017C30.6425 26.52 30.8692 25.9675 30.9967 25.4008C31.11 24.9758 31.1667 24.5367 31.1667 24.0833C31.1667 22.6383 30.6142 21.3067 29.7075 20.3008ZM27.625 25.1175H26.5625V26.2225C26.5625 26.8033 26.0808 27.285 25.5 27.285C24.9192 27.285 24.4375 26.8033 24.4375 26.2225V25.1175H23.375C22.7942 25.1175 22.3125 24.6358 22.3125 24.055C22.3125 23.4741 22.7942 22.9925 23.375 22.9925H24.4375V21.9867C24.4375 21.4059 24.9192 20.9242 25.5 20.9242C26.0808 20.9242 26.5625 21.4059 26.5625 21.9867V22.9925H27.625C28.2058 22.9925 28.6875 23.4741 28.6875 24.055C28.6875 24.6358 28.2058 25.1175 27.625 25.1175Z" fill="#DF4981"/>
<path d="M17 17C20.912 17 24.0833 13.8287 24.0833 9.91668C24.0833 6.00466 20.912 2.83334 17 2.83334C13.088 2.83334 9.91667 6.00466 9.91667 9.91668C9.91667 13.8287 13.088 17 17 17Z" fill="#DF4981"/>
</svg>
